<svg xmlns="http://www.w3.org/2000/svg" width="137.178" height="76.543"><g data-name="Group 742" fill="none" stroke-linecap="round"><path data-name="Path 921" d="M3.594 32.848l54.29 32.96h0a8.119 8.119 0 008.119 8.119h2.373a8.119 8.119 0 008.118-8.119h0l57.113-32.96" stroke="#0e838a" stroke-miterlimit="10" stroke-width="5.232"/><path data-name="Path 922" d="M7.518 28.609l54.916 33.733a14.536 14.536 0 005.879 1.044c3.347-.1 60.9-34.777 60.9-34.777l-4.393-5.746-33.829 21.226 30.314-25.765-3.954-4.114S87.893 25.779 66.199 55.937L14.986 14.21l-3.075 5.223 27.552 20.082-29.818-13.8z" stroke="#000" stroke-linejoin="round" stroke-width="2.466"/><path data-name="Path 923" d="M27.287 1.233l-5.758 9.768s29.666 10.486 43.557 37.574c0 0-9.681-40.855-37.799-47.342z" stroke="#000" stroke-linejoin="round" stroke-width="2.466"/></g></svg>