<svg xmlns="http://www.w3.org/2000/svg" width="137.178" height="76.543" viewBox="0 0 137.178 76.543">
  <g id="Group_742" data-name="Group 742" transform="translate(3.594 1.233)">
    <path id="Path_921" data-name="Path 921" d="M451.018,330.78l54.29,32.96h0a8.119,8.119,0,0,0,8.119,8.119H515.8a8.119,8.119,0,0,0,8.118-8.119h0l57.113-32.96" transform="translate(-451.018 -299.165)" fill="none" stroke="#0e838a" stroke-linecap="round" stroke-miterlimit="10" stroke-width="5.232"/>
    <path id="Path_922" data-name="Path 922" d="M454.942,326.541l54.916,33.733a14.536,14.536,0,0,0,5.879,1.044c3.347-.1,60.9-34.777,60.9-34.777l-4.393-5.746-33.829,21.226,30.314-25.765-3.954-4.114s-29.458,11.569-51.152,41.727L462.41,312.142l-3.075,5.223,27.552,20.082-29.818-13.8Z" transform="translate(-451.018 -299.165)" fill="none" stroke="#000" stroke-linecap="round" stroke-linejoin="round" stroke-width="2.466"/>
    <path id="Path_923" data-name="Path 923" d="M474.711,299.165l-5.758,9.768s29.666,10.486,43.557,37.574C512.51,346.507,502.829,305.652,474.711,299.165Z" transform="translate(-451.018 -299.165)" fill="none" stroke="#000" stroke-linecap="round" stroke-linejoin="round" stroke-width="2.466"/>
  </g>
</svg>
