<svg id="Group_805" data-name="Group 805" xmlns="http://www.w3.org/2000/svg" xmlns:xlink="http://www.w3.org/1999/xlink" width="162.318" height="97.579" viewBox="0 0 162.318 97.579">
  <defs>
    <clipPath id="clip-path">
      <circle id="Ellipse_37" data-name="Ellipse 37" cx="20.039" cy="20.039" r="20.039" transform="translate(0 31.4) rotate(-51.581)" fill="none"/>
    </clipPath>
  </defs>
  <g id="Group_765" data-name="Group 765" transform="translate(116.042 41.677)">
    <g id="Group_764" data-name="Group 764">
      <g id="Group_746" data-name="Group 746" transform="translate(14.468)">
        <path id="Path_1035" data-name="Path 1035" d="M332.872,238.969c1.813-3.452,4.96-6,8.213-8.147A28.646,28.646,0,0,0,346.2,227a12.284,12.284,0,0,0,2.313-12.985,12.857,12.857,0,0,0-10.872-7.588,13.492,13.492,0,0,0-11.854,6.086c-3.061,4.747-2.2,11.106-7.091,17.488l14.176,8.971" transform="translate(-318.696 -206.404)" fill="#f2cb54"/>
      </g>
      <g id="Group_748" data-name="Group 748" transform="translate(19.716 7.609)" opacity="0.48">
        <g id="Group_747" data-name="Group 747">
          <path id="Path_1036" data-name="Path 1036" d="M335.491,242.766l-8.928-5.65s11.14-4.324,15.774-7.951,8.8-11.356,8.8-11.356A12.284,12.284,0,0,1,348.82,230.8a28.646,28.646,0,0,1-5.117,3.824c-3.253,2.149-6.4,4.7-8.213,8.147" transform="translate(-326.563 -217.81)" fill="#ecbb50"/>
        </g>
      </g>
      <g id="Group_749" data-name="Group 749" transform="translate(0 26.025)">
        <path id="Path_1037" data-name="Path 1037" d="M326.962,258.355l-2.071,4.959a25.437,25.437,0,0,1-3.1,5.9c-5.4,6.99-15.577,6.255-20.8.282-3.041-3.478-4.806-8.353-3.6-13.1a17.277,17.277,0,0,1,2.438-5.674c.474-.679,5.083-5.821,6.023-5.264l3.867,2.292c-3.8,2.536-6.989,7.418-6.377,11.711a8.589,8.589,0,0,0,9.323,7.226,11.232,11.232,0,0,0,6.644-3.882,28.565,28.565,0,0,0,4.055-6.59Z" transform="translate(-297.008 -245.416)" fill="#4bb9bf"/>
      </g>
      <g id="Group_750" data-name="Group 750" transform="translate(24.366 36.825)">
        <path id="Path_1038" data-name="Path 1038" d="M337.491,267.65l1.631-3.906-3.6-2.139c-.617,1.267-1.256,2.537-1.992,3.747Z" transform="translate(-333.534 -261.605)" fill="#66b2b2"/>
      </g>
      <g id="Group_751" data-name="Group 751" transform="translate(5.396 26.025)">
        <path id="Path_1039" data-name="Path 1039" d="M309.2,250.637a15.67,15.67,0,0,1,3.211-2.887l-3.867-2.292c-.5-.3-2.045,1.027-3.45,2.43Z" transform="translate(-305.097 -245.416)" fill="#66b2b2"/>
      </g>
      <g id="Group_752" data-name="Group 752" transform="translate(2.338 18.233)">
        <path id="Path_1040" data-name="Path 1040" d="M336.321,254.491c.641,1.056-3.071,5.129-4.193,5.646s-30.531-19.37-31.364-20.673c-.928-1.45.9-4.525,2.562-5.574C306.822,231.678,335.963,253.9,336.321,254.491Z" transform="translate(-300.513 -233.735)" fill="#4bb9bf"/>
      </g>
      <g id="Group_753" data-name="Group 753" transform="translate(24.48 2.651)" opacity="0.22">
        <path id="Path_1041" data-name="Path 1041" d="M339.741,216.415c-1.888,1.888-4.336,2.5-5.468,1.367s-.521-3.58,1.367-5.468,4.336-2.5,5.468-1.367S341.629,214.528,339.741,216.415Z" transform="translate(-333.704 -210.379)" fill="#fff"/>
      </g>
      <g id="Group_754" data-name="Group 754" transform="translate(8.205 22.19)">
        <path id="Path_1042" data-name="Path 1042" d="M310.022,243.789a.714.714,0,0,1-.578-1.133l1.95-2.694a.714.714,0,1,1,1.157.837l-1.95,2.694A.713.713,0,0,1,310.022,243.789Z" transform="translate(-309.308 -239.667)" fill="#6cb3b8"/>
      </g>
      <g id="Group_755" data-name="Group 755" transform="translate(5.134 20.185)">
        <path id="Path_1043" data-name="Path 1043" d="M305.418,240.784a.714.714,0,0,1-.578-1.133l1.95-2.694a.714.714,0,1,1,1.157.837L306,240.488A.713.713,0,0,1,305.418,240.784Z" transform="translate(-304.705 -236.662)" fill="#6cb3b8"/>
      </g>
      <g id="Group_756" data-name="Group 756" transform="translate(11.112 23.978)">
        <path id="Path_1044" data-name="Path 1044" d="M314.379,246.469a.714.714,0,0,1-.578-1.133l1.95-2.694a.714.714,0,1,1,1.157.837l-1.95,2.694A.713.713,0,0,1,314.379,246.469Z" transform="translate(-313.665 -242.347)" fill="#6cb3b8"/>
      </g>
      <g id="Group_757" data-name="Group 757" transform="translate(14.089 26.123)">
        <path id="Path_1045" data-name="Path 1045" d="M318.842,249.686a.715.715,0,0,1-.578-1.133l1.949-2.694a.714.714,0,1,1,1.157.837l-1.95,2.694A.714.714,0,0,1,318.842,249.686Z" transform="translate(-318.128 -245.563)" fill="#6cb3b8"/>
      </g>
      <g id="Group_758" data-name="Group 758" transform="translate(17.307 28.019)">
        <path id="Path_1046" data-name="Path 1046" d="M323.665,252.527a.714.714,0,0,1-.578-1.133l1.95-2.694a.714.714,0,1,1,1.157.837l-1.95,2.694A.712.712,0,0,1,323.665,252.527Z" transform="translate(-322.952 -248.405)" fill="#6cb3b8"/>
      </g>
      <g id="Group_759" data-name="Group 759" transform="translate(20.078 29.95)">
        <path id="Path_1047" data-name="Path 1047" d="M327.819,255.422a.714.714,0,0,1-.578-1.133l1.95-2.694a.714.714,0,1,1,1.157.837l-1.949,2.694A.712.712,0,0,1,327.819,255.422Z" transform="translate(-327.106 -251.3)" fill="#6cb3b8"/>
      </g>
      <g id="Group_760" data-name="Group 760" transform="translate(22.901 31.723)">
        <path id="Path_1048" data-name="Path 1048" d="M332.052,258.08a.714.714,0,0,1-.578-1.133l1.949-2.694a.714.714,0,1,1,1.157.838l-1.95,2.694A.712.712,0,0,1,332.052,258.08Z" transform="translate(-331.338 -253.957)" fill="#6cb3b8"/>
      </g>
      <g id="Group_761" data-name="Group 761" transform="translate(25.821 33.775)">
        <path id="Path_1049" data-name="Path 1049" d="M336.428,261.156a.714.714,0,0,1-.578-1.133l1.949-2.694a.714.714,0,0,1,1.157.838l-1.95,2.694A.712.712,0,0,1,336.428,261.156Z" transform="translate(-335.714 -257.034)" fill="#6cb3b8"/>
      </g>
      <g id="Group_762" data-name="Group 762" transform="translate(28.477 35.83)">
        <path id="Path_1050" data-name="Path 1050" d="M340.41,264.235a.714.714,0,0,1-.578-1.133l1.95-2.694a.714.714,0,1,1,1.157.838l-1.95,2.694A.712.712,0,0,1,340.41,264.235Z" transform="translate(-339.697 -260.114)" fill="#6cb3b8"/>
      </g>
      <g id="Group_763" data-name="Group 763" transform="translate(31.422 37.837)">
        <path id="Path_1051" data-name="Path 1051" d="M344.824,267.244a.714.714,0,0,1-.578-1.133l1.95-2.694a.714.714,0,1,1,1.157.838l-1.95,2.694A.712.712,0,0,1,344.824,267.244Z" transform="translate(-344.111 -263.122)" fill="#6cb3b8"/>
      </g>
    </g>
  </g>
  <g id="Group_766" data-name="Group 766" transform="translate(114.974 40.606)">
    <path id="Path_1052" data-name="Path 1052" d="M310.99,261.771a15.18,15.18,0,0,1-11.341-5.088,15.713,15.713,0,0,1-3.825-14.073,18.2,18.2,0,0,1,2.6-6.023,33.456,33.456,0,0,1,2.656-2.939l.035-.036.465-.455c-3.076-2.221-3.277-2.535-3.414-2.75a3.2,3.2,0,0,1-.313-2.459,8.127,8.127,0,0,1,3.2-4.6c1.062-.672,3.057-.672,10.257,3.668a29.127,29.127,0,0,0,3.143-8.421,23.472,23.472,0,0,1,2.682-7.2,14.508,14.508,0,0,1,12.816-6.575,13.927,13.927,0,0,1,11.8,8.239,13.4,13.4,0,0,1-2.525,14.145,24.429,24.429,0,0,1-4.492,3.449q-.405.263-.809.528h0a24.255,24.255,0,0,0-7.029,6.41c2.221,1.629,8.273,6.1,8.645,6.712a1.875,1.875,0,0,1,.112,1.571,13.617,13.617,0,0,1-4.773,5.6c-.548.251-.866.4-5.142-2.2l-.388.929a26.306,26.306,0,0,1-3.244,6.145,13.769,13.769,0,0,1-10.662,5.413Q311.215,261.771,310.99,261.771Zm-8.327-26.68c-.011.011-.021.023-.033.034a34.3,34.3,0,0,0-2.452,2.688,16.14,16.14,0,0,0-2.279,5.326,13.58,13.58,0,0,0,3.363,12.134,13.015,13.015,0,0,0,10.114,4.35,11.664,11.664,0,0,0,9.032-4.582,24.614,24.614,0,0,0,2.963-5.662l.871-2.084a1.072,1.072,0,0,1,1.552-.5,45.179,45.179,0,0,0,4.461,2.559,14.076,14.076,0,0,0,3.325-4c-.93-.776-4.17-3.294-8.753-6.622a1.07,1.07,0,0,1-.295-1.407c2.12-3.623,5.5-6.142,8.212-7.932q.408-.269.821-.536a22.463,22.463,0,0,0,4.111-3.133,11.2,11.2,0,0,0,2.1-11.827,11.742,11.742,0,0,0-9.95-6.938,12.5,12.5,0,0,0-10.891,5.6,21.882,21.882,0,0,0-2.407,6.568,29.45,29.45,0,0,1-4,9.954,1.072,1.072,0,0,1-1.448.311c-7.307-4.5-8.788-4.252-8.932-4.206a6.05,6.05,0,0,0-2.211,3.229,1.362,1.362,0,0,0,0,.8,45.077,45.077,0,0,0,3.95,2.97,1.072,1.072,0,0,1,.079,1.683l-1.229,1.145-.05.049Zm27.844,14.364Zm2.826-19.168h0ZM311.15,254.3a9.774,9.774,0,0,1-9.4-8.213c-.447-3.14.851-6.726,3.561-9.837.177-.2.357-.4.541-.6l.233-.237c.153-.153.274-.268.4-.382a1.074,1.074,0,0,1,1.346-.1c4.633,3.2,9.948,6.748,14.217,9.494a1.071,1.071,0,0,1,.359,1.418l-.125.228c-.151.277-.3.554-.466.824a20.788,20.788,0,0,1-2.232,3.094,12.217,12.217,0,0,1-7.3,4.233A8.387,8.387,0,0,1,311.15,254.3Zm-3.808-17.1c-.139.148-.277.3-.414.459-2.268,2.6-3.41,5.642-3.056,8.129a7.494,7.494,0,0,0,8.117,6.315,10.092,10.092,0,0,0,5.987-3.53h0a18.671,18.671,0,0,0,2-2.779l.064-.108C316.142,243.162,311.509,240.068,307.342,237.2Z" transform="translate(-295.408 -204.798)" fill="#2d3962"/>
  </g>
  <g id="Group_786" data-name="Group 786" transform="translate(0 27.202)">
    <g id="Group_767" data-name="Group 767" transform="translate(35.285 37.512)">
      <path id="Path_1053" data-name="Path 1053" d="M192.592,256.723l-11.835-15.787L175.952,245l11.92,15.257a7.841,7.841,0,1,0,4.72-3.539Zm4.589,7.249a2.67,2.67,0,1,1-2.9-2.421A2.67,2.67,0,0,1,197.181,263.972Z" transform="translate(-175.952 -240.936)" fill="#f2cb54"/>
    </g>
    <g id="Group_768" data-name="Group 768" transform="translate(35.285 39.759)">
      <path id="Path_1054" data-name="Path 1054" d="M191.313,268.38a6.324,6.324,0,0,1-.908-5.249,6.476,6.476,0,0,0-1.38-5.514L178.1,244.3l-2.151,1.822,11.92,15.257a7.732,7.732,0,0,0,7.34,11.658Z" transform="translate(-175.952 -244.304)" fill="#ecbb50"/>
    </g>
    <g id="Group_769" data-name="Group 769">
      <circle id="Ellipse_35" data-name="Ellipse 35" cx="20.039" cy="20.039" r="20.039" transform="translate(0 31.4) rotate(-51.581)" fill="#4bb9bf"/>
    </g>
    <g id="Group_770" data-name="Group 770" transform="translate(21.543 22.13)" opacity="0.35">
      <path id="Path_1055" data-name="Path 1055" d="M180.8,217.878a20.041,20.041,0,0,1-25.448,24.7,38.489,38.489,0,0,0,14.816-9.189A47.646,47.646,0,0,0,180.8,217.878Z" transform="translate(-155.352 -217.878)" fill="#6cb3b8"/>
    </g>
    <g id="Group_771" data-name="Group 771" transform="translate(13.358 11.199)" opacity="0.3">
      <ellipse id="Ellipse_36" data-name="Ellipse 36" cx="6.852" cy="4.174" rx="6.852" ry="4.174" transform="matrix(0.5, -0.866, 0.866, 0.5, 0, 11.869)" fill="#fff"/>
    </g>
    <g id="Group_784" data-name="Group 784" opacity="0.69">
      <g id="Group_783" data-name="Group 783" clip-path="url(#clip-path)">
        <g id="Group_772" data-name="Group 772" transform="translate(45.042 24.96)">
          <path id="Path_1056" data-name="Path 1056" d="M192.949,222.3a1.632,1.632,0,1,1-2.194.717A1.632,1.632,0,0,1,192.949,222.3Z" transform="translate(-190.578 -222.121)" fill="#fff"/>
        </g>
        <g id="Group_773" data-name="Group 773" transform="translate(11.486 15.587)">
          <path id="Path_1057" data-name="Path 1057" d="M142.648,208.248a1.632,1.632,0,1,1-2.194.717A1.633,1.633,0,0,1,142.648,208.248Z" transform="translate(-140.277 -208.071)" fill="#fff"/>
        </g>
        <g id="Group_774" data-name="Group 774" transform="translate(33.239 43.75)">
          <path id="Path_1058" data-name="Path 1058" d="M175.256,250.464a1.632,1.632,0,1,1-2.194.717A1.632,1.632,0,0,1,175.256,250.464Z" transform="translate(-172.885 -250.287)" fill="#fff"/>
        </g>
        <g id="Group_775" data-name="Group 775" transform="translate(11.53 26.333)">
          <path id="Path_1059" data-name="Path 1059" d="M142.715,224.356a1.632,1.632,0,1,1-2.194.717A1.633,1.633,0,0,1,142.715,224.356Z" transform="translate(-140.343 -224.179)" fill="#fff"/>
        </g>
        <g id="Group_776" data-name="Group 776" transform="translate(16.897 40.027)">
          <path id="Path_1060" data-name="Path 1060" d="M150.76,244.884a1.632,1.632,0,1,1-2.194.717A1.632,1.632,0,0,1,150.76,244.884Z" transform="translate(-148.388 -244.707)" fill="#fff"/>
        </g>
        <g id="Group_777" data-name="Group 777" transform="translate(21.178 30.687)">
          <path id="Path_1061" data-name="Path 1061" d="M157.176,230.883a1.632,1.632,0,1,1-2.194.717A1.632,1.632,0,0,1,157.176,230.883Z" transform="translate(-154.805 -230.705)" fill="#fff"/>
        </g>
        <g id="Group_778" data-name="Group 778" transform="translate(38.123 32.205)">
          <path id="Path_1062" data-name="Path 1062" d="M182.578,233.158a1.632,1.632,0,1,1-2.194.717A1.632,1.632,0,0,1,182.578,233.158Z" transform="translate(-180.207 -232.98)" fill="#fff"/>
        </g>
        <g id="Group_779" data-name="Group 779" transform="translate(28.512 22.088)">
          <path id="Path_1063" data-name="Path 1063" d="M168.171,217.992a1.632,1.632,0,1,1-2.194.717A1.633,1.633,0,0,1,168.171,217.992Z" transform="translate(-165.8 -217.815)" fill="#fff"/>
        </g>
        <g id="Group_780" data-name="Group 780" transform="translate(28.99 11.104)">
          <path id="Path_1064" data-name="Path 1064" d="M168.887,201.527a1.632,1.632,0,1,1-2.194.717A1.632,1.632,0,0,1,168.887,201.527Z" transform="translate(-166.516 -201.35)" fill="#fff"/>
        </g>
        <g id="Group_781" data-name="Group 781" transform="translate(36.721 19.084)">
          <path id="Path_1065" data-name="Path 1065" d="M180.476,213.49a1.632,1.632,0,1,1-2.194.716A1.632,1.632,0,0,1,180.476,213.49Z" transform="translate(-178.104 -213.312)" fill="#fff"/>
        </g>
        <g id="Group_782" data-name="Group 782" transform="translate(29.715 36.231)">
          <path id="Path_1066" data-name="Path 1066" d="M169.974,239.193a1.632,1.632,0,1,1-2.194.717A1.633,1.633,0,0,1,169.974,239.193Z" transform="translate(-167.602 -239.016)" fill="#fff"/>
        </g>
      </g>
    </g>
    <g id="Group_785" data-name="Group 785" transform="translate(7.041 7.042)">
      <path id="Path_1067" data-name="Path 1067" d="M180.422,257.817a8.825,8.825,0,0,1-8.771-8.025,8.737,8.737,0,0,1,.853-4.627l-7.913-10.128a20.91,20.91,0,0,1-7.981,2.36,21.12,21.12,0,1,1,14.421-7.625l7.911,10.553c.239-.043.47-.075.7-.1a8.812,8.812,0,1,1,1.574,17.553Q180.815,257.818,180.422,257.817Zm-15.553-25.234a1.069,1.069,0,0,1,.845.412l8.909,11.4a1.072,1.072,0,0,1,.076,1.207,6.615,6.615,0,0,0-.914,4,6.669,6.669,0,1,0,6.048-7.238,6.548,6.548,0,0,0-1.067.193,1.075,1.075,0,0,1-1.125-.395l-8.84-11.791a1.072,1.072,0,0,1,.059-1.356,18.782,18.782,0,0,0,4.757-14.334,18.963,18.963,0,1,0-9.29,18.052A1.073,1.073,0,0,1,164.869,232.583Zm15.556,20.163a3.741,3.741,0,0,1-.331-7.467,3.741,3.741,0,0,1,4.059,3.392,3.743,3.743,0,0,1-3.392,4.059h0Q180.592,252.746,180.425,252.746Zm.241-1.082h0Zm-.235-4.259c-.048,0-.1,0-.145.007a1.6,1.6,0,1,0,.286,3.185h0a1.6,1.6,0,0,0-.14-3.192Z" transform="translate(-133.614 -195.261)" fill="#2d3962"/>
    </g>
  </g>
  <g id="Group_788" data-name="Group 788" transform="translate(129.157)">
    <g id="Group_787" data-name="Group 787">
      <path id="Path_1068" data-name="Path 1068" d="M329.166,146.421l1.433,4.306a1.3,1.3,0,0,0,1.238.887l4.538-.032a1.3,1.3,0,0,1,.778,2.338l-3.652,2.693a1.3,1.3,0,0,0-.46,1.452l1.433,4.307a1.3,1.3,0,0,1-1.983,1.462l-3.69-2.642a1.3,1.3,0,0,0-1.523.011l-3.653,2.694a1.3,1.3,0,0,1-2-1.434l1.372-4.326a1.3,1.3,0,0,0-.481-1.445l-3.69-2.642a1.3,1.3,0,0,1,.745-2.349l4.538-.032a1.3,1.3,0,0,0,1.225-.9l1.372-4.326A1.3,1.3,0,0,1,329.166,146.421Z" transform="translate(-317.204 -144.463)" fill="#4bb9bf"/>
      <path id="Path_1069" data-name="Path 1069" d="M322.32,164.694a2.362,2.362,0,0,1-1.378-.45,2.332,2.332,0,0,1-.879-2.64l1.372-4.326a.225.225,0,0,0-.083-.251l-3.69-2.641a2.366,2.366,0,0,1,1.36-4.291l4.539-.033a.224.224,0,0,0,.212-.155l1.372-4.327a2.329,2.329,0,0,1,2.238-1.651h.018a2.332,2.332,0,0,1,2.245,1.619h0l1.433,4.306a.271.271,0,0,0,.215.153l4.538-.031h.019a2.366,2.366,0,0,1,1.4,4.271L333.6,156.94a.225.225,0,0,0-.08.251l1.434,4.307a2.367,2.367,0,0,1-3.624,2.672l-3.69-2.642a.223.223,0,0,0-.263,0l-3.652,2.694A2.361,2.361,0,0,1,322.32,164.694Zm5.082-18.623h0a.2.2,0,0,0-.212.156l-1.372,4.326a2.358,2.358,0,0,1-2.239,1.651l-4.538.033a.224.224,0,0,0-.129.407l3.69,2.641a2.363,2.363,0,0,1,.879,2.64l-1.372,4.326a.224.224,0,0,0,.347.248l3.653-2.693a2.362,2.362,0,0,1,2.782-.019l3.69,2.642a.225.225,0,0,0,.344-.253l-1.434-4.307a2.359,2.359,0,0,1,.842-2.652l3.652-2.693a.2.2,0,0,0,.079-.252.2.2,0,0,0-.214-.153l-4.538.032h-.017a2.361,2.361,0,0,1-2.245-1.619l-1.433-4.306h0A.2.2,0,0,0,327.4,146.071Z" transform="translate(-316.668 -143.929)" fill="#2d3962"/>
    </g>
  </g>
  <g id="Group_790" data-name="Group 790" transform="translate(23.381 81.096)">
    <g id="Group_789" data-name="Group 789">
      <path id="Path_1070" data-name="Path 1070" d="M166.3,267.392l.9,2.711a.815.815,0,0,0,.78.558l2.857-.02a.815.815,0,0,1,.49,1.472l-2.3,1.7a.815.815,0,0,0-.29.914l.9,2.71a.815.815,0,0,1-1.248.921l-2.323-1.663a.815.815,0,0,0-.959.007l-2.3,1.7a.815.815,0,0,1-1.261-.9l.864-2.723a.817.817,0,0,0-.3-.91l-2.324-1.663a.815.815,0,0,1,.469-1.478l2.857-.02a.815.815,0,0,0,.771-.569l.864-2.723A.815.815,0,0,1,166.3,267.392Z" transform="translate(-158.555 -265.94)" fill="#f2cb54"/>
      <path id="Path_1071" data-name="Path 1071" d="M161.885,279a1.708,1.708,0,0,1-1-.325,1.682,1.682,0,0,1-.633-1.9l.847-2.67-2.277-1.63a1.708,1.708,0,0,1,.981-3.1l2.8-.02.847-2.669a1.708,1.708,0,0,1,3.249-.024h0l.884,2.658,2.8-.019a1.708,1.708,0,0,1,1.026,3.083l-2.255,1.662.885,2.657a1.708,1.708,0,0,1-2.615,1.929L165.153,277l-2.254,1.663A1.7,1.7,0,0,1,161.885,279Zm-1.828-7.844,2.131,1.525a1.7,1.7,0,0,1,.634,1.905l-.792,2.5,2.109-1.555a1.7,1.7,0,0,1,2.008-.013l2.13,1.524-.828-2.486a1.706,1.706,0,0,1,.607-1.914l2.109-1.555-2.62.019a1.728,1.728,0,0,1-1.632-1.169l-.827-2.486-.792,2.5a1.7,1.7,0,0,1-1.616,1.191Zm7.549-1.785h0Zm-1.749-2.429-.847.281h0Z" transform="translate(-158.108 -265.494)" fill="#2d3962"/>
    </g>
  </g>
  <g id="Group_800" data-name="Group 800" transform="translate(41.258 10.186)">
    <g id="Group_791" data-name="Group 791" transform="translate(1.071 1.072)">
      <path id="Path_1072" data-name="Path 1072" d="M186.512,168.053l27.182-7.248s3.165,14.792,14.838,14.75,16.636-14.486,16.636-14.486l27.781,10.42-4.208,15.834-11.615-1.313.27,38.011s-13.805-.864-21.968,18.6l-14.383-.074s-9.741-19.689-18.623-21.427l-.928-35.325-12.273,1.374Z" transform="translate(-186.512 -160.805)" fill="#4bb9bf"/>
    </g>
    <g id="Group_792" data-name="Group 792" transform="translate(25.385 47.269)" opacity="0.35">
      <path id="Path_1073" data-name="Path 1073" d="M269.409,230.056l.12,17.019s-13.805-.864-21.968,18.6l-14.383-.074s-4.525-9.146-10.219-15.521c0,0,12.918,3.5,23.418-.284S269.409,230.056,269.409,230.056Z" transform="translate(-222.959 -230.056)" fill="#6cb3b8"/>
    </g>
    <g id="Group_793" data-name="Group 793" transform="translate(17.124 55.957)">
      <path id="Path_1074" data-name="Path 1074" d="M231.894,269.774c-3.442-11.684-9.059-17.887-13.165-21.033a20.93,20.93,0,0,0-8.154-4.071l.268-1.591c.638.107,15.719,2.885,22.6,26.238Z" transform="translate(-210.575 -243.079)" fill="#75c3c7"/>
    </g>
    <g id="Group_794" data-name="Group 794" transform="translate(45.562 59.262)">
      <path id="Path_1075" data-name="Path 1075" d="M254.792,271.858l-1.588-.282c4.077-22.912,26.02-23.539,26.241-23.543l.027,1.613C278.623,249.661,258.633,250.274,254.792,271.858Z" transform="translate(-253.204 -248.033)" fill="#75c3c7"/>
    </g>
    <g id="Group_795" data-name="Group 795" transform="translate(23.056 2.05)">
      <path id="Path_1076" data-name="Path 1076" d="M238.962,180.543h-.239c-5.664-.051-10.8-3.165-14.846-9a35.625,35.625,0,0,1-4.41-8.787l1.54-.479c.052.165,5.294,16.543,17.731,16.656h.221c16.008,0,19.96-15.876,20-16.037l1.57.373C260.486,163.439,256.226,180.543,238.962,180.543Z" transform="translate(-219.467 -162.272)" fill="#75c3c7"/>
    </g>
    <g id="Group_796" data-name="Group 796" transform="translate(79.581 10.386)">
      <rect id="Rectangle_33" data-name="Rectangle 33" width="16.907" height="1.613" transform="translate(0 16.468) rotate(-76.908)" fill="#75c3c7"/>
    </g>
    <g id="Group_797" data-name="Group 797" transform="translate(3.169 7.295)">
      <rect id="Rectangle_34" data-name="Rectangle 34" width="1.613" height="19.681" transform="matrix(0.988, -0.153, 0.153, 0.988, 0, 0.247)" fill="#75c3c7"/>
    </g>
    <g id="Group_798" data-name="Group 798" transform="translate(53.403 25.438)">
      <path id="Path_1077" data-name="Path 1077" d="M270.892,210.193a1.073,1.073,0,0,1-.6-.181l-4.865-3.253a1.071,1.071,0,0,1-.474-.948l.4-7.467a1.082,1.082,0,0,1,1.109-1.013l10.052.37a1.071,1.071,0,0,1,1.031,1.107l-.261,7.67a1.07,1.07,0,0,1-.589.92l-5.327,2.68A1.07,1.07,0,0,1,270.892,210.193Zm-3.762-4.876,3.838,2.567,4.2-2.114.2-5.969-7.932-.291Z" transform="translate(-264.958 -197.331)" fill="#2d3962"/>
    </g>
    <g id="Group_799" data-name="Group 799">
      <path id="Path_1078" data-name="Path 1078" d="M234.893,243.158h-.005l-14.383-.073a1.071,1.071,0,0,1-.955-.6,90.87,90.87,0,0,0-5.917-9.949c-4.472-6.477-8.6-10.247-11.952-10.9a1.07,1.07,0,0,1-.865-1.023l-.9-34.159L188.805,187.7a1.076,1.076,0,0,1-1.179-.915l-2.709-19.116a1.071,1.071,0,0,1,.785-1.185l27.182-7.249a1.072,1.072,0,0,1,1.324.81c.03.139,3.123,13.9,13.742,13.9h.045c10.787-.039,15.58-13.626,15.627-13.763a1.071,1.071,0,0,1,1.389-.655l27.781,10.42a1.071,1.071,0,0,1,.659,1.278l-4.207,15.834a1.062,1.062,0,0,1-1.156.789l-10.415-1.177.261,36.8a1.073,1.073,0,0,1-.335.786,1.06,1.06,0,0,1-.8.291c-.526-.027-13.173-.514-20.914,17.946A1.071,1.071,0,0,1,234.893,243.158Zm-13.723-2.212,13.017.066c7.1-16.289,18.034-18.352,21.6-18.578l-.262-36.951a1.072,1.072,0,0,1,1.191-1.071l10.7,1.209,3.721-14-25.884-9.708a31.393,31.393,0,0,1-3.7,6.494c-3.741,5.012-8.427,7.671-13.55,7.689h-.053c-5.145,0-9.522-2.721-12.662-7.872a28.082,28.082,0,0,1-2.893-6.636l-25.223,6.726,2.43,17.146L200.84,184.2a1.072,1.072,0,0,1,1.189,1.037l.907,34.514C211.17,222.264,219.473,237.653,221.17,240.946Z" transform="translate(-184.906 -159.199)" fill="#2d3962"/>
    </g>
  </g>
  <g id="Group_801" data-name="Group 801" transform="translate(144.437 25.457)">
    <path id="Path_1079" data-name="Path 1079" d="M347.837,187.025a3.329,3.329,0,1,1-3.329-3.329A3.329,3.329,0,0,1,347.837,187.025Z" transform="translate(-340.108 -182.625)" fill="#4bb9bf"/>
    <path id="Path_1080" data-name="Path 1080" d="M343.974,190.89a4.4,4.4,0,1,1,4.4-4.4A4.4,4.4,0,0,1,343.974,190.89Zm0-6.658a2.258,2.258,0,1,0,2.257,2.258A2.261,2.261,0,0,0,343.974,184.232Z" transform="translate(-339.574 -182.09)" fill="#2d3962"/>
  </g>
  <g id="Group_802" data-name="Group 802" transform="translate(134.828 26.321)">
    <path id="Path_1081" data-name="Path 1081" d="M328.727,185.162a1.779,1.779,0,1,1-1.779-1.778A1.779,1.779,0,0,1,328.727,185.162Z" transform="translate(-325.169 -183.384)" fill="#2d3962"/>
  </g>
</svg>
