<svg data-name="Group 805" xmlns="http://www.w3.org/2000/svg" width="162.318" height="97.579"><defs><clipPath id="a"><circle data-name="Ellipse 37" cx="20.039" cy="20.039" r="20.039" transform="rotate(-51.581 32.49 15.7)" fill="none"/></clipPath></defs><g data-name="Group 765"><g data-name="Group 764"><g data-name="Group 746"><path data-name="Path 1035" d="M144.686 74.242c1.813-3.452 4.96-6 8.213-8.147a28.646 28.646 0 005.115-3.822 12.284 12.284 0 002.313-12.985 12.857 12.857 0 00-10.872-7.588 13.492 13.492 0 00-11.854 6.086c-3.061 4.747-2.2 11.106-7.091 17.488l14.176 8.971" fill="#f2cb54"/></g><g data-name="Group 748"><g data-name="Group 747"><path data-name="Path 1036" d="M144.686 74.242l-8.928-5.65s11.14-4.324 15.774-7.951 8.8-11.356 8.8-11.356a12.284 12.284 0 01-2.317 12.991 28.646 28.646 0 01-5.117 3.824c-3.253 2.149-6.4 4.7-8.213 8.147" fill="#ecbb50" opacity=".48"/></g></g><g data-name="Group 749"><path data-name="Path 1037" d="M145.996 80.641l-2.071 4.959a25.437 25.437 0 01-3.1 5.9c-5.4 6.99-15.577 6.255-20.8.282-3.041-3.478-4.806-8.353-3.6-13.1a17.277 17.277 0 012.438-5.674c.474-.679 5.083-5.821 6.023-5.264l3.867 2.292c-3.8 2.536-6.989 7.418-6.377 11.711a8.589 8.589 0 009.323 7.226 11.232 11.232 0 006.644-3.882 28.565 28.565 0 004.055-6.59z" fill="#4bb9bf"/></g><g data-name="Group 750"><path data-name="Path 1038" d="M144.365 84.547l1.631-3.906-3.6-2.139c-.617 1.267-1.256 2.537-1.992 3.747z" fill="#66b2b2"/></g><g data-name="Group 751"><path data-name="Path 1039" d="M125.541 72.923a15.67 15.67 0 013.211-2.887l-3.867-2.292c-.5-.3-2.045 1.027-3.45 2.43z" fill="#66b2b2"/></g><g data-name="Group 752"><path data-name="Path 1040" d="M154.188 80.666c.641 1.056-3.071 5.129-4.193 5.646s-30.531-19.37-31.364-20.673c-.928-1.45.9-4.525 2.562-5.574 3.496-2.212 32.637 20.01 32.995 20.601z" fill="#4bb9bf"/></g><g data-name="Group 753"><path data-name="Path 1041" d="M146.559 50.364c-1.888 1.888-4.336 2.5-5.468 1.367s-.521-3.58 1.367-5.468 4.336-2.5 5.468-1.367.521 3.581-1.367 5.468z" fill="#fff" opacity=".22"/></g><g data-name="Group 754"><path data-name="Path 1042" d="M124.961 67.989a.714.714 0 01-.578-1.133l1.95-2.694a.714.714 0 111.157.837l-1.95 2.694a.713.713 0 01-.579.296z" fill="#6cb3b8"/></g><g data-name="Group 755"><path data-name="Path 1043" d="M121.889 65.984a.714.714 0 01-.578-1.133l1.95-2.694a.714.714 0 111.157.837l-1.947 2.694a.713.713 0 01-.582.296z" fill="#6cb3b8"/></g><g data-name="Group 756"><path data-name="Path 1044" d="M127.868 69.777a.714.714 0 01-.578-1.133l1.95-2.694a.714.714 0 111.157.837l-1.95 2.694a.713.713 0 01-.579.296z" fill="#6cb3b8"/></g><g data-name="Group 757"><path data-name="Path 1045" d="M130.845 71.923a.715.715 0 01-.578-1.133l1.949-2.694a.714.714 0 111.157.837l-1.95 2.694a.714.714 0 01-.578.296z" fill="#6cb3b8"/></g><g data-name="Group 758"><path data-name="Path 1046" d="M134.062 73.818a.714.714 0 01-.578-1.133l1.95-2.694a.714.714 0 111.157.837l-1.95 2.694a.712.712 0 01-.579.296z" fill="#6cb3b8"/></g><g data-name="Group 759"><path data-name="Path 1047" d="M136.833 75.749a.714.714 0 01-.578-1.133l1.95-2.694a.714.714 0 111.157.837l-1.949 2.694a.712.712 0 01-.58.296z" fill="#6cb3b8"/></g><g data-name="Group 760"><path data-name="Path 1048" d="M139.657 77.523a.714.714 0 01-.578-1.133l1.949-2.694a.714.714 0 111.157.838l-1.95 2.694a.712.712 0 01-.578.295z" fill="#6cb3b8"/></g><g data-name="Group 761"><path data-name="Path 1049" d="M142.577 79.574a.714.714 0 01-.578-1.133l1.949-2.694a.714.714 0 011.157.838l-1.95 2.694a.712.712 0 01-.578.295z" fill="#6cb3b8"/></g><g data-name="Group 762"><path data-name="Path 1050" d="M145.232 81.628a.714.714 0 01-.578-1.133l1.95-2.694a.714.714 0 111.157.838l-1.95 2.694a.712.712 0 01-.579.295z" fill="#6cb3b8"/></g><g data-name="Group 763"><path data-name="Path 1051" d="M148.177 83.636a.714.714 0 01-.578-1.133l1.95-2.694a.714.714 0 111.157.838l-1.95 2.694a.712.712 0 01-.579.295z" fill="#6cb3b8"/></g></g></g><g data-name="Group 766"><path data-name="Path 1052" d="M130.556 97.579a15.18 15.18 0 01-11.341-5.088 15.713 15.713 0 01-3.825-14.073 18.2 18.2 0 012.6-6.023 33.456 33.456 0 012.656-2.939l.035-.036.465-.455c-3.076-2.221-3.277-2.535-3.414-2.75a3.2 3.2 0 01-.313-2.459 8.127 8.127 0 013.2-4.6c1.062-.672 3.057-.672 10.257 3.668a29.127 29.127 0 003.143-8.421 23.472 23.472 0 012.682-7.2 14.508 14.508 0 0112.816-6.575 13.927 13.927 0 0111.8 8.239 13.4 13.4 0 01-2.525 14.145 24.429 24.429 0 01-4.492 3.449q-.405.263-.809.528a24.255 24.255 0 00-7.029 6.41c2.221 1.629 8.273 6.1 8.645 6.712a1.875 1.875 0 01.112 1.571 13.617 13.617 0 01-4.773 5.6c-.548.251-.866.4-5.142-2.2l-.388.929a26.306 26.306 0 01-3.244 6.145 13.769 13.769 0 01-10.662 5.413q-.229.01-.454.01zm-8.327-26.68l-.033.034a34.3 34.3 0 00-2.452 2.688 16.14 16.14 0 00-2.279 5.326 13.58 13.58 0 003.363 12.134 13.015 13.015 0 0010.114 4.35 11.664 11.664 0 009.032-4.582 24.614 24.614 0 002.963-5.662l.871-2.084a1.072 1.072 0 011.552-.5 45.179 45.179 0 004.461 2.559 14.076 14.076 0 003.325-4c-.93-.776-4.17-3.294-8.753-6.622a1.07 1.07 0 01-.295-1.407c2.12-3.623 5.5-6.142 8.212-7.932q.408-.269.821-.536a22.463 22.463 0 004.111-3.133 11.2 11.2 0 002.1-11.827 11.742 11.742 0 00-9.95-6.938 12.5 12.5 0 00-10.891 5.6 21.882 21.882 0 00-2.407 6.568 29.45 29.45 0 01-4 9.954 1.072 1.072 0 01-1.448.311c-7.307-4.5-8.788-4.252-8.932-4.206a6.05 6.05 0 00-2.211 3.229 1.362 1.362 0 000 .8 45.077 45.077 0 003.95 2.97 1.072 1.072 0 01.079 1.683l-1.229 1.145-.05.049zm27.844 14.364zm2.826-19.168zm-22.183 24.013a9.774 9.774 0 01-9.4-8.213c-.447-3.14.851-6.726 3.561-9.837.177-.2.357-.4.541-.6l.233-.237c.153-.153.274-.268.4-.382a1.074 1.074 0 011.346-.1c4.633 3.2 9.948 6.748 14.217 9.494a1.071 1.071 0 01.359 1.418l-.125.228c-.151.277-.3.554-.466.824a20.788 20.788 0 01-2.232 3.094 12.217 12.217 0 01-7.3 4.233 8.387 8.387 0 01-1.134.078zm-3.808-17.1c-.139.148-.277.3-.414.459-2.268 2.6-3.41 5.642-3.056 8.129a7.494 7.494 0 008.117 6.315 10.092 10.092 0 005.987-3.53 18.671 18.671 0 002-2.779l.064-.108a569.206 569.206 0 01-12.698-8.486z" fill="#2d3962"/></g><g data-name="Group 786"><g data-name="Group 767"><path data-name="Path 1053" d="M51.925 80.501L40.09 64.714l-4.805 4.064 11.92 15.257a7.841 7.841 0 104.72-3.539zm4.589 7.249a2.67 2.67 0 11-2.9-2.421 2.67 2.67 0 012.9 2.421z" fill="#f2cb54"/></g><g data-name="Group 768"><path data-name="Path 1054" d="M50.646 91.037a6.324 6.324 0 01-.908-5.249 6.476 6.476 0 00-1.38-5.514L37.433 66.957l-2.151 1.822 11.92 15.257a7.732 7.732 0 007.34 11.658z" fill="#ecbb50"/></g><g data-name="Group 769"><circle data-name="Ellipse 35" cx="20.039" cy="20.039" r="20.039" transform="rotate(-51.581 60.638 29.301)" fill="#4bb9bf"/></g><g data-name="Group 770"><path data-name="Path 1055" d="M46.991 49.332a20.041 20.041 0 01-25.448 24.7 38.489 38.489 0 0014.816-9.189 47.646 47.646 0 0010.632-15.511z" fill="#6cb3b8" opacity=".35"/></g><g data-name="Group 771"><ellipse data-name="Ellipse 36" cx="6.852" cy="4.174" rx="6.852" ry="4.174" transform="rotate(-60 50.215 13.568)" fill="#fff" opacity=".3"/></g><g data-name="Group 784"><g data-name="Group 783" clip-path="url(#a)" transform="translate(0 27.202)" opacity=".69"><g data-name="Group 772"><path data-name="Path 1056" d="M47.413 25.139a1.632 1.632 0 11-2.194.717 1.632 1.632 0 012.194-.717z" fill="#fff"/></g><g data-name="Group 773"><path data-name="Path 1057" d="M13.857 15.764a1.632 1.632 0 11-2.194.717 1.633 1.633 0 012.194-.717z" fill="#fff"/></g><g data-name="Group 774"><path data-name="Path 1058" d="M35.61 43.927a1.632 1.632 0 11-2.194.717 1.632 1.632 0 012.194-.717z" fill="#fff"/></g><g data-name="Group 775"><path data-name="Path 1059" d="M13.902 26.51a1.632 1.632 0 11-2.194.717 1.633 1.633 0 012.194-.717z" fill="#fff"/></g><g data-name="Group 776"><path data-name="Path 1060" d="M19.269 40.204a1.632 1.632 0 11-2.194.717 1.632 1.632 0 012.194-.717z" fill="#fff"/></g><g data-name="Group 777"><path data-name="Path 1061" d="M23.549 30.865a1.632 1.632 0 11-2.194.717 1.632 1.632 0 012.194-.717z" fill="#fff"/></g><g data-name="Group 778"><path data-name="Path 1062" d="M40.494 32.383a1.632 1.632 0 11-2.194.717 1.632 1.632 0 012.194-.717z" fill="#fff"/></g><g data-name="Group 779"><path data-name="Path 1063" d="M30.883 22.265a1.632 1.632 0 11-2.194.717 1.633 1.633 0 012.194-.717z" fill="#fff"/></g><g data-name="Group 780"><path data-name="Path 1064" d="M31.361 11.281a1.632 1.632 0 11-2.194.717 1.632 1.632 0 012.194-.717z" fill="#fff"/></g><g data-name="Group 781"><path data-name="Path 1065" d="M39.093 19.262a1.632 1.632 0 11-2.194.716 1.632 1.632 0 012.194-.716z" fill="#fff"/></g><g data-name="Group 782"><path data-name="Path 1066" d="M32.087 36.408a1.632 1.632 0 11-2.194.717 1.633 1.633 0 012.194-.717z" fill="#fff"/></g></g></g><g data-name="Group 785"><path data-name="Path 1067" d="M53.849 96.8a8.825 8.825 0 01-8.771-8.025 8.737 8.737 0 01.853-4.627L38.018 74.02a20.91 20.91 0 01-7.981 2.36 21.12 21.12 0 1114.421-7.625l7.911 10.553c.239-.043.47-.075.7-.1a8.812 8.812 0 111.574 17.553q-.401.04-.794.039zM38.296 71.566a1.069 1.069 0 01.845.412l8.909 11.4a1.072 1.072 0 01.076 1.207 6.615 6.615 0 00-.914 4 6.669 6.669 0 106.048-7.238 6.548 6.548 0 00-1.067.193 1.075 1.075 0 01-1.125-.395l-8.84-11.791a1.072 1.072 0 01.059-1.356 18.782 18.782 0 004.757-14.334 18.963 18.963 0 10-9.29 18.052 1.073 1.073 0 01.542-.15zm15.556 20.163a3.741 3.741 0 01-.331-7.467 3.741 3.741 0 014.059 3.392 3.743 3.743 0 01-3.392 4.059q-.169.016-.336.016zm.241-1.082zm-.235-4.259c-.048 0-.1 0-.145.007a1.6 1.6 0 10.286 3.185 1.6 1.6 0 00-.14-3.192z" fill="#2d3962"/></g></g><g data-name="Group 788"><g data-name="Group 787"><path data-name="Path 1068" d="M141.119 1.958l1.433 4.306a1.3 1.3 0 001.238.887l4.538-.032a1.3 1.3 0 01.778 2.338l-3.652 2.693a1.3 1.3 0 00-.46 1.452l1.433 4.307a1.3 1.3 0 01-1.983 1.462l-3.69-2.642a1.3 1.3 0 00-1.523.011l-3.653 2.694a1.3 1.3 0 01-2-1.434l1.372-4.326a1.3 1.3 0 00-.481-1.445l-3.69-2.642a1.3 1.3 0 01.745-2.349l4.538-.032a1.3 1.3 0 001.225-.9l1.372-4.326a1.3 1.3 0 012.46-.022z" fill="#4bb9bf"/><path data-name="Path 1069" d="M134.809 20.765a2.362 2.362 0 01-1.378-.45 2.332 2.332 0 01-.879-2.64l1.372-4.326a.225.225 0 00-.083-.251l-3.69-2.641a2.366 2.366 0 011.36-4.291l4.539-.033a.224.224 0 00.212-.155l1.372-4.327A2.329 2.329 0 01139.872 0h.018a2.332 2.332 0 012.245 1.619l1.433 4.306a.271.271 0 00.215.153l4.538-.031h.019a2.366 2.366 0 011.4 4.271l-3.651 2.693a.225.225 0 00-.08.251l1.434 4.307a2.367 2.367 0 01-3.624 2.672l-3.69-2.642a.223.223 0 00-.263 0l-3.652 2.694a2.361 2.361 0 01-1.405.472zm5.082-18.623a.2.2 0 00-.212.156l-1.372 4.326a2.358 2.358 0 01-2.239 1.651l-4.538.033a.224.224 0 00-.129.407l3.69 2.641a2.363 2.363 0 01.879 2.64l-1.372 4.326a.224.224 0 00.347.248l3.653-2.693a2.362 2.362 0 012.782-.019l3.69 2.642a.225.225 0 00.344-.253l-1.434-4.307a2.359 2.359 0 01.842-2.652l3.652-2.693a.2.2 0 00.079-.252.2.2 0 00-.214-.153l-4.538.032h-.017a2.361 2.361 0 01-2.245-1.619l-1.433-4.306a.2.2 0 00-.217-.155z" fill="#2d3962"/></g></g><g data-name="Group 790"><g data-name="Group 789"><path data-name="Path 1070" d="M31.126 82.548l.9 2.711a.815.815 0 00.78.558l2.857-.02a.815.815 0 01.49 1.472l-2.3 1.7a.815.815 0 00-.29.914l.9 2.71a.815.815 0 01-1.248.921l-2.323-1.663a.815.815 0 00-.959.007l-2.3 1.7a.815.815 0 01-1.261-.9l.864-2.723a.817.817 0 00-.3-.91l-2.324-1.663a.815.815 0 01.469-1.478l2.857-.02a.815.815 0 00.771-.569l.864-2.723a.815.815 0 011.553-.024z" fill="#f2cb54"/><path data-name="Path 1071" d="M27.158 94.602a1.708 1.708 0 01-1-.325 1.682 1.682 0 01-.633-1.9l.847-2.67-2.277-1.63a1.708 1.708 0 01.981-3.1l2.8-.02.847-2.669a1.708 1.708 0 013.249-.024l.884 2.658 2.8-.019a1.708 1.708 0 011.026 3.083l-2.255 1.662.885 2.657a1.708 1.708 0 01-2.615 1.929l-2.271-1.632-2.254 1.663a1.7 1.7 0 01-1.014.337zm-1.828-7.844l2.131 1.525a1.7 1.7 0 01.634 1.905l-.792 2.5 2.109-1.555a1.7 1.7 0 012.008-.013l2.13 1.524-.828-2.486a1.706 1.706 0 01.607-1.914l2.109-1.555-2.62.019a1.728 1.728 0 01-1.632-1.169l-.827-2.486-.792 2.5a1.7 1.7 0 01-1.616 1.191zm7.549-1.785zm-1.749-2.429l-.847.281z" fill="#2d3962"/></g></g><g data-name="Group 800"><g data-name="Group 791"><path data-name="Path 1072" d="M42.329 18.506l27.182-7.248s3.165 14.792 14.838 14.75 16.636-14.486 16.636-14.486l27.781 10.42-4.208 15.834-11.615-1.313.27 38.011s-13.805-.864-21.968 18.6L76.862 93s-9.741-19.689-18.623-21.427l-.928-35.325-12.273 1.374z" fill="#4bb9bf"/></g><g data-name="Group 792"><path data-name="Path 1073" d="M113.093 57.455l.12 17.019s-13.805-.864-21.968 18.6L76.862 93s-4.525-9.146-10.219-15.521c0 0 12.918 3.5 23.418-.284s23.032-19.74 23.032-19.74z" fill="#6cb3b8" opacity=".35"/></g><g data-name="Group 793"><path data-name="Path 1074" d="M79.701 92.838c-3.442-11.684-9.059-17.887-13.165-21.033a20.93 20.93 0 00-8.154-4.071l.268-1.591c.638.107 15.719 2.885 22.6 26.238z" fill="#75c3c7"/></g><g data-name="Group 794"><path data-name="Path 1075" d="M88.408 93.273l-1.588-.282c4.077-22.912 26.02-23.539 26.241-23.543l.027 1.613c-.849.015-20.839.628-24.68 22.212z" fill="#75c3c7"/></g><g data-name="Group 795"><path data-name="Path 1076" d="M83.809 30.507h-.239c-5.664-.051-10.8-3.165-14.846-9a35.625 35.625 0 01-4.41-8.787l1.54-.479c.052.165 5.294 16.543 17.731 16.656h.221c16.008 0 19.96-15.876 20-16.037l1.57.373c-.043.17-4.303 17.274-21.567 17.274z" fill="#75c3c7"/></g><g data-name="Group 796"><path data-name="Rectangle 33" fill="#75c3c7" d="M120.839 37.04l3.83-16.468 1.57.366-3.829 16.467z"/></g><g data-name="Group 797"><path data-name="Rectangle 34" fill="#75c3c7" d="M44.427 17.728l1.594-.247 3.01 19.445-1.593.247z"/></g><g data-name="Group 798"><path data-name="Path 1077" d="M100.595 48.486a1.073 1.073 0 01-.6-.181l-4.865-3.253a1.071 1.071 0 01-.474-.948l.4-7.467a1.082 1.082 0 011.109-1.013l10.052.37a1.071 1.071 0 011.031 1.107l-.261 7.67a1.07 1.07 0 01-.589.92l-5.327 2.68a1.07 1.07 0 01-.476.115zm-3.762-4.876l3.838 2.567 4.2-2.114.2-5.969-7.932-.291z" fill="#2d3962"/></g><g data-name="Group 799"><path data-name="Path 1078" d="M91.245 94.145h-.005l-14.383-.073a1.071 1.071 0 01-.955-.6 90.87 90.87 0 00-5.917-9.949c-4.472-6.477-8.6-10.247-11.952-10.9a1.07 1.07 0 01-.865-1.023l-.9-34.159-11.111 1.246a1.076 1.076 0 01-1.179-.915l-2.709-19.116a1.071 1.071 0 01.785-1.185l27.182-7.249a1.072 1.072 0 011.324.81c.03.139 3.123 13.9 13.742 13.9h.045c10.787-.039 15.58-13.626 15.627-13.763a1.071 1.071 0 011.389-.655l27.781 10.42a1.071 1.071 0 01.659 1.278l-4.207 15.834a1.062 1.062 0 01-1.156.789l-10.415-1.177.261 36.8a1.073 1.073 0 01-.335.786 1.06 1.06 0 01-.8.291c-.526-.027-13.173-.514-20.914 17.946a1.071 1.071 0 01-.992.664zm-13.723-2.212l13.017.066c7.1-16.289 18.034-18.352 21.6-18.578l-.262-36.951a1.072 1.072 0 011.191-1.071l10.7 1.209 3.721-14-25.884-9.708a31.393 31.393 0 01-3.7 6.494c-3.741 5.012-8.427 7.671-13.55 7.689h-.053c-5.145 0-9.522-2.721-12.662-7.872a28.082 28.082 0 01-2.893-6.636l-25.223 6.726 2.43 17.146 11.238-1.26a1.072 1.072 0 011.189 1.037l.907 34.514c8.234 2.513 16.537 17.902 18.234 21.195z" fill="#2d3962"/></g></g><g data-name="Group 801"><path data-name="Path 1079" d="M152.166 29.857a3.329 3.329 0 11-3.329-3.329 3.329 3.329 0 013.329 3.329z" fill="#4bb9bf"/><path data-name="Path 1080" d="M148.837 34.257a4.4 4.4 0 114.4-4.4 4.4 4.4 0 01-4.4 4.4zm0-6.658a2.258 2.258 0 102.257 2.258 2.261 2.261 0 00-2.257-2.258z" fill="#2d3962"/></g><g data-name="Group 802"><path data-name="Path 1081" d="M138.386 28.099a1.779 1.779 0 11-1.779-1.778 1.779 1.779 0 011.779 1.778z" fill="#2d3962"/></g></svg>