<svg xmlns="http://www.w3.org/2000/svg" width="110.997" height="101.036"><g data-name="Group 831"><g data-name="Group 830" stroke="#717171"><g data-name="Group 813"><g data-name="Group 812"><path data-name="Path 1140" d="M56.841.627l16.925 53.745 1.835 5.824-50.562 15.922-1.82.575a4.018 4.018 0 01-5.039-2.627l-16.347-51.9a4.014 4.014 0 012.621-5.035z" fill="#4bb9bf"/><path data-name="Path 1141" d="M27.209 27.87c-1.779 2.8 1.222 10.383 4.4 11.689s20.3-3.464 22.128-6.823-.878-11.442-4.353-12.5c-3.781-1.155-19.976 4.17-22.175 7.634z" fill="#087075"/><path data-name="Rectangle 38" d="M6.53 16.475l4.508-1.42h0l18.76 59.561h0l-4.508 1.42a6.189 6.189 0 01-7.762-4.044L2.486 24.237a6.189 6.189 0 014.044-7.762z" fill="#4bb9bf"/><path data-name="Rectangle 39" d="M6.53 16.475l4.508-1.42h0l18.76 59.561h0l-4.508 1.42a6.189 6.189 0 01-7.762-4.044L2.486 24.237a6.189 6.189 0 014.044-7.762z" fill="#2c1c3d" opacity=".2" style="mix-blend-mode:multiply;isolation:isolate"/><path data-name="Rectangle 40" fill="#2c1c3d" opacity=".2" style="mix-blend-mode:multiply;isolation:isolate" d="M12.317 55.45l10.41-3.279 4.352 13.816-10.41 3.279z"/><path data-name="Rectangle 41" fill="#2c1c3d" opacity=".2" style="mix-blend-mode:multiply;isolation:isolate" d="M8.957 44.781l10.41-3.28 1.916 6.08-10.411 3.28z"/></g><path data-name="Path 1142" d="M53.313 46.412a6.591 6.591 0 10-4.307 8.266 6.591 6.591 0 004.307-8.266z" fill="#ffb032"/></g><path data-name="Path 1143" d="M73.767 54.373l1.835 5.824-45.8 14.424-5.349-17.283s25.712 10.057 49.314-2.965z" fill="#2c1c3d" opacity=".2" style="mix-blend-mode:multiply;isolation:isolate"/><path data-name="Path 1144" d="M18.524 11.591l8-2.52 3.3 11.555-4.6-1.353-3.314 3.517z" fill="#ffb032"/></g><g transform="translate(15.658 9.835)" stroke="rgba(0,0,0,0.36)"><path data-name="Path 1111" d="M58.26 18.087a10.914 10.914 0 0111.03-8.046c5.753 0 19.148 5.275 23.361 27.377 3.848 20.19-10.969 38.631-10.969 38.631l-1.687-7.489s8.954-19.7 6.244-32.311c-3.8-17.679-18.613-23.768-18.325-12.838" fill="#319ca2"/><path data-name="Path 1112" d="M84.583 31.844l6.07-1.779a2.166 2.166 0 001.47-2.688h0a2.167 2.167 0 00-2.688-1.47l-6.07 1.779a2.167 2.167 0 00-1.47 2.688h0a2.166 2.166 0 002.688 1.47z" fill="#ff882f"/><path data-name="Path 1113" d="M86.822 40.195l6.217-1.161a2.166 2.166 0 001.731-2.527h0a2.166 2.166 0 00-2.527-1.731l-6.217 1.161a2.167 2.167 0 00-1.731 2.527h0a2.166 2.166 0 002.527 1.731z" fill="#ff882f"/><path data-name="Path 1114" d="M36.549 18.087a10.914 10.914 0 00-11.03-8.046c-5.753 0-19.148 5.275-23.361 27.377-3.848 20.19 10.969 38.631 10.969 38.631l1.687-7.489S5.86 48.86 8.569 36.249c3.8-17.679 18.613-23.768 18.325-12.838" fill="#319ca2"/><path data-name="Path 1115" d="M62.374 19.731l-4.645-1.641s-.045-7.084-2.945-11.126a5.935 5.935 0 00-5.482-2.744 6.553 6.553 0 00-5.274 3.464c-2.79 4.574-2.53 12.047-2.53 12.047l-4.95-1.641a27.643 27.643 0 011.454-8.959c1.486-4.2 4.483-8.433 10.516-9.063 6.286-.662 9.718 3.322 11.6 7.876a35.409 35.409 0 012.256 11.787z" fill="#4bb9bf"/><path data-name="Path 1116" d="M44.028 7.682c-2.79 4.574-2.53 12.047-2.53 12.047l-4.95-1.641a27.643 27.643 0 011.453-8.952 63.839 63.839 0 016.027-1.454z" fill="#2c1c3d" opacity=".2" style="mix-blend-mode:multiply;isolation:isolate"/><path data-name="Path 1117" d="M62.374 19.729l-4.645-1.641s-.045-7.084-2.945-11.126a24.412 24.412 0 015.333.986 35.409 35.409 0 012.257 11.781z" fill="#2c1c3d" opacity=".2" style="mix-blend-mode:multiply;isolation:isolate"/><path data-name="Path 1118" d="M21.941 88.624s-9.939-1.025-12.417-5.43-.532-38.2 10.049-55.272a40.3 40.3 0 0115.881-14.253 39.055 39.055 0 017.973-3.068c8.4-2.2 16.3-.947 19.851 4.84 7.316 11.917-41.337 73.183-41.337 73.183z" fill="#5bc6cc"/><path data-name="Path 1119" d="M43.43 10.601c-15.887 7.85-23.147 33.507-23.147 33.507h-3.385a63.275 63.275 0 0118.56-30.438 39.055 39.055 0 017.972-3.069z" fill="#2c1c3d" opacity=".2" style="mix-blend-mode:multiply;isolation:isolate"/><path data-name="Path 1120" d="M51.543 9.884c34.88-3.3 38.725 73.06 36.769 76.409s-63.348 6.55-66.368 2.33-.691-75.871 29.599-78.739z" fill="#7ccfd4"/><path data-name="Path 1121" d="M19.13 81.513c-6.332 2.446-13.091-.863-14.674-6.9a11.834 11.834 0 01-.3-1.687c-.655-6.319 2.588-16.3 4.411-17.3 2-1.09 10.419-1.44 11.71 1.006 0 0-1.187 9.841-1.343 18.119a56.252 56.252 0 00.196 6.762z" fill="#4bb9bf"/><path data-name="Path 1122" d="M19.129 81.514c-6.332 2.446-13.091-.863-14.674-6.9a11.834 11.834 0 01-.3-1.687 14.668 14.668 0 0014.778 1.829 56.252 56.252 0 00.196 6.758z" fill="#2c1c3d" opacity=".2" style="mix-blend-mode:multiply;isolation:isolate"/><path data-name="Path 1123" d="M20.279 56.634s-5.992 7.335-9.109 8.917-8.413-2.3-2.6-9.924c5.38-4.602 11.992-1.552 11.709 1.007z" fill="#19949b"/><path data-name="Path 1124" d="M76.536 77.011v.006c0 2.744-.3 5-1.083 5.858-2.465 2.7-36.251 2.322-38.009.7-.74-.675-1.135-4.2-1.233-8.174-.143-5.508.3-11.9 1.233-12.767 2.815-2.647 35.012-2.7 36.6-.921 1.084 1.221 2.492 9.382 2.492 15.298z" fill="#4bb9bf"/><path data-name="Path 1125" d="M76.536 77.018c0 2.744-.3 5-1.083 5.858-2.465 2.7-36.251 2.322-38.009.7-.74-.675-1.135-4.2-1.233-8.174 6.708 2.972 23.367 8.694 40.325 1.616z" fill="#2c1c3d" opacity=".2" style="mix-blend-mode:multiply;isolation:isolate"/><path data-name="Path 1126" d="M10.731 66.477c0 1.8-.976 3.266-2.179 3.266s-2.178-1.462-2.178-3.266.976-3.266 2.178-3.266 2.179 1.462 2.179 3.266z" fill="#ffb032"/><path data-name="Path 1127" d="M37.441 62.634s12.98 8.044 19.874 8.2 16.728-9.116 16.728-9.116a43.427 43.427 0 00-36.602.916z" fill="#19949b"/><path data-name="Path 1128" d="M60.372 70.833a3.057 3.057 0 10-3.057 3.057 3.057 3.057 0 003.057-3.057z" fill="#ffb032"/><path data-name="Path 1129" d="M10.223 31.844l-6.07-1.779a2.165 2.165 0 01-1.469-2.688h0a2.166 2.166 0 012.688-1.47l6.07 1.779a2.167 2.167 0 011.469 2.688h0a2.166 2.166 0 01-2.688 1.47z" fill="#ff882f"/><path data-name="Path 1130" d="M7.986 40.195l-6.217-1.161a2.167 2.167 0 01-1.732-2.527h0a2.166 2.166 0 012.527-1.731l6.217 1.161a2.166 2.166 0 011.731 2.527h0a2.166 2.166 0 01-2.526 1.731z" fill="#ff882f"/><path data-name="Path 1131" d="M46.97 22.453c-.415 1.439-.514 6.04.385 6.637s12.984.326 14-.813.516-6-.385-6.637-13.457-1.057-14 .813z" fill="#fff"/><circle data-name="Ellipse 38" cx="2.607" cy="2.607" r="2.607" transform="translate(16.07 41.501)" fill="#fff"/></g></g></svg>