<svg xmlns="http://www.w3.org/2000/svg" width="153.827" height="215.578"><defs><linearGradient id="a" x1=".064" y1=".193" x2="1.027" y2=".38" gradientUnits="objectBoundingBox"><stop offset=".188" stop-color="#fc7698"/><stop offset=".823" stop-color="#a629c2"/></linearGradient></defs><path data-name="Path 39690" d="M0 76.914a76.914 76.914 0 1176.914 76.914A76.9 76.9 0 010 76.914z" fill="#4bb9bf"/><path data-name="Path 39691" d="M146.688 44.535a76.736 76.736 0 00-7.693-13.025C99.127 25.643 74.11 9.519 63.465 1.18a76.976 76.976 0 00-51.067 33.872c17.967 5.24 68.967 17.379 134.29 9.483z" fill="#a629c2"/><path data-name="Path 39692" d="M76.913 0a78.752 78.752 0 00-13.449 1.181c10.645 8.339 35.661 24.463 75.53 30.33A76.8 76.8 0 0076.913 0z" fill="#fc6d91"/><path data-name="Path 39693" d="M76.913 153.827a76.441 76.441 0 0034.241-8.044C54.7 132.869 21.179 114.475 4.575 103.092a76.93 76.93 0 0072.338 50.735z" fill="#fc6d91"/><path data-name="Path 39694" d="M150.857 98.112c-72.8 8.671-125.324-1.089-149.621-7.472a75.929 75.929 0 003.339 12.453c16.6 11.383 50.126 29.777 106.579 42.691a77.026 77.026 0 0039.703-47.672z" fill="#a629c2"/><path data-name="Path 39695" d="M153.827 76.913a76.578 76.578 0 00-7.14-32.378c-65.328 7.9-116.32-4.243-134.29-9.483a75 75 0 00-4.668 8.228C22.47 53.962 67.577 80.842 153.365 85.362a79.647 79.647 0 00.462-8.449z" fill="#4bb9bf"/><path data-name="Path 39696" d="M150.857 98.111a76.79 76.79 0 002.509-12.748c-85.787-4.52-130.9-31.4-145.636-42.082A76.66 76.66 0 000 76.918a78.152 78.152 0 001.236 13.726c24.297 6.374 76.821 16.138 149.621 7.467z" fill="#fc6d91"/><path data-name="Path 39697" d="M132.666 87.245c-3.118-7.675-10.461-11.66-18.578-12.084a12.81 12.81 0 00-11.66 5.867c1.734-1.2 5.055-1.328 5.055-1.328-4.354 2.97-5.221 9.833-5.221 9.833a1.8 1.8 0 00-2.417-1.07c-.959.424-.35 2.066-.35 2.066-3.063 4.28-.166 6.992 1 7.988 1.4 1.218 2.638 1.513 1.642 2.38-1.476 1-5.922-3.671-6.66-4.889-.719-1.2-3.321-5.166-4.317-6.641a30.091 30.091 0 01-2.159-4.446c3.524-1.845 4.151-4.354 3.8-5.184-.351-.812-1.4-.517-1.4-.517.424-.775.627-2.675-.406-3.155s-1.734 1.291-1.734 1.291c0-1.255-.517-2.362-1.679-2.546-1.162-.166-1.089 2.509-1 3.413s-.092 2.343-.609 2.472-1.07 0-1.458-.959c-.388-.941-1.513-1.771-2.214-.646-.683 1.125.96 3.192 2.085 4.188a3.144 3.144 0 011.033 2.38c.683 13.726 8.081 21.493 8.339 22.582.258 1.07.037 2.8-3.376 9.114a37.253 37.253 0 00-3.929 15.663c-.037 2.029 1.734.793 2.546 1.476.83.683 1.863 8.671 2.029 9.28.185.609.443 2.767 1.089 1.605s3.616-1.605 3.616-1.605c-.2 1.919.7 4.778 1.568 7.306a76.26 76.26 0 008.118-2.73 40.118 40.118 0 01-1.7-4.391 2.124 2.124 0 011.347-.092c.609.221 2.029 1 1.863-.516a51.885 51.885 0 01.388-9.077 5.983 5.983 0 01.978-.3c.609-.129.092-1.254-.369-2.288a31.616 31.616 0 01-2.177-16.2c1.181 1.033 4.409 6.826 4.852 7.693.424.867.775 2.1-.664 2.768-1.421.646-1.716 1.587-1.421 2.583.314 1 1.605.388 2.546.092.959-.313 1.162.517 1.255 1.255.092.72-.259 2.841 1.255 2.971s1.384-3.063 1.384-3.063c.221.812.941 2.675 2.638 2.417 1.679-.258.2-3.45.2-3.45.83.941 1.7 1.421 2.472.2.775-1.2-3.247-3.671-3.837-4.188a3.1 3.1 0 01-1.734-2.675 69.977 69.977 0 00-6.125-15.239c-.959-1.476.037-1.476.037-1.476 1.771 1.088 9.8 4.63 16.456 1.7 6.644-2.929 10.703-12.135 7.603-19.828zm-58.298-8.759c-.775 0-1.956 2.122-2.417 2.159-.48.055-.9-.9-.959-2.288-.037-1.384.7-3.026-.683-3.173-1.384-.166-1.568 2.306-1.568 2.306-.3-.683-.59-1.845-1.808-1.42-1.2.443-.424 2.86-.424 2.86-.609-.221-1.125.2-1.255 1.07-.166 2.066 3.487 4.76 3.487 4.76a9.252 9.252 0 01-1.587 3.45 37.461 37.461 0 00-3.93 6.642c-.775 1.992-3.764 4.372-5.442 5.572-1.679 1.218-2.509.867-2.73.351-.2-.516.664-.867.664-.867a7.365 7.365 0 003.93-6 3.923 3.923 0 00-1.31-2.989 1.479 1.479 0 00-.646-2.232c-1.255-.664-2.325.9-2.325.9a18.288 18.288 0 00-4.889-9.686 9.007 9.007 0 014.538.923c-6.7-9.427-20.939-5.627-26.732.941a16.2 16.2 0 00-4.188 13.468c-3.708.055-3.155 3.247-3.155 3.247-7.472 8.634 3.413 17.526 6.181 20.847a12.471 12.471 0 012.9 6.826c7.822-7.472.646-15.534-2.472-18.394-3.1-2.841-3.524-5.442-3.524-5.442 1.937 1.033 2.841-.258 2.841-.258 8.413 11.051 22.582 2.9 22.582 2.9-2.97 5.664-7.084 19.131-7.084 19.131-3.93 2.029-5.258 3.45-5.092 4.483s2.546.129 2.546.129c-.387.738-1.642 2.859-.387 3.505s3.063-2.454 3.063-2.454c0 1.421-.166 3.192 1.384 3.192 1.568 0 1.771-4.28 1.771-4.28 1.291.35 2.638 1.605 3.063.129.443-1.476-2.159-4.059-2.159-4.059-.074-1.476 5.018-9.077 5.018-9.077.867 2.159.516 6.826-.775 12.361-1.291 5.516-.867 14.077-.867 15.46s4.059-.7 4.059-.7a15.49 15.49 0 01-2.38 6.771 74.408 74.408 0 008.431 2.4 81.344 81.344 0 002.417-9.889c1.07-.129 6.291-.258 7.675-.313 1.384-.037 3.026.055 3.893-.646.867-.683-.129-6.088-1.384-11.18s-5.356-14.436-6.227-16.295c-.867-1.845-2.712-5.424-2.712-5.424 8.579-9.686 8.892-24.279 8.892-24.279 1-1.033 3.192-2.583 3.1-3.8-.07-1.2-.549-1.638-1.324-1.638z" fill="#fff"/><path data-name="Path 39698" d="M89.053 56.49h-2.509a6.72 6.72 0 01-5.959-4.335l-.775-2.38c-.775-2.38-2.029-2.38-2.8 0l-.775 2.38a6.72 6.72 0 01-5.959 4.335h-2.509c-2.509 0-2.9 1.2-.867 2.675l2.029 1.458a6.728 6.728 0 012.269 7.01l-.775 2.38c-.775 2.4.258 3.136 2.288 1.661l2.011-1.476a6.774 6.774 0 017.38 0l2.011 1.476c2.029 1.476 3.063.738 2.288-1.661l-.775-2.38a6.729 6.729 0 012.269-7.01l2.029-1.458c2.026-1.475 1.638-2.675-.871-2.675z" fill="#fff"/><path data-name="Path 39699" d="M54.388 46.602h-1.66a4.46 4.46 0 01-3.967-2.878l-.517-1.587c-.516-1.587-1.365-1.587-1.882 0l-.517 1.587a4.459 4.459 0 01-3.967 2.878h-1.679c-1.661 0-1.919.812-.572 1.79l1.347.978a4.461 4.461 0 011.513 4.668l-.517 1.587c-.5 1.587.185 2.085 1.531 1.107l1.347-.978a4.471 4.471 0 014.907 0l1.347.978c1.347.978 2.029.48 1.513-1.107l-.517-1.587a4.5 4.5 0 011.531-4.668l1.347-.978c1.349-.979 1.091-1.79-.588-1.79z" fill="#fff"/><path data-name="Path 39700" d="M110.214 41.325h-1.439a3.838 3.838 0 01-3.413-2.491l-.443-1.365c-.443-1.365-1.162-1.365-1.605 0l-.443 1.365a3.883 3.883 0 01-3.431 2.491h-1.42c-1.439 0-1.661.683-.5 1.531l1.144.83a3.853 3.853 0 011.31 4.022l-.443 1.365c-.443 1.365.148 1.79 1.31.959l1.163-.849a3.823 3.823 0 014.225 0l1.162.849c1.162.83 1.734.406 1.291-.959l-.443-1.365a3.853 3.853 0 011.31-4.022l1.162-.83c1.163-.848.942-1.531-.497-1.531z" fill="#fff"/><path data-name="Path 39701" d="M68.537 30.22l1.31.959c1.328.959 1.992.461 1.476-1.088l-.5-1.55a4.378 4.378 0 011.476-4.557l1.328-.959c1.31-.96 1.07-1.734-.572-1.734h-1.623a4.338 4.338 0 01-3.875-2.823l-.516-1.55c-.5-1.55-1.328-1.55-1.826 0l-.5 1.55a4.383 4.383 0 01-3.893 2.823h-1.623c-1.623 0-1.882.775-.572 1.734l1.328.959a4.378 4.378 0 011.476 4.557l-.5 1.55c-.5 1.55.166 2.048 1.476 1.088l1.328-.959a4.356 4.356 0 014.802 0z" fill="#fff"/><path data-name="Path 39702" d="M141.245 60.752h-.881a2.331 2.331 0 01-2.085-1.531l-.277-.83c-.277-.849-.72-.849-1 0l-.277.83a2.331 2.331 0 01-2.085 1.531h-.886c-.885 0-1.033.424-.314.941l.72.517a2.37 2.37 0 01.793 2.472l-.258.83c-.277.849.074 1.107.793.59l.72-.517a2.347 2.347 0 012.583 0l.719.517c.719.516 1.07.258.812-.59l-.277-.83a2.369 2.369 0 01.793-2.472l.719-.517c.721-.516.574-.941-.312-.941z" fill="#fff"/><path data-name="Path 39703" d="M35.404 66.822h-.96a2.537 2.537 0 01-2.251-1.642l-.3-.9c-.3-.9-.775-.9-1.07 0l-.295.9a2.542 2.542 0 01-2.269 1.642h-.941c-.959 0-1.107.461-.332 1.015l.775.572a2.548 2.548 0 01.849 2.657l-.277.9c-.3.9.092 1.181.849.627l.775-.553a2.506 2.506 0 012.8 0l.756.553c.775.553 1.162.277.867-.627l-.3-.9a2.523 2.523 0 01.867-2.657l.775-.572c.789-.554.622-1.015-.318-1.015z" fill="#fff"/><path data-name="Path 39704" d="M125.581 27.157h-.886a2.356 2.356 0 01-2.1-1.531l-.258-.83c-.277-.849-.72-.849-1 0l-.277.83a2.355 2.355 0 01-2.1 1.531h-.886c-.867 0-1.015.424-.3.941l.7.517a2.346 2.346 0 01.812 2.472l-.277.83c-.277.849.092 1.107.812.59l.7-.517a2.378 2.378 0 012.6 0l.719.517c.7.517 1.07.258.793-.59l-.277-.83a2.379 2.379 0 01.812-2.472l.719-.517c.709-.516.58-.941-.306-.941z" fill="#fff"/><path data-name="Path 39705" d="M95.122 12.729h-.664a1.842 1.842 0 01-1.623-1.181l-.2-.627c-.2-.646-.554-.646-.756 0l-.2.627a1.842 1.842 0 01-1.623 1.181h-.664c-.683 0-.793.332-.24.72l.553.406a1.814 1.814 0 01.609 1.882l-.2.646c-.221.646.055.849.609.443l.554-.387a1.752 1.752 0 011.974 0l.554.387c.553.406.83.2.609-.443l-.2-.646a1.791 1.791 0 01.627-1.882l.535-.406c.54-.388.429-.72-.254-.72z" fill="#fff"/><path data-name="Path 39706" d="M17.73 91.396h-.664a1.778 1.778 0 01-1.605-1.162l-.221-.646c-.2-.646-.553-.646-.757 0l-.2.646a1.824 1.824 0 01-1.624 1.162h-.664c-.683 0-.793.332-.24.738l.554.387a1.856 1.856 0 01.609 1.9l-.2.646c-.221.627.055.83.609.443l.553-.406a1.853 1.853 0 011.992 0l.535.406c.553.387.83.184.627-.443l-.221-.646a1.831 1.831 0 01.627-1.9l.535-.387c.548-.408.437-.738-.245-.738z" fill="#fff"/><path data-name="Path 39707" d="M36.474 20.921l.406.3a1.336 1.336 0 01.461 1.384l-.166.48c-.148.461.055.609.461.332l.406-.3a1.31 1.31 0 011.458 0l.406.3c.388.277.59.129.443-.332l-.148-.48a1.293 1.293 0 01.443-1.384l.406-.3c.406-.3.314-.535-.166-.535h-.5a1.326 1.326 0 01-1.181-.849l-.166-.48c-.148-.461-.406-.461-.553 0l-.148.48a1.347 1.347 0 01-1.181.849h-.5c-.495 0-.569.24-.181.535z" fill="#fff"/><path data-name="Path 39708" d="M134.603 106.967a1.621 1.621 0 01-1.439-1.052l-.185-.572c-.2-.59-.5-.59-.683 0l-.2.572a1.621 1.621 0 01-1.439 1.052h-.609c-.591 0-.7.277-.2.646l.5.35a1.606 1.606 0 01.535 1.7l-.185.572c-.184.572.074.756.554.406l.5-.351a1.555 1.555 0 011.771 0l.5.351c.5.35.738.166.553-.406l-.184-.572a1.615 1.615 0 01.554-1.7l.48-.35c.5-.369.406-.646-.2-.646z" fill="#fff"/><path data-name="Path 39709" d="M118.756 67.284a1.744 1.744 0 01-1.549-1.125l-.2-.627c-.2-.609-.535-.609-.738 0l-.2.627a1.744 1.744 0 01-1.55 1.125h-.646c-.646 0-.756.3-.221.683l.517.388a1.728 1.728 0 01.59 1.826l-.185.609c-.2.627.055.812.591.424l.516-.369a1.729 1.729 0 011.919 0l.517.369c.535.387.793.2.59-.424l-.2-.609a1.771 1.771 0 01.609-1.826l.517-.388c.535-.387.424-.683-.221-.683z" fill="#fff"/><path data-name="Path 39710" d="M19.519 57.764h-.867a2.318 2.318 0 01-2.066-1.494l-.277-.83c-.258-.812-.7-.812-.96 0l-.277.83a2.3 2.3 0 01-2.066 1.494h-.849c-.867 0-1.015.424-.314.922l.7.517a2.325 2.325 0 01.793 2.417l-.277.83c-.258.83.092 1.07.793.572l.7-.517a2.356 2.356 0 012.546 0l.7.517c.7.5 1.052.258.793-.572l-.277-.83a2.326 2.326 0 01.793-2.417l.7-.517c.708-.498.579-.922-.288-.922z" fill="#fff"/><path data-name="Path 39711" d="M267.182 621.009L286 657.626c-6.127.338-11.868.724-11.868.724l-2.557-6.368-5.982.338-2.026 5.886c-1.93-.145-10.517-.434-10.517-.434zm0 22.24l2.075-.048-1.013-3.232s-1.014 3.28-1.062 3.28zm21.842 15.293l.579-31.7 11.53 11.53 13.315-13.943 5.066 33.53-11.048.579-3.281-7.14-3.763 6.657-3.811-7.044-1.254 7.478s-7.623.343-7.334.054zm34.609 0l.579-31.7 11.53 11.53 13.315-13.943 5.066 33.53-11.048.579-3.281-7.14-3.763 6.657-3.811-7.044-1.254 7.478s-7.623.343-7.333.054zm46.67-37.534l18.815 36.617c-6.127.338-11.868.724-11.868.724l-2.557-6.368-5.982.338-2.026 5.886c-1.93-.145-10.517-.434-10.517-.434zm0 22.24l2.074-.048-1.013-3.232s-1.013 3.281-1.064 3.281zm-118.754 35.109l-.04-13.744c1.7-.06 5.1.08 5.1.08l.24 4.1 4.061-4.1 2.781 3.241-4.441 3.7 5.3 2.221c-1.681 2.341-2.721 3.721-2.721 3.721L256.33 674l.22 4.041zm15.306-7.882l3.761-.18a77.861 77.861 0 01.32 7.9 36.767 36.767 0 01-5.161-.02zm4.2-2.14a3.273 3.273 0 01-3.561.72 2.8 2.8 0 01-1.2-4.361 3.428 3.428 0 012.9-1.38 2.854 2.854 0 012.741 3 3.225 3.225 0 01-.879 2.02zm2.514.04l5.323 2.625.06-6.021c2.04-.02 3.721.06 5.181.18 0 .6-1.38 13.263-1.38 13.263l-5.961-2.8.16 2.681c-.82-.12-3.781-.98-3.781-.98zm12.335-3.741c.34-.12 10.5-.6 9.8 6.662-.7 7.242-9.462 6.882-9.462 6.882zm4.261 7.7c1.74-.46 1.22-2.48-.18-2.16l.181 2.161zm7.4 5.962v-13.2c3.461-.16 7.762-.32 7.762-.32v2.741l-3.321-.06.02.98 2.341.02.06 4.241-2.481-.06.08 2.4 3.241-.18.02 3.461zm9.658-13.223c14.324-2.4 10.663 6.882 4.881 8.042l4.981 1.88-2.02 3.581-3.641-2.5-.06 2.561s-3.781-.24-3.7-.3zm4.061 5.241c-.02-.04.98-.78.98-1.26s-.98-.38-.98-.38zm18.657-4.781l-.06 2.941c-4.2-1.481-5.481 1.64-5.261 3.4.3 2.421 2.3 2.8 3.361.7l-1.44-.12-.46-2.18 4.941-.84c.06 3.221-.06 8.062-.06 8.062-4.521 1.44-11.923 1.54-12.383-4.861-.18-2.3.62-6.342 4.4-7.642a9.02 9.02 0 016.961.541zm8.155-2.721L345.9 678c-2.541.14-4.921.3-4.921.3l-1.06-2.641-2.48.14-.84 2.441c-.8-.06-4.361-.18-4.361-.18zm0 9.223l.86-.02-.42-1.34s-.42 1.36-.436 1.36zm8.977-6.962c14.324-2.4 10.663 6.882 4.881 8.042l4.982 1.88-2.021 3.581-3.641-2.5-.06 2.561s-3.781-.24-3.7-.3zm4.061 5.241c-.02-.04.98-.78.98-1.26s-.98-.38-.98-.38zm7.334-.8l-.32-4.481c5.522-.12 10.783 0 10.783 0l-.18 3.821-2.641.26-.34 9.1-4.081-.26-.06-8.7zm12.037 8.782v-13.2c3.461-.16 7.762-.32 7.762-.32v2.741l-3.321-.06.02.98 2.341.02.06 4.241-2.481-.06.08 2.4 3.241-.18.02 3.461zm9.858-9.923l5.322 2.627.06-6.021c2.04-.02 3.721.06 5.181.18 0 .6-1.38 13.263-1.38 13.263l-5.962-2.8.16 2.681c-.82-.12-3.781-.98-3.781-.98z" transform="translate(-244.227 -463.059)" fill="url(#a)"/></svg>