<svg xmlns="http://www.w3.org/2000/svg" width="230.733" height="119.892"><defs><clipPath id="a"><path data-name="Path 23" d="M337.025 121.022a11.025 11.025 0 01-1.971 2.559 13.483 13.483 0 01-3.855 2.62 11.93 11.93 0 01-2.933.912 16.594 16.594 0 01-.22-2.877 5.429 5.429 0 01.853-3.015 4.723 4.723 0 013.972-1.923 5.825 5.825 0 011.135.131h.015a6.814 6.814 0 013.004 1.593z" fill="none"/></clipPath><clipPath id="b"><path data-name="Path 26" d="M315.239 136.495a11 11 0 01-1.971 2.559 13.473 13.473 0 01-3.854 2.62 11.93 11.93 0 01-2.933.912 16.592 16.592 0 01-.221-2.877 5.43 5.43 0 01.854-3.015 4.724 4.724 0 013.972-1.923 5.825 5.825 0 011.135.132h.014a6.814 6.814 0 013.004 1.592z" fill="none"/></clipPath></defs><g transform="translate(-245.127 -76.258)"><g data-name="Group 6" fill="#ffda72"><path data-name="Path 1" d="M389.1 103.36c.959.624-.329 4.039-.329 4.039s3.272 1.775 2.975 2.88-3.978.844-3.978.844-.642 3.753-1.786 3.811-2.066-3.614-2.066-3.614-3.733.64-4.142-.429 2.764-3.174 2.764-3.174-1.727-3.26-.837-3.979 3.838 1.556 3.838 1.556 2.604-2.559 3.561-1.934z"/><path data-name="Path 2" d="M395.046 76.34c.8.523-.276 3.385-.276 3.385s2.743 1.488 2.494 2.415-3.335.707-3.335.707-.538 3.145-1.5 3.194-1.732-3.029-1.732-3.029-3.129.537-3.471-.359 2.316-2.661 2.316-2.661-1.448-2.732-.7-3.335 3.216 1.3 3.216 1.3 2.184-2.141 2.988-1.617z"/><path data-name="Path 3" d="M361.174 80.657c1.374.9-.471 5.787-.471 5.787s4.688 2.544 4.262 4.127-5.7 1.209-5.7 1.209-.92 5.377-2.558 5.46-2.961-5.178-2.961-5.178-5.347.918-5.933-.614 3.96-4.548 3.96-4.548-2.475-4.671-1.2-5.7 5.5 2.229 5.5 2.229 3.727-3.667 5.101-2.772z"/></g><ellipse data-name="Ellipse 1" cx="115.367" cy="12.757" rx="115.367" ry="12.757" transform="translate(245.127 170.635)" fill="#fff0d4"/><g data-name="Group 18"><g data-name="Group 7"><path data-name="Path 4" d="M371.531 112.422a5.392 5.392 0 00-.121.445 2.416 2.416 0 01.426-.637q.232-.326.485-.636a2.816 2.816 0 011-.986.965.965 0 011.175.253 1.4 1.4 0 01-.045 1.233q-.406 1.1-.913 2.161c.577-.615 2.585-2.788 3.156-1.21.346.956-.818 3.031-1.219 3.876.153-.323.686-.551.982-.709a1.921 1.921 0 011.272-.348.948.948 0 01.716.607 1.029 1.029 0 01-.061.694 7.646 7.646 0 01-1.314 1.76q-1.7 2.089-3.44 4.151c-1.515 1.8-2.589 2.591-2.845 5.061-1.04 10.04-7.1 23.878-18.092 26.235-9.836 2.109-20.858-1.808-26.854-9.955-1.6-2.168-2.451-6.738-.43-8.517 1.788-1.574 4.3-2 6.673-2.172a42.912 42.912 0 0117.045 2.263c2.353-4.941 7.573-9.081 11.479-12.914.961-.944 1.774-1.777 1.749-3.137a168.3 168.3 0 01-.031-4.819 2.982 2.982 0 01.135-1.036 1.023 1.023 0 01.74-.678 1.1 1.1 0 011.029.568 6.838 6.838 0 01.481 1.145 1.167 1.167 0 00.423.581.927.927 0 001.094-.22 24.611 24.611 0 001.765-2.539 27.9 27.9 0 012.353-2.73 1.721 1.721 0 011.093-.585.679.679 0 01.561.269 1.079 1.079 0 01.081.832 5.836 5.836 0 01-.277.95 8.868 8.868 0 00-.271.744z" fill="#ffc09a"/><path data-name="Path 5" d="M369.116 114.353a12.62 12.62 0 015.474 4.334" fill="none" stroke="#1d1d1b" stroke-linecap="round" stroke-linejoin="round" stroke-width=".8" opacity=".5" style="mix-blend-mode:overlay;isolation:isolate"/></g><g data-name="Group 8"><path data-name="Path 6" d="M376.108 156.819c-3.323-7.8-2.539-18.939-.354-26.143 2.6-8.561 9.661-16.424 18.583-17.075 7.206-.527 13.887 3.583 19.633 7.963 1.29 4.371 2.306 11.963.855 16.283-2.863-.27-6.074.377-8.937.108 4.016 4.947 5.174 14.034 1.473 19.221s-10.069 8.032-16.418 8.572c-7.819.664-12.416-3.248-14.835-8.929z" fill="#ffc09a"/><path data-name="Path 7" d="M413.88 121.016c1.135.383 3.719 1.84 4.869 1.642.956-.164 1.946-1.894 2.719-2.62a21 21 0 017.337-4.486 5.78 5.78 0 013.927-.293 4.256 4.256 0 012.375 2.661 9.077 9.077 0 01.315 3.645c-.7 8.9-7.448 17.933-16.924 17.837a31.04 31.04 0 01-7.545-1.255c.081-5.255 1.647-11.882 2.927-17.131z" fill="#4bb9bf"/><path data-name="Path 8" d="M411.07 138.063a108.388 108.388 0 013.183-17.041" fill="none" stroke="#ffe4a9" stroke-miterlimit="10" stroke-width="2"/><path data-name="Path 9" d="M391 116.364a8.156 8.156 0 008.241-.291" fill="none" stroke="#1d1d1b" stroke-linecap="round" stroke-linejoin="round" stroke-width=".8" opacity=".5" style="mix-blend-mode:overlay;isolation:isolate"/></g><path data-name="Path 10" d="M310.883 165.8s-4.494 20.134 50.495 22.888 54.364-32.748 54.364-32.748 1.087-28.588-39.949-19.715c0 0-8.117-8.376-34.432-2.522S310.883 165.8 310.883 165.8z" fill="#4bb9bf"/><path data-name="Path 11" d="M348.8 160.981c-2.183-4.367 4.609-17.716 2.651-28.962a90.616 90.616 0 00-10.086 1.685c-26.314 5.853-30.478 32.1-30.478 32.1s-4.494 20.134 50.495 22.888 54.364-32.748 54.364-32.748a21.82 21.82 0 00-1.787-8.495c-18.62 20.151-48.68 38.251-65.159 13.532z" fill="#1d1d1b" opacity=".5" style="mix-blend-mode:overlay;isolation:isolate"/><g data-name="Group 15"><path data-name="Path 12" d="M338.048 113.154c1.682 3.36 6.072 4.651 8.495 7.54 6.938 8.27 6.343 21.321 1.6 30.507-3.745 7.258-10.953 11.782-18.132 15.144a28.816 28.816 0 01-13.226 3.069c-6.873-.275-12.217-4.086-18.189-6.911-7.47-3.535-14.784-8.617-19.107-15.806a32.574 32.574 0 01-4.5-13.553c-1.283-13.011 5.24-25.752 15.833-33.171a46.5 46.5 0 0111.244-5.766 27.045 27.045 0 0120.17 1.112c7.5 3.482 12.4 10.186 15.689 17.579.041.087.081.172.123.256z" fill="#ffc09a"/><path data-name="Path 13" d="M288.259 159.647c-1.235 2.147-.163 5.025 1.738 6.612s4.41 2.2 6.821 2.762a7.745 7.745 0 002.818.3 5.2 5.2 0 003.241-2.055 15.441 15.441 0 001.866-3.449 1.524 1.524 0 00.185-.777c-.206-1.668-4.991-5.259-6.7-5.845-2.88-.995-8.31-.435-9.969 2.452z" fill="#ffc09a"/><path data-name="Path 14" d="M338.939 121.583a5.787 5.787 0 00-3.094 3 5.7 5.7 0 002.951 7.691 5.328 5.328 0 003.605.247 5.809 5.809 0 001.53-.884 8.125 8.125 0 001.656-1.593c2.452-3.294-.505-8.687-4.531-8.845a5.1 5.1 0 00-2.117.384z" fill="#1d1d1b" opacity=".3" style="mix-blend-mode:overlay;isolation:isolate"/><path data-name="Path 15" d="M308.6 145.109a6.387 6.387 0 00-3.417 3.313 6.3 6.3 0 003.258 8.494 5.886 5.886 0 003.982.273 6.407 6.407 0 001.69-.977 8.949 8.949 0 001.829-1.759c2.708-3.638-.558-9.594-5-9.768a5.628 5.628 0 00-2.342.424z" fill="#1d1d1b" opacity=".3" style="mix-blend-mode:overlay;isolation:isolate"/><g data-name="Group 9" fill="#c95c2f"><path data-name="Path 16" d="M291.064 160.334a3.033 3.033 0 00-.112 4.439c.169.154.389-.053.377-.234-.118-1.711-.94-2.926 1.059-3.915.057 1.424 1.17 3.448 2.529 3.766a.308.308 0 00.342-.479c-.415-.584-1.037-.971-1.438-1.592a7.551 7.551 0 01-.754-1.97 7.767 7.767 0 013.513-.177c.16.024.265-.224.115-.308a5.6 5.6 0 00-5.631.47z"/><path data-name="Path 17" d="M306.329 132.519a2.7 2.7 0 00.6-.776.961.961 0 00-.048-.939.947.947 0 00-.957-.3 2.4 2.4 0 00-.926.5 11.091 11.091 0 00-3.189 3.9 1.885 1.885 0 00-.228.725c-.074 1.664 1.486-.124 1.817-.4q1.523-1.289 2.931-2.71z"/><path data-name="Path 18" d="M331.4 113.881c.36-.251.767-.674.557-1.059s-.765-.28-1.162-.119a19.389 19.389 0 00-4.7 2.743c-1.424 1.127-1.209 2.982.691 1.656z"/><path data-name="Path 19" d="M329.519 132.763c-1.492-1.575-3.814-.347-4.964.994-.059.069.032.144.1.108 1.33-.7 3.434-2.288 4.646-.446.96 1.46.008 3.193-.782 4.476-.161.261.3.55.462.286.967-1.548 2.052-3.819.538-5.418z"/><path data-name="Path 20" d="M332.2 146.167a11.711 11.711 0 01-6.53 2.626 14.44 14.44 0 01-6.276-1.6.121.121 0 00-.125.2c3.527 3.564 10.186 2.812 13.482-.638.322-.337-.183-.849-.551-.588z"/></g><g data-name="Group 14"><g data-name="Group 11"><g data-name="Group 10" clip-path="url(#a)"><path data-name="Path 21" d="M337.025 121.022a11.025 11.025 0 01-1.971 2.559 13.483 13.483 0 01-3.855 2.62 11.93 11.93 0 01-2.933.912 16.594 16.594 0 01-.22-2.877 5.429 5.429 0 01.853-3.015 4.723 4.723 0 013.972-1.923 5.825 5.825 0 011.135.131h.015a6.814 6.814 0 013.004 1.593z" fill="#fff"/><path data-name="Path 22" d="M328.3 121.729a4.195 4.195 0 107.738 2.117 4.222 4.222 0 00-7.738-2.117z" fill="#4e505b"/></g></g><g data-name="Group 13"><g data-name="Group 12" clip-path="url(#b)"><path data-name="Path 24" d="M315.239 136.495a11 11 0 01-1.971 2.559 13.473 13.473 0 01-3.854 2.62 11.93 11.93 0 01-2.933.912 16.592 16.592 0 01-.221-2.877 5.43 5.43 0 01.854-3.015 4.724 4.724 0 013.972-1.923 5.825 5.825 0 011.135.132h.014a6.814 6.814 0 013.004 1.592z" fill="#fff"/><path data-name="Path 25" d="M306.315 136.893a4.195 4.195 0 107.738 2.118 4.222 4.222 0 00-7.738-2.118z" fill="#4e505b"/></g></g></g><path data-name="Path 27" d="M292.323 112.153a26.717 26.717 0 0024.9-5.107 10.765 10.765 0 003.837-5.556c.5-2.236-.448-4.916-2.575-5.768" fill="none" stroke="#c95c2f" stroke-linecap="round" stroke-linejoin="round" stroke-width=".8" opacity=".8"/><path data-name="Path 28" d="M286.378 116.323c-5.893 9.683-4.036 23.489.588 31.675" fill="none" stroke="#c95c2f" stroke-linecap="round" stroke-linejoin="round" stroke-width=".8" opacity=".8"/><path data-name="Path 29" d="M294.832 107.409a10.62 10.62 0 0012.48-8.768" fill="none" stroke="#c95c2f" stroke-linecap="round" stroke-linejoin="round" stroke-width=".8" opacity=".8"/><path data-name="Path 30" d="M283.882 113.706a21.181 21.181 0 00-6.654 22.124" fill="none" stroke="#c95c2f" stroke-linecap="round" stroke-linejoin="round" stroke-width=".8" opacity=".8"/><path data-name="Path 31" d="M311.9 104.6a9.628 9.628 0 00-.282-13.187" fill="none" stroke="#c95c2f" stroke-linecap="round" stroke-linejoin="round" stroke-width=".8" opacity=".8"/></g><g data-name="Group 16"><path data-name="Path 32" d="M380.519 175.993q.009-.622.046-1.235c.9-15.442 14.317-38.927 32.889-34.635 7.04 1.628 12.207 7.528 16.4 13.411-.059 4.557-1.333 12.11-4 15.808-1.712-.712-5.845-2.471-7.654-2.194-1.913.293-1.108 2.337-1.34 4.1a18.359 18.359 0 01-7.7 12.148c-4.845 3.428-10.982 4.687-16.911 4.429-3.4-.149-7.063-.918-9.32-3.473-1.965-2.232-2.454-5.346-2.41-8.359z" fill="#ffc09a"/><path data-name="Path 33" d="M429.519 152.4c1.22.88 2.616 2.314 4 2.886 1.492.618 1.8-.137 3.243-.979a18.885 18.885 0 017.985-2.523c1.994-.16 4.239.108 5.543 1.626a4.967 4.967 0 011 3.842 10.967 10.967 0 01-1.39 3.817c-4.141 7.626-12.367 14.949-21.493 12.024a33.986 33.986 0 01-7.475-3.748c1.779-5.465 5.559-11.879 8.587-16.945z" fill="#4bb9bf"/><path data-name="Path 34" d="M421.078 169.292a118.5 118.5 0 018.829-16.769" fill="none" stroke="#ffe4a9" stroke-miterlimit="10" stroke-width="2"/><path data-name="Path 35" d="M412.858 142.252a7.648 7.648 0 01-9.49 2.52" fill="none" stroke="#1d1d1b" stroke-linecap="round" stroke-linejoin="round" stroke-width=".8" opacity=".5" style="mix-blend-mode:overlay;isolation:isolate"/><path data-name="Path 36" d="M414.326 158.576a21.561 21.561 0 012.837 7.106" fill="none" stroke="#1d1d1b" stroke-linecap="round" stroke-linejoin="round" stroke-width=".8" opacity=".5" style="mix-blend-mode:overlay;isolation:isolate"/></g><g data-name="Group 17"><path data-name="Path 37" d="M365.665 159.115c-.1.115-.2.234-.288.36a2.425 2.425 0 01.644-.414c.229-.138.462-.268.7-.392a2.838 2.838 0 011.307-.508.964.964 0 01.976.7 1.4 1.4 0 01-.531 1.113q-.812.847-1.7 1.619c.775-.334 3.481-1.53 3.377.146-.063 1.015-1.956 2.455-2.661 3.071a2.285 2.285 0 011.183-.26 1.917 1.917 0 011.306.187.945.945 0 01.415.841 1.035 1.035 0 01-.332.613 7.636 7.636 0 01-1.9 1.091q-2.394 1.24-4.808 2.44c-2.106 1.045-3.407 1.347-4.624 3.511-4.951 8.8-16.02 19.078-27.039 16.868-9.862-1.979-18.415-9.958-20.674-19.819-.6-2.624.433-7.157 2.994-7.984 2.268-.733 4.74-.13 6.987.662a42.908 42.908 0 0114.737 8.859c4.124-3.6 10.561-5.317 15.669-7.28 1.258-.483 2.335-.924 2.854-2.181a164.665 164.665 0 011.889-4.433 2.983 2.983 0 01.536-.9 1.027 1.027 0 01.949-.328 1.1 1.1 0 01.718.931 6.966 6.966 0 01-.014 1.242 1.165 1.165 0 00.156.7.928.928 0 001.092.234 24.549 24.549 0 002.629-1.627 27.845 27.845 0 013.245-1.568 1.714 1.714 0 011.236-.1.679.679 0 01.407.47 1.07 1.07 0 01-.257.795 5.821 5.821 0 01-.631.761c-.192.193-.375.381-.547.58z" fill="#ffc09a"/><path data-name="Path 38" d="M316.135 164.28a23.667 23.667 0 0117.745 4.864s-.563 8.923-15.119 17.1c0-.002-17.115-14.855-2.626-21.964z" fill="#4bb9bf"/><path data-name="Path 39" d="M318.253 186.6a28.1 28.1 0 0015.326-17.6" fill="none" stroke="#ffe4a9" stroke-miterlimit="10" stroke-width="2"/><path data-name="Path 40" d="M335.292 188.915a5.975 5.975 0 015.629-1.229" fill="none" stroke="#1d1d1b" stroke-linecap="round" stroke-linejoin="round" stroke-width=".8" opacity=".5" style="mix-blend-mode:overlay;isolation:isolate"/></g></g></g></svg>