<svg xmlns="http://www.w3.org/2000/svg" width="175.96" height="181.498"><g data-name="Group 153"><g data-name="Group 152"><g data-name="Group 151"><path data-name="Path 357" d="M.001 161.615c.193 11.794 39.741 20.671 88.326 19.827s87.825-11.088 87.633-22.884-39.731-20.674-88.326-19.826S-.189 149.818.001 161.615z" fill="#fd80a3" opacity=".2"/></g></g></g><g data-name="Group 279"><g data-name="Group 193"><g data-name="Group 164"><g data-name="Group 161"><g data-name="Group 154"><path data-name="Path 358" d="M150.333 146.362s4.757-3.467 9.884-1.864 8.195 2.883.948 4.145c0 0 6.515 2.474 6.162 6.124s-8.959 2.447-8.959 2.447a18.33 18.33 0 01-16.571-1.364c-8.336-5.231-23.045-10.589-27.272-29.054s9.741-18.093 13.79-14.26 9.462 24.009 22.018 33.826z" fill="#f9cbb0"/><path data-name="Path 359" d="M165.245 150.988a8.525 8.525 0 01-15.716-4.6v-.424c0-.083.012-.164.013-.247-11.993-10.029-17.263-29.425-21.227-33.176-4.049-3.833-18.014-4.207-13.79 14.26s18.936 23.823 27.272 29.054a18.33 18.33 0 0016.571 1.364s8.6 1.2 8.959-2.447c.144-1.488-.853-2.775-2.082-3.784z" fill="#ffbdc0" opacity=".4" style="mix-blend-mode:multiply;isolation:isolate"/><path data-name="Path 360" d="M141.711 154.284a8.778 8.778 0 016.03-9.434 6.542 6.542 0 01.689-.121c-11.209-10.262-16.277-28.56-20.114-32.192-4.049-3.833-18.014-4.207-13.79 14.26s18.936 23.823 27.272 29.054c.03.019.06.036.09.053.04-.143.1-.282.139-.424a6.758 6.758 0 01-.2-.715z" fill="#c22367"/><path data-name="Path 361" d="M141.711 154.284a7.055 7.055 0 011.027-5.46 16.044 16.044 0 01-10.834-10.115c-1.523-4.173-1.039-9.015.183-13.193a8.7 8.7 0 011.686-3.146c-2.216-4.64-3.934-8.394-5.458-9.834-4.049-3.833-18.014-4.207-13.79 14.26s18.936 23.823 27.272 29.054c.03.019.06.036.09.053.04-.143.1-.282.139-.424a6.758 6.758 0 01-.2-.715z" fill="#8f83ff" opacity=".3" style="mix-blend-mode:multiply;isolation:isolate"/></g><g data-name="Group 160"><g data-name="Group 155"><path data-name="Path 362" d="M149.629 157.793c.029-.034.176.011.393.1a4.786 4.786 0 00.991.164 10.826 10.826 0 003.061-.315 9.131 9.131 0 002.792-1.068 2.248 2.248 0 00.362-.29l.277-.3.2-.271c-.035.016.389-.428.333-.844a1.224 1.224 0 00-.649-.739 5.846 5.846 0 00-1.445-.573 12.863 12.863 0 00-3.051-.392 11.786 11.786 0 01-1.435.026c-.038-.079.509-.379 1.4-.516a10.669 10.669 0 013.276.012 6.426 6.426 0 011.758.526 2.288 2.288 0 011.281 1.392 2.065 2.065 0 01-.2 1.429 4.3 4.3 0 01-.244.418l-.3.35c-.1.1-.222.217-.361.351a3.363 3.363 0 01-.593.415 10.808 10.808 0 01-6.536.878 3.225 3.225 0 01-1.028-.42c-.214-.181-.309-.3-.282-.333z" fill="#ff6875"/></g><g data-name="Group 156"><path data-name="Path 363" d="M158.361 156.807a5.557 5.557 0 011.649-.107 13.84 13.84 0 003.467-.4 1.972 1.972 0 001.248-.816 1.357 1.357 0 00-.113-1.154 4.331 4.331 0 00-.525-.886c-.166-.192-.264-.3-.264-.3a6.056 6.056 0 00-1.068-1.024 11.611 11.611 0 00-3.039-1.566c-2.4-.888-5.023-1.042-5.019-1.21-.014-.178 2.668-.35 5.28.359a11.849 11.849 0 013.445 1.467 6.967 6.967 0 011.354 1.152l.308.4a5.388 5.388 0 01.611 1.2 3.38 3.38 0 01.213.93 2.1 2.1 0 01-.276 1.154 2.824 2.824 0 01-1.932 1.162 11.691 11.691 0 01-3.717.032 4.2 4.2 0 01-1.622-.393z" fill="#ff6875"/></g><g data-name="Group 157"><path data-name="Path 364" d="M157.728 156.884c.012-.09.534-.1 1.305-.136a11.122 11.122 0 002.708-.359 1.438 1.438 0 00.911-.6.971.971 0 00-.106-.812 3.3 3.3 0 00-.4-.666l-.2-.228a4.682 4.682 0 00-.813-.8 9.119 9.119 0 00-2.354-1.243c-1.87-.719-3.933-.877-3.93-1.043-.012-.178 2.112-.349 4.193.191a9.357 9.357 0 012.76 1.147 5.746 5.746 0 011.1.922s.088.118.246.324a4.366 4.366 0 01.491.977 2.661 2.661 0 01.169.767 1.781 1.781 0 01-.237.974 2.321 2.321 0 01-1.6.954 9.054 9.054 0 01-2.958-.015c-.789-.119-1.294-.27-1.285-.354z" fill="#ff6875"/></g><g data-name="Group 158"><path data-name="Path 365" d="M163.715 156.666c-.008-.043.143-.122.41-.225.133-.049.293-.108.479-.173l.586-.279a5.655 5.655 0 00.632-.389 2.709 2.709 0 00.285-.263.945.945 0 00.246-.3 1.687 1.687 0 00.2-1.5 5.546 5.546 0 00-2.029-2.5 8.862 8.862 0 00-1.3-.809s-.128-.081-.376-.2-.58-.317-1.017-.5a20.83 20.83 0 00-3.3-1.123 24.105 24.105 0 00-3.475-.56 5.764 5.764 0 01-1.625-.193 3.982 3.982 0 011.631-.3 17.613 17.613 0 013.643.176 19.505 19.505 0 013.56.921c.478.164.859.362 1.133.471a4.638 4.638 0 01.426.2l.408.256a9.294 9.294 0 011.013.751 6.3 6.3 0 012.171 3.2 2.452 2.452 0 01-.5 2.136 1.5 1.5 0 01-.367.357 3.532 3.532 0 01-.389.277 5.151 5.151 0 01-.774.341l-.671.185-.527.063c-.299.028-.465.023-.473-.02z" fill="#ff6875"/></g><g data-name="Group 159"><path data-name="Path 366" d="M161.321 148.919c-.023-.027.123-.182.432-.306a7.277 7.277 0 011.292-.378 11.109 11.109 0 001.712-.473c.652-.29.552-.41.149-.951l-.023-.033a3.15 3.15 0 00-1.341-.863 8.707 8.707 0 00-1.471-.4c-.889-.166-1.488-.215-1.488-.215s-.642-.114-1.624-.193a17.123 17.123 0 00-3.578.077 11.213 11.213 0 00-3.426.991l-.6.3-.44.279c-.25.152-.41.225-.439.194s.071-.17.278-.389l.387-.389c.164-.13.358-.266.569-.419a10.064 10.064 0 013.517-1.444 16.608 16.608 0 013.791-.36c1.037.017 1.728.1 1.728.1a15.346 15.346 0 011.587.326 9.179 9.179 0 011.625.565 3.936 3.936 0 011.692 1.329l-.024-.033a3.494 3.494 0 01.316.552c.04.113.081.224.111.342a2.378 2.378 0 01-.012.432 1.583 1.583 0 01-.191.378c-.1.088-.19.189-.283.261a2.339 2.339 0 01-.557.247 9.284 9.284 0 01-1.885.289c-1.096.057-1.757.244-1.804.184z" fill="#ff6875"/></g></g></g><g data-name="Group 163"><g data-name="Group 162"><path data-name="Path 367" d="M146.457 143.636c.008.1-.355.186-.834.4a6.35 6.35 0 00-1.6 1.017 9.735 9.735 0 00-1.308 1.382c-.306.422-.511.7-.511.7s-.214.274-.531.687a13.752 13.752 0 00-1.024 1.633c-.707 1.234-1 2.632-1.162 2.628-.075 0-.153-.383-.1-.95a8.033 8.033 0 01.45-2.032 12.267 12.267 0 011.364-2.72s.249-.3.65-.717a8.991 8.991 0 011.659-1.338 5.264 5.264 0 011.99-.766c.57-.08.958.006.957.076z" fill="#fd80a3"/></g></g></g><g data-name="Group 171"><g data-name="Group 165" fill="#fd80a3"><path data-name="Path 368" d="M58.21 118.141s-4.789 8.17-13.805 9.015-16.621-3.944-23.663 2.253-5.071 12.4-5.071 12.4-6.2 1.408-5.071 4.787c0 0-3.662 2.536-1.126 4.228s9.014 4.789 17.184-5.353c0 0 15.777 14.931 34.934.564s5.636-26.768-3.382-27.894z"/><path data-name="Path 369" d="M58.21 118.141s-4.789 8.17-13.805 9.015-16.621-3.944-23.663 2.253-5.071 12.4-5.071 12.4-6.2 1.408-5.071 4.787c0 0-3.662 2.536-1.126 4.228s9.014 4.789 17.184-5.353c0 0 15.777 14.931 34.934.564s5.636-26.768-3.382-27.894z" opacity=".4" style="mix-blend-mode:multiply;isolation:isolate"/><path data-name="Path 370" d="M58.21 118.141a21.23 21.23 0 01-8.282 7.452 8.309 8.309 0 01.458 2.56 7.832 7.832 0 01-2.267 5.48 11.52 11.52 0 01-1.658 1.287 6.205 6.205 0 01-.263.186 7.582 7.582 0 01-5.964.78 7.729 7.729 0 01-5.457-9.282 30.1 30.1 0 00-6.906-.328 7.76 7.76 0 011.03 3.838 7.524 7.524 0 01-1.234 4.12l.037-.047-.052.073c-.173.268-.36.533-.563.789a15.53 15.53 0 01-1.088 1.383 7.6 7.6 0 01-5.474 2.268 7.782 7.782 0 01-4.777-1.661 9.468 9.468 0 00-.081 4.768 13.582 13.582 0 00-1.682.539c1.515 1.238 1.023 4.354-1.489 4.354a2.2 2.2 0 01-2.012-1.118 2.375 2.375 0 00.112 1.014s-3.662 2.536-1.126 4.228 9.014 4.789 17.184-5.353c0 0 15.777 14.931 34.934.564s5.638-26.768-3.38-27.894z" opacity=".3" style="mix-blend-mode:multiply;isolation:isolate"/></g><g data-name="Group 170"><g data-name="Group 166"><path data-name="Path 371" d="M17.363 144.692c-.045.05-.631-.38-1.184-1.31a7.232 7.232 0 01-.906-3.819 12.567 12.567 0 01.728-3.865 16.533 16.533 0 01.674-1.653 16.878 16.878 0 01.919-1.516 17.442 17.442 0 012.5-2.96 11.894 11.894 0 013.173-2.205 3.209 3.209 0 011.7-.421 14.8 14.8 0 01-1.472.853 13.7 13.7 0 00-2.766 2.4 18.127 18.127 0 00-2.156 2.955 18.94 18.94 0 00-.776 1.464 16.575 16.575 0 00-.715 1.5 12.384 12.384 0 00-.923 3.5 7.342 7.342 0 00.456 3.552c.377.918.824 1.456.748 1.525z" fill="#c22367"/></g><g data-name="Group 167"><path data-name="Path 372" d="M21.163 149.339c.06.041-.278.632-1.056 1.268a9.861 9.861 0 01-3.23 1.685 11.757 11.757 0 01-3.646.568 8.268 8.268 0 01-1.721-.2s-.169-.055-.462-.146a4.582 4.582 0 01-1.159-.621 3.363 3.363 0 01-1.24-1.471 2.372 2.372 0 01.28-2.226 4.864 4.864 0 013.194-1.892 2.651 2.651 0 011.645.08c0 .1-.652.1-1.528.4a4.58 4.58 0 00-2.549 1.881 1.4 1.4 0 00-.081 1.352 2.384 2.384 0 00.925.918 3.485 3.485 0 00.908.414l.383.1a7.412 7.412 0 001.458.262 11.591 11.591 0 003.357-.268 10.978 10.978 0 003.184-1.227c.807-.482 1.26-.94 1.338-.877z" fill="#c22367"/></g><g data-name="Group 168"><path data-name="Path 373" d="M16.304 141.946c.022.173-.991.485-1.88.988a8.958 8.958 0 00-1.622 1.144 5.372 5.372 0 00-1.373 1.309 4.584 4.584 0 00-.571 1.2c-.1.362-.165.632-.259.638s-.188-.257-.227-.687a3.62 3.62 0 01.27-1.57 5.223 5.223 0 01.865-1.364c.3-.32.515-.517.515-.517l.169-.109a4.35 4.35 0 01.451-.27 7.643 7.643 0 011.442-.6c1.086-.332 2.202-.332 2.22-.162z" fill="#c22367"/></g><g data-name="Group 169"><path data-name="Path 374" d="M28.349 140.89c.163.024.029 1.221-.453 2.323a14 14 0 01-.741 1.443c-.224.38-.379.629-.379.629s-.747.887-1.549 1.7-1.594 1.614-1.738 1.513.417-1.114 1.043-2.068l1.229-1.887s.722-.848 1.355-1.754 1.052-1.933 1.233-1.899z" fill="#c22367"/></g></g></g><g data-name="Group 175"><path data-name="Path 375" d="M130.612 106.659s2.112 15.214-2.959 25.778-16.903 26.623-48.173 24.509-36.6-32.668-18.172-46.059 32.962 8.027 49.865-12.256z" fill="#fd80a3"/><path data-name="Path 376" d="M130.613 106.659l-5.69-2.349a19.577 19.577 0 01.2 2.773v.423a19.943 19.943 0 01-5.817 14.046c-5.372 5.374-12.955 5.324-19.4 8.653-7.693 3.971-16.095 9.842-25.071 9.842a20.048 20.048 0 01-19.864-19.864 19.215 19.215 0 01.257-3.128c-10.452 14.87-2.849 38.061 24.256 39.892 31.271 2.114 43.1-13.945 48.173-24.509s2.956-25.779 2.956-25.779z" fill="#fd80a3" opacity=".3" style="mix-blend-mode:multiply;isolation:isolate"/><g data-name="Group 174"><g data-name="Group 172"><path data-name="Path 377" d="M92.157 110.463a5.765 5.765 0 01-1.317-.168l-.684-.04-.387-.025a1.394 1.394 0 01-.245-.028l-.212-.048c-.574-.136-1.222-.287-1.929-.452-2.818-.693-6.47-2.033-10.236-2.47a22.285 22.285 0 00-2.815-.108l-1.381.039-1.328.153a17.794 17.794 0 00-4.589 1.336 16.317 16.317 0 00-1.722.841 13.023 13.023 0 00-1.271.757 10.37 10.37 0 00-1.067.721l-1.039.752-1.124.953c-.431.376-.9.837-1.416 1.321a27.175 27.175 0 00-5.983 8.365 26.12 26.12 0 00-1.924 10.151c-.01 2.861.209 4.773.1 4.784a5.437 5.437 0 01-.263-1.3c-.073-.416-.129-.923-.185-1.509s-.116-1.244-.14-1.968a25.437 25.437 0 011.591-10.5 27.641 27.641 0 015.984-8.845c.521-.51.984-.987 1.425-1.39l1.165-1.027 1.08-.816a11.117 11.117 0 011.142-.742 13.852 13.852 0 011.36-.77 17.164 17.164 0 011.839-.849 18.653 18.653 0 014.9-1.3l1.411-.125 1.439-.006a23.112 23.112 0 012.925.2c3.905.576 7.508 2.056 10.259 2.882l1.886.559.207.062a.665.665 0 00.168.034l.4.057c.256.037.493.072.7.1a5.384 5.384 0 011.276.419z" fill="#c22367"/></g><g data-name="Group 173"><path data-name="Path 378" d="M125.118 114.901c.035.056-.419.43-1.227.76a8.169 8.169 0 01-3.156.55 12.222 12.222 0 01-3.179-.514c-.835-.276-1.383-.5-1.382-.5l-.352-.192a10.14 10.14 0 01-.913-.531 14.356 14.356 0 01-2.483-1.995 10.641 10.641 0 01-1.866-2.556 2.845 2.845 0 01-.444-1.364c.1-.04.368.452.863 1.106a12.947 12.947 0 002.053 2.16 15.129 15.129 0 002.462 1.647c.344.209.665.317.872.424l.335.156s.118.063.335.157.517.245.894.386a12.465 12.465 0 002.862.723 9.173 9.173 0 002.953-.128c.799-.168 1.323-.389 1.373-.289z" fill="#c22367"/></g></g><path data-name="Path 379" d="M73.74 109.305c-.05.614-1.117 1.251-2.381 1.424s-2.25-.181-2.2-.793 1.119-1.251 2.384-1.425 2.25.177 2.197.794z" fill="#c87568" style="mix-blend-mode:screen;isolation:isolate"/></g><path data-name="Path 380" d="M127.851 111.974a7.217 7.217 0 00.7-4.468l-16.052-7.713a9.264 9.264 0 00-1.75 5.387c.003 8.986 13.663 12.889 17.102 6.794z" fill="#f9cbb0"/><path data-name="Path 381" d="M116.564 113.628a17.507 17.507 0 0111.3-1.7 7.228 7.228 0 00.685-4.426l-16.052-7.713a9.264 9.264 0 00-1.75 5.387c.005 3.923 2.602 6.875 5.817 8.452z" fill="#ffbdc0" opacity=".4" style="mix-blend-mode:multiply;isolation:isolate"/><g data-name="Group 185"><g data-name="Group 182"><g data-name="Group 176"><path data-name="Path 382" d="M129.767 160.749s5.915-2.535 10.987.424 8.028 5.07 0 4.648c0 0 6.339 4.225 5.071 8.028s-10.143.423-10.143.423a20.036 20.036 0 01-17.325-5.493c-7.606-7.606-21.975-16.9-21.975-37.611s14.79-16.9 18.171-11.831 4.227 27.894 15.214 41.412z" fill="#f9cbb0"/><path data-name="Path 383" d="M144.294 169.013a7.77 7.77 0 01-6.92 3.667c-7.026 0-9.568-6.937-7.642-11.976-10.953-13.529-11.8-36.3-15.177-41.366s-18.171-8.876-18.171 11.831 14.369 30 21.975 37.611a20.036 20.036 0 0017.325 5.493s8.875 3.38 10.143-.423c.552-1.66-.346-3.403-1.533-4.837z" fill="#ffbdc0" opacity=".4" style="mix-blend-mode:multiply;isolation:isolate"/><path data-name="Path 384" d="M118.646 167.089a9.6 9.6 0 018.726-8.584 7.419 7.419 0 01.763.039c-9.44-13.667-10.378-34.4-13.581-39.206-3.381-5.072-18.171-8.876-18.171 11.831s14.369 30 21.975 37.611l.082.078c.08-.144.171-.277.252-.418a8.054 8.054 0 01-.045-.811z" fill="#c22367"/><path data-name="Path 385" d="M120.31 155.473c-16.6-6.274-18.092-25.627-8.48-38.576-5.432-3.206-15.447-2.771-15.447 14.272 0 20.707 14.369 30 21.975 37.611l.082.078c.08-.144.171-.277.252-.418a8.055 8.055 0 01-.045-.811v-.54a9.6 9.6 0 018.726-8.584 7.427 7.427 0 01.763.039 40.968 40.968 0 01-2.128-3.456 7.177 7.177 0 01-5.698.385z" fill="#8f83ff" opacity=".3" style="mix-blend-mode:multiply;isolation:isolate"/></g><g data-name="Group 181"><g data-name="Group 177"><path data-name="Path 386" d="M141.387 175.224c.019-.039.211-.02.506.04l.554.024c.214-.01.455-.031.713-.064a4.64 4.64 0 001.62-.6c.113-.1.23-.191.347-.289a4.223 4.223 0 00.257-.342 1.24 1.24 0 00.121-.794 5.563 5.563 0 00-.711-1.835 16.07 16.07 0 00-2.048-2.91 15.449 15.449 0 00-1.141-1.359 13.781 13.781 0 00-2.882-2.557 9.541 9.541 0 00-3.573-1.38 11.169 11.169 0 00-1.288-.171c-.315-.038-.5-.081-.5-.123s.178-.087.5-.131a6 6 0 011.344-.062 9.058 9.058 0 013.97 1.1 13.84 13.84 0 013.273 2.524 15.755 15.755 0 011.275 1.36 15.977 15.977 0 012.016 3.259 6.18 6.18 0 01.657 2.212 2.06 2.06 0 01-.329 1.3 4.078 4.078 0 01-.429.472l-.492.338a4.8 4.8 0 01-1.938.484 6.736 6.736 0 01-.786-.05c-.231-.056-.428-.1-.586-.151-.313-.156-.468-.257-.45-.295z" fill="#ff6875"/></g><g data-name="Group 178"><path data-name="Path 387" d="M144.663 174.802c-.055-.1.4-.243.289-.666a4.237 4.237 0 00-.92-1.579 19.524 19.524 0 00-1.325-1.459c-.379-.388-.645-.613-.645-.613s-.225-.269-.6-.632a9.318 9.318 0 00-1.484-1.2 7.414 7.414 0 00-1.73-.818c-.507-.146-.872-.233-.872-.328 0-.078.373-.161.954-.156a5.85 5.85 0 012.066.515 8.793 8.793 0 011.823 1.1 8.442 8.442 0 01.74.623s.272.283.62.733a14.926 14.926 0 011.191 1.726 3.819 3.819 0 01.675 2.1.934.934 0 01-.177.452c-.115.092-.2.19-.3.2-.196.049-.294.042-.305.002z" fill="#ff6875"/></g><g data-name="Group 179"><path data-name="Path 388" d="M133.993 172.795c.08-.054.406.311 1.043.666a9.991 9.991 0 002.447 1 5.911 5.911 0 002.486.191 3.148 3.148 0 00.385-.1l.3-.144c.157-.09.24-.142.24-.142-.036.01.444-.21.486-.477a.992.992 0 00-.281-.748 4.92 4.92 0 00-.95-.923 11.644 11.644 0 00-2.277-1.344c-.664-.308-1.141-.419-1.134-.51s.535-.135 1.288.045a9.2 9.2 0 012.624 1.072 5.538 5.538 0 011.25.989 2.05 2.05 0 01.631 1.556 1.719 1.719 0 01-.639 1.156 2.312 2.312 0 01-.348.261s-.133.073-.366.182c-.117.05-.261.1-.425.162a4.051 4.051 0 01-.616.119 6.563 6.563 0 01-2.931-.491 8.322 8.322 0 01-2.46-1.454c-.6-.521-.822-1.029-.753-1.066z" fill="#ff6875"/></g><g data-name="Group 180"><path data-name="Path 389" d="M142.021 165.963a3.868 3.868 0 011.769-.678c.273-.065.568-.132.842-.224.3-.106.435-.214.424-.379a2.135 2.135 0 00-.319-.8l-.133-.222a.576.576 0 00-.138-.163l-.344-.352a12.932 12.932 0 00-3.453-1.821 15.661 15.661 0 00-1.707-.542l-.464-.1a6.566 6.566 0 00-1.242-.214 13.678 13.678 0 00-3.9.211 23.211 23.211 0 00-3.821 1.186 7.441 7.441 0 01-1.742.651 5 5 0 011.527-1.092 18.382 18.382 0 013.829-1.61 13.838 13.838 0 014.193-.5 7.6 7.6 0 011.414.166l.537.092s.189.052.514.166.772.28 1.3.515a13.032 13.032 0 013.623 2.246l.4.48a1.037 1.037 0 01.19.282l.13.262a2.552 2.552 0 01.306 1.236.9.9 0 01-.4.652 1.446 1.446 0 01-.561.232 8.061 8.061 0 01-.926.133 15.16 15.16 0 01-1.848.187z" fill="#ff6875"/></g></g></g><g data-name="Group 184"><g data-name="Group 183"><path data-name="Path 390" d="M126.385 156.525c.014.17-1.721.525-3.292 1.291a16.345 16.345 0 00-2.075 1.151c-.534.356-.869.613-.869.613s-.349.234-.853.613a8.968 8.968 0 00-1.6 1.633 6.164 6.164 0 00-.96 2.073c-.143.618-.174 1.069-.277 1.077-.07.009-.21-.437-.209-1.139a5.6 5.6 0 01.691-2.482 8.921 8.921 0 011.595-2.036c.516-.475.887-.764.887-.764s.4-.258 1.011-.589a14.408 14.408 0 012.344-.981c1.749-.59 3.601-.636 3.607-.46z" fill="#fd80a3"/></g></g></g><g data-name="Group 192"><path data-name="Path 391" d="M35.507 156.556s4.918 17.44 22.8 12.968 28.173-18.783 21.912-35.327-29.512-8.5-29.962 10.732c0 0-4.471-12.521-12.967-9.837a10.98 10.98 0 00-8.048 10.733s-6.709 3.128-4.473 6.707c0 0-6.708 2.235-3.131 5.366s8.95 2.239 13.869-1.342z" fill="#fd80a3"/><path data-name="Path 392" d="M80.224 134.197c-2.462-6.509-7.555-9.2-12.853-8.911a13.225 13.225 0 01-1.978 26.3h-.281a13.235 13.235 0 01-13.233-13.234 12.959 12.959 0 01.1-1.534 21.89 21.89 0 00-1.716 8.109s-1.93-5.407-5.666-8.352a6.478 6.478 0 011.209 3.75 6.268 6.268 0 01-.489 2.441c-.007.029-.01.059-.018.088a6.356 6.356 0 01-1.619 2.773 5.593 5.593 0 01-3.072 1.9 5.052 5.052 0 01-1.95.2h-.082a6.353 6.353 0 01-2.472-.175l-1.512-.638a6.316 6.316 0 01-1.812-9.319 11.141 11.141 0 00-3.531 8.225s-6.709 3.128-4.473 6.707c0 0-6.708 2.235-3.131 5.366s8.945 2.236 13.864-1.342c0 0 4.918 17.44 22.8 12.968s28.175-18.778 21.915-35.322z" fill="#fd80a3" opacity=".3" style="mix-blend-mode:multiply;isolation:isolate"/><g data-name="Group 191"><g data-name="Group 186"><path data-name="Path 393" d="M31.588 158.073c.047.068-.483.471-1.391.793a15.69 15.69 0 01-3.415.8 12.615 12.615 0 01-3.578-.018 4.811 4.811 0 01-1.665-.556 2.439 2.439 0 01-.385-.263c-.114-.112-.251-.25-.413-.412a4.772 4.772 0 01-.4-.691c.008.017.018.042.031.067-.078-.2-.165-.407-.235-.634a3.02 3.02 0 01-.053-.756 3.108 3.108 0 01.533-1.48 5.923 5.923 0 012.328-1.881 5.5 5.5 0 012.326-.57c.629.014.985.2.966.246-.021.079-.381.035-.933.133a6.181 6.181 0 00-2.021.822 5.415 5.415 0 00-1.828 1.771 1.707 1.707 0 00-.058 1.779l.032.066a1.606 1.606 0 00.755.717 3.466 3.466 0 001.258.5 12.627 12.627 0 003.274.266 21.323 21.323 0 003.351-.384 10.958 10.958 0 011.521-.315z" fill="#c22367"/></g><g data-name="Group 187"><path data-name="Path 394" d="M30.179 145.678c.009.1-.3.194-.724.4a9.6 9.6 0 00-1.474.84 10 10 0 00-1.8 1.614s-.21.2-.519.522a5.315 5.315 0 00-.875 1.322 3.24 3.24 0 00-.276 1.544c.035.44.128.759.038.8-.062.039-.312-.2-.515-.69a3.214 3.214 0 01-.093-1.93 5.625 5.625 0 01.8-1.758c.308-.42.531-.688.531-.688a9.22 9.22 0 012.274-1.516 6.221 6.221 0 011.781-.537c.505-.066.848.002.852.077z" fill="#c22367"/></g><g data-name="Group 188"><path data-name="Path 395" d="M77.156 129.902c-.037.024-.3-.225-.713-.673a4.934 4.934 0 00-.8-.759 7.1 7.1 0 00-1.139-.839 7.49 7.49 0 00-1.488-.745 7.361 7.361 0 00-.855-.306c-.3-.068-.61-.14-.923-.213a12.434 12.434 0 00-4.02-.056 19.61 19.61 0 00-7.114 2.532 18.865 18.865 0 00-2.07 1.39l-.552.424-.184.164s-.26.22-.715.6a16.759 16.759 0 00-1.659 1.8 25.07 25.07 0 00-3.486 6.718 56.528 56.528 0 00-2.036 7.432 28.5 28.5 0 01-.772 3.447 17.125 17.125 0 01.289-3.531 47.4 47.4 0 011.676-7.631 25.243 25.243 0 013.4-7.131 17.7 17.7 0 011.746-2.008l.753-.67s.07-.058.2-.17.342-.249.6-.438a19.578 19.578 0 012.24-1.409 20.134 20.134 0 017.582-2.407 12.845 12.845 0 014.27.255c.33.093.654.188.972.278a7.318 7.318 0 01.892.377 7.561 7.561 0 011.525.89 6.963 6.963 0 011.12.971 4.409 4.409 0 01.735.867c.373.515.562.816.526.841z" fill="#c22367"/></g><g data-name="Group 189"><path data-name="Path 396" d="M49.397 141.439a13.521 13.521 0 01-1.436-1.831 15.584 15.584 0 00-3.536-3.494 7.715 7.715 0 00-4.509-1.4 5.008 5.008 0 00-.884.062 3.845 3.845 0 00-.668.112l-.564.137s-.2.07-.552.187a3.5 3.5 0 00-.62.259 5.269 5.269 0 00-.775.419 12.186 12.186 0 00-3.477 3.373 19.482 19.482 0 00-2.335 4.4 18.731 18.731 0 01-.793 2.168 6.133 6.133 0 01.327-2.318 17.288 17.288 0 012.064-4.744 12.7 12.7 0 013.585-3.853 6.119 6.119 0 01.868-.52 4.506 4.506 0 01.711-.334l.646-.244.684-.138a4.792 4.792 0 01.782-.1 6.2 6.2 0 011.016-.024 8.563 8.563 0 015.012 1.842 14.4 14.4 0 013.423 3.938 7.217 7.217 0 011.031 2.103z" fill="#c22367"/></g><g data-name="Group 190"><path data-name="Path 397" d="M70.182 164.129a16.839 16.839 0 01-2.973 2 37.167 37.167 0 01-7.194 3.285 23.617 23.617 0 01-7.9 1.156l-1.5-.122c-.445-.05-.829-.133-1.148-.18a8.709 8.709 0 01-.991-.2l-.969-.279a9.675 9.675 0 01-1.087-.382c-.414-.17-.891-.315-1.384-.572a16.264 16.264 0 01-6.14-5.087 25.489 25.489 0 01-3.62-7.007 14.043 14.043 0 01-.867-3.461c.1-.027.511 1.334 1.324 3.286a27.354 27.354 0 003.86 6.632 15.551 15.551 0 005.917 4.58c.459.222.924.35 1.316.5a8.642 8.642 0 001.033.332l.915.237a7.732 7.732 0 00.926.209c.3.054.654.14 1.071.2s.892.1 1.408.157a23.271 23.271 0 007.588-.852 42.006 42.006 0 007.216-2.862 30.147 30.147 0 013.199-1.57z" fill="#c22367"/></g></g><path data-name="Path 398" d="M57.896 166.774c-.05.613-1.118 1.251-2.384 1.423s-2.249-.181-2.2-.792 1.119-1.252 2.383-1.426 2.252.181 2.201.795z" fill="#c87568" style="mix-blend-mode:screen;isolation:isolate"/></g></g><g data-name="Group 278"><g data-name="Group 206"><g data-name="Group 199"><path data-name="Path 399" d="M94.379 19.297a45.812 45.812 0 01-8.088 4.808c-6.826 3.533-12.814 8.618-15.772 16.225-5.97 15.369-.852 27.395-1.706 29.621s-4.264-1.113-4.264-1.113-.213 8.463 7.037 8.241 12.8-10.692 12.8-10.692c2.413-4.555 2.477-11.394 3.893-16.34 2.293-8.015 9.439-14.295 14.877-20.057 2.579-2.73 4.5-4.374 8.105-4.992a55.482 55.482 0 0012.527-4.21c1.736-.753 2.826-1.249 1.918-3.162-1.952-4.107-7.542-4.488-11.364-4.5-4.729-.011-10.161-.241-13.985 3.281 1.164-1.845-.062-4.083-1.642-5.232-.016 3.512-1.859 6.09-4.336 8.122z" fill="#c87568"/><path data-name="Path 400" d="M67.668 58.804c.334 5.889 1.606 9.945 1.145 11.147-.852 2.227-4.264-1.113-4.264-1.113s-.213 8.463 7.037 8.241 12.8-10.692 12.8-10.692c.2-.381.387-.783.559-1.2-6.474-.554-12.903-2.324-17.277-6.383z" fill="#c87568" opacity=".2" style="mix-blend-mode:multiply;isolation:isolate"/><path data-name="Path 401" d="M125.7 17.625c-1.952-4.107-7.542-4.488-11.364-4.5-4.729-.011-10.161-.241-13.985 3.281 1.164-1.845-.062-4.083-1.642-5.232-.009 3.509-1.854 6.088-4.331 8.119a45.807 45.807 0 01-8.088 4.808 34.077 34.077 0 00-13.327 11.462 29.147 29.147 0 0010.671 7.679 38.5 38.5 0 006.611 2.089c3.186-5.848 8.58-10.759 12.9-15.341 2.579-2.73 4.5-4.374 8.105-4.992a55.484 55.484 0 0012.527-4.21c1.742-.754 2.832-1.25 1.923-3.163z" fill="#c87568" opacity=".2" style="mix-blend-mode:multiply;isolation:isolate"/><g data-name="Group 198"><g data-name="Group 194"><path data-name="Path 402" d="M72.436 62.57a16.748 16.748 0 01-.166 3.832 11.653 11.653 0 01-.64 2.612 6.157 6.157 0 01-.566 1.126 1.921 1.921 0 01-.214.281 4.6 4.6 0 01-.654.668 3.719 3.719 0 01-2.669.812 2.873 2.873 0 01-2.344-1.368 1.625 1.625 0 01-.215-1.2 7.646 7.646 0 00.478 1.042 2.57 2.57 0 002.105.966 3.141 3.141 0 002.164-.8 3.832 3.832 0 00.515-.59 1.529 1.529 0 00.171-.247 5.527 5.527 0 00.551-.97 11.924 11.924 0 00.762-2.424c.384-1.845.591-3.757.722-3.74z" fill="#963e35"/></g><g data-name="Group 195"><path data-name="Path 403" d="M70.746 51.582a2.818 2.818 0 01.109-.748c.1-.473.249-1.147.424-1.958.221-.8.548-1.708.869-2.7.351-.974.83-1.973 1.258-3 .492-.99 1.03-1.961 1.513-2.881.552-.879 1.069-1.7 1.512-2.4.465-.69.9-1.234 1.176-1.629s.452-.615.452-.615a6.68 6.68 0 01.476-.593l1.332-1.5a49.792 49.792 0 014.4-4.174 22.783 22.783 0 014.974-3.475 10.392 10.392 0 011.891-.67 2.862 2.862 0 01.745-.143 2.929 2.929 0 01-.7.3 13.3 13.3 0 00-1.8.793 24.412 24.412 0 00-4.741 3.62 52.467 52.467 0 00-4.227 4.243l-1.274 1.5a6.708 6.708 0 00-.455.591l-.457.593c-.285.382-.72.908-1.192 1.574-.454.681-.983 1.474-1.549 2.326-.5.89-1.055 1.832-1.573 2.793-.455.99-.964 1.961-1.348 2.908-.356.959-.723 1.845-.988 2.624-.233.786-.427 1.443-.564 1.9a2.941 2.941 0 01-.263.721z" fill="#963e35"/></g><g data-name="Group 196"><path data-name="Path 404" d="M80.466 40.596c.089.088-1.421 1.719-2.721 3.5-.6.921-1.258 1.806-1.625 2.544l-.667 1.193-.61 1.218a25.1 25.1 0 00-1.157 2.77c-.688 2.084-.972 4.281-1.108 4.268a5.227 5.227 0 01.042-1.4 20.071 20.071 0 01.527-3.032 23.037 23.037 0 011.027-2.915l.576-1.287.742-1.2a27.312 27.312 0 011.807-2.507 19.211 19.211 0 013.167-3.152z" fill="#963e35"/></g><g data-name="Group 197"><path data-name="Path 405" d="M125.401 18.058c-.045.143-3.3-.845-6.661-1.191-.84-.061-1.683-.078-2.47-.118-.393-.011-.775-.051-1.135-.036l-1.016.057-2.1.115-2.076.264a38.445 38.445 0 00-4.524.9c-3.24.921-6.3 2.385-6.364 2.257a12.1 12.1 0 011.868-1.018 30.39 30.39 0 018.908-2.869l2.118-.331 2.148-.056 1.039-.024c.37 0 .758.05 1.159.076.8.07 1.659.121 2.509.219a32.734 32.734 0 014.584 1.037 12.059 12.059 0 012.013.718z" fill="#963e35"/></g></g></g><g data-name="Group 205"><path data-name="Path 406" d="M121.526 15.593s25.145 6.551 31.06 17.961c0 0 2.323 1.689 2.747-1.268 0 0 2.536 3.38-.634 4.226.832-.222 3.5 8.692 3.657 9.349 1.4 5.9.175 11.6-.2 17.519-.086 1.345-.372 3.363.8 4.365 1.353 1.152 3.182.18 2.37-1.636.772 1.221 1.887 1.4 2.251 2.724.67 2.438-1.944 3.524-3.816 4-2.571.649-4.073-.194-5.178-2.443-2.868-5.837-2.269-12.836-5.725-18.444-3.167-5.14-8.277-9.545-12.208-14.125-3.95-4.6-7.9-9.259-11.4-14.218-.295-.423-4.4-8.186-3.724-8.01z" fill="#c87568"/><path data-name="Path 407" d="M121.526 15.593s25.145 6.551 31.06 17.961c0 0 2.323 1.689 2.747-1.268 0 0 2.536 3.38-.634 4.226.832-.222 3.5 8.692 3.657 9.349 1.4 5.9.175 11.6-.2 17.519-.086 1.345-.372 3.363.8 4.365 1.353 1.152 3.182.18 2.37-1.636.772 1.221 1.887 1.4 2.251 2.724.67 2.438-1.944 3.524-3.816 4-2.571.649-4.073-.194-5.178-2.443-2.868-5.837-2.269-12.836-5.725-18.444-3.167-5.14-8.277-9.545-12.208-14.125-3.95-4.6-7.9-9.259-11.4-14.218-.295-.423-4.4-8.186-3.724-8.01z" fill="#c87568" opacity=".2" style="mix-blend-mode:multiply;isolation:isolate"/><g data-name="Group 204"><g data-name="Group 200"><path data-name="Path 408" d="M156.107 33.695c.015.02-.089.12-.292.278a2.858 2.858 0 01-.951.5 2.378 2.378 0 01-1.557-.033 4.057 4.057 0 01-1.478-.989 19.933 19.933 0 01-1.953-2.537 8.376 8.376 0 00-.626-.791l-.249-.292a2.948 2.948 0 00-.243-.3l-.669-.771a26.436 26.436 0 00-2.226-2.162 20.062 20.062 0 00-2.489-1.86 7.3 7.3 0 01-1.211-.761 4.487 4.487 0 011.36.489 16.181 16.181 0 012.694 1.694 24.268 24.268 0 012.4 2.094c.3.315.55.579.724.764a3.431 3.431 0 01.267.3l.25.319a9.077 9.077 0 01.625.868 21.446 21.446 0 001.752 2.558 3.682 3.682 0 001.232.962 2.1 2.1 0 001.32.145c.804-.176 1.279-.549 1.32-.475z" fill="#963e35"/></g><g data-name="Group 201"><path data-name="Path 409" d="M156.391 34.82c.069.081-.578.718-1.412 1.115a5.305 5.305 0 01-1.2.411 4.025 4.025 0 01-.587.086 4.915 4.915 0 01-.6-.062 3.322 3.322 0 01-1.223-.481 2.821 2.821 0 01-.87-.94c-.156-.31-.214-.527-.169-.551s.2.138.417.365a3.334 3.334 0 00.9.637 2.971 2.971 0 001.035.241c.292.01.488 0 .488 0a5.448 5.448 0 001.6-.224c.812-.233 1.55-.685 1.621-.597z" fill="#963e35"/></g><g data-name="Group 202"><path data-name="Path 410" d="M156.812 59.19a6.664 6.664 0 01-.1-1.661c.008-1 .088-2.323.16-3.638a32.451 32.451 0 00.025-3.6 9.613 9.613 0 00-.107-1.163c-.038-.277-.057-.436-.057-.436a2.788 2.788 0 00-.061-.434c-.065-.272-.156-.661-.265-1.129a24.682 24.682 0 00-1.248-3.344c-1.1-2.373-2.405-4.683-2.291-4.744a7.338 7.338 0 01.955 1.354 44.563 44.563 0 011.841 3.143 23.035 23.035 0 011.444 3.382c.137.49.249.9.328 1.187a2.617 2.617 0 01.082.461s.018.169.046.467a10.048 10.048 0 01.065 1.226 29.394 29.394 0 01-.2 3.668c-.15 1.313-.3 2.626-.411 3.612a8.427 8.427 0 01-.206 1.649z" fill="#963e35"/></g><g data-name="Group 203"><path data-name="Path 411" d="M162.727 66.938c.055 0 .079.233.079.588a2.383 2.383 0 01-.414 1.281 1.476 1.476 0 01-1.372.578 2.456 2.456 0 01-.643-.157l-.155-.082a2.263 2.263 0 01-.38-.248 4.558 4.558 0 01-.933-.938 2.663 2.663 0 01-.689-1.726c.1-.028.477.772 1.113 1.356a4.566 4.566 0 00.911.7 2.5 2.5 0 00.446.21c-.023-.021.755.479 1.278-.059.546-.538.623-1.544.759-1.503z" fill="#963e35"/></g></g></g></g><g data-name="Group 254"><g data-name="Group 220"><g data-name="Group 219"><g data-name="Group 218"><g data-name="Group 216"><g data-name="Group 215"><g data-name="Group 214"><g data-name="Group 213"><g data-name="Group 212"><g data-name="Group 211"><g data-name="Group 210"><path data-name="Path 412" d="M135.795 28.339c21.4 7.047 20.348 26.47 21.966 39.938 14.563 23.766-3.041 39.167-21.592 42.011-19.727 3.022-39.166-7.39-43.986-17.171 0 0-2.347 8.364-12.444 4.376-7.934-3.126-15.126-15.742-9.561-21.32 6.766-6.776 13.629-.425 13.629-.425S69.185 48.867 94.54 31.902c-.001 0 15.991-11.882 41.255-3.563z" fill="#f9cbb0"/><path data-name="Path 413" d="M135.795 28.339c21.4 7.047 20.348 26.47 21.966 39.938 14.563 23.766-3.041 39.167-21.592 42.011-19.727 3.022-39.166-7.39-43.986-17.171 0 0-2.347 8.364-12.444 4.376-7.934-3.126-15.126-15.742-9.561-21.32 6.766-6.776 13.629-.425 13.629-.425S69.185 48.867 94.54 31.902c-.001 0 15.991-11.882 41.255-3.563z" fill="#f9cbb0"/><g data-name="Group 207" opacity=".6" style="mix-blend-mode:screen;isolation:isolate" fill="#f9b799"><path data-name="Path 414" d="M157.761 68.278c-1.168-9.735-.951-22.579-8.815-31.612 6.375 8.876 6.263 20.672 7.357 29.763 14.562 23.763-3.04 39.164-21.591 42.006-17.062 2.615-33.905-4.82-41.264-13.206 6.355 9.1 24.413 17.867 42.721 15.06 18.551-2.844 36.155-18.245 21.592-42.011z"/><path data-name="Path 415" d="M90.723 91.268s-2.345 8.362-12.44 4.373a17.85 17.85 0 01-6.62-4.938 19.176 19.176 0 008.076 6.791c8.827 3.487 11.729-2.467 12.32-4.017a16.489 16.489 0 01-1.336-2.209z"/></g><path data-name="Path 416" d="M138.964 104.859c.059.473.841.666 1.767.408s1.623-.846 1.574-1.324-.837-.663-1.761-.4-1.623.843-1.58 1.316z" fill="#f9c584" opacity=".6" style="mix-blend-mode:screen;isolation:isolate"/><g data-name="Group 209"><path data-name="Path 417" d="M72.698 82.965s-.075-5.157 2.906-4.855 9.118 6.853 9.118 6.853-3.743-.375-2.884 2.627 4.652 4.51 4.652 4.51-.719 3.558-3.828 2.929-10.169-7.025-9.964-12.064z" fill="#ffbdc0" opacity=".5" style="mix-blend-mode:multiply;isolation:isolate"/><g data-name="Group 208"><path data-name="Path 418" d="M77.178 91.385c-.1.056.639 1.134 2.313 2.214a10.243 10.243 0 003.171 1.432 5.139 5.139 0 002.19.1 3.084 3.084 0 001.985-1.347 3.314 3.314 0 00.476-1.168l.2-.769c.01-.059.048-.136.031-.182l-.2-.059-.4-.127-.768-.243a1.93 1.93 0 01-.4-.156c-.244-.135-.5-.233-.723-.384a4.9 4.9 0 01-1.879-2.021 3.314 3.314 0 01-.377-1.7c.04-.177.073-.311.1-.406l.067-.1a.893.893 0 01.212-.3c.044-.034.119-.038.176-.08a.174.174 0 01.117-.042 1.347 1.347 0 01.294 0 3.539 3.539 0 01.669.073c.329.109.656.22 1 .341.636.216 1.3.438 2.005.677-.206-.333-.323-.581-.724-1.2a17.442 17.442 0 00-1.09-1.6c-.255-.286-.49-.579-.772-.871-.244-.259-.345-.342-.533-.526A30.619 30.619 0 0083.272 82a21.049 21.049 0 00-4.9-3.215 6.969 6.969 0 00-2.766-.673 2.991 2.991 0 00-1.317.306 2.3 2.3 0 00-.83.762 2.951 2.951 0 00-.46 1.354c-.026.328-.007.5.043.5.141.039.206-.741.886-1.572a1.849 1.849 0 011.634-.6 6.32 6.32 0 012.283.777 21.047 21.047 0 014.366 3.319c.325.308.639.623.934.933.13.138.337.366.381.421l.038.075c.044.086.061.147-.058.072l-.117-.038a1.752 1.752 0 00-.288.026 1.179 1.179 0 00-.383.1 4.318 4.318 0 00-.651.3 2.859 2.859 0 00-.669.675l-.155.264s-.051.1-.146.3a7.685 7.685 0 00-.155.806 4.8 4.8 0 00.651 2.508 6.483 6.483 0 002.578 2.505c.293.165.629.286.941.426a1.934 1.934 0 00.506.174 1.572 1.572 0 00.161.036c.131-.008.1.078.089.162.039.025-.12.316-.208.53a1.7 1.7 0 01-1.087.857 3.926 3.926 0 01-1.652.015 10.82 10.82 0 01-3.024-1.061c-1.714-.863-2.605-1.745-2.719-1.659z" fill="#ff6875"/></g><path data-name="Path 419" d="M74.515 75.177c-.124.459.546.921 1.494 1.022s1.825-.194 1.95-.653-.539-.925-1.491-1.02-1.822.191-1.953.651z" fill="#f9b799" style="mix-blend-mode:screen;isolation:isolate"/></g></g></g></g></g></g></g></g></g></g></g><g data-name="Group 249"><g data-name="Group 225"><g data-name="Group 222"><path data-name="Path 421" d="M99.162 89.346c.61 4.955 7.029 11.835 12.6 11.326s11.622-6.36 11.01-11.318-7.624-6.014-13.2-6.36c-5.476-.343-11.037 1.38-10.41 6.352z" fill="#ffbdc0" opacity=".4" style="mix-blend-mode:multiply;isolation:isolate"/><g data-name="Group 221"><path data-name="Path 422" d="M104.342 87.853c-.023.665.959 1.1 2.195.972s2.251-.776 2.272-1.437-.957-1.1-2.2-.978-2.251.781-2.267 1.443z" fill="#f9c584" opacity=".6" style="mix-blend-mode:screen;isolation:isolate"/></g></g><g data-name="Group 224"><path data-name="Path 423" d="M159.787 74.913a19.884 19.884 0 00-3.395.793c-5.314 1.743-11.834 4.526-11.179 9.478s7.986 9.094 13.5 8.186a7.836 7.836 0 003.274-1.448 21.234 21.234 0 001.131-6.44 31.863 31.863 0 00-3.331-10.569z" fill="#ffbdc0" opacity=".4" style="mix-blend-mode:multiply;isolation:isolate"/><g data-name="Group 223"><path data-name="Path 424" d="M159.648 78.548c.19.637-.649 1.306-1.878 1.492s-2.373-.182-2.562-.817.651-1.31 1.881-1.5 2.378.189 2.559.825z" fill="#f9c584" opacity=".6" style="mix-blend-mode:screen;isolation:isolate"/></g></g></g><g data-name="Group 235"><g data-name="Group 232"><g data-name="Group 231"><g data-name="Group 229"><g data-name="Group 228"><g data-name="Group 226"><path data-name="Path 425" d="M102.13 70.966a8.989 8.989 0 00-2.943 3.655c-.333 1.065 1.046 2.724 2.021 3.135a10.888 10.888 0 01-2.737-.625c-.388-.155-.392 2.738-.332 2.977.263.939 1.3 1.476 2.17 1.806a4.337 4.337 0 01-1.545.341c-.024-.024-.025-.026.009-.009a11.357 11.357 0 004.567 5.853 13.128 13.128 0 006.954 2.184c6.542.138 12.412-3.177 12.261-9.548a12.862 12.862 0 00-12.793-12.27 11.8 11.8 0 00-7.632 2.501z" fill="#5b2914"/><path data-name="Path 426" d="M101.449 83.051c.7 5.611 5.471 8.429 11.062 7.725 3.291-.413 6.183-1.289 8.3-4.057 1.861-2.423 2.7-5.7.95-8.509-2.373-3.805-7.012-7.155-11.456-6.592a10.234 10.234 0 00-8.856 11.433z" fill="#fff"/></g><g data-name="Group 227"><path data-name="Path 427" d="M102.436 86.968a5.28 5.28 0 01-.22-.291 2.466 2.466 0 01-.38-.6c-.041.045 2.112 1.761 2.289 1.942a8.654 8.654 0 004.08 2.076 13.843 13.843 0 004.958.376 14.2 14.2 0 001.607-.274 4.905 4.905 0 00.6-.15s.222-.06.6-.157c.189-.044.417-.139.674-.226a5 5 0 00.846-.348 10.7 10.7 0 003.78-3.405 9.571 9.571 0 001.254-2.587 6.121 6.121 0 00.2-2.551 9.345 9.345 0 00-.881-2.39c.018-.023.178.176.44.546a3.06 3.06 0 01.4.729 4.355 4.355 0 01.344 1.05 6.407 6.407 0 01-.078 2.774 9.845 9.845 0 01-1.225 2.825 11.188 11.188 0 01-3.92 3.779 5.393 5.393 0 01-.907.412c-.272.1-.506.206-.709.259-.4.118-.63.184-.63.184a4.592 4.592 0 01-.635.14 13.967 13.967 0 01-6.86-.35 12 12 0 01-5.627-3.763z" fill="#ff6875"/></g></g></g><g data-name="Group 230"><path data-name="Path 428" d="M105.612 83.136a7.66 7.66 0 009.254 6.053 8.227 8.227 0 005.817-9.793 7.673 7.673 0 00-9.263-6.052 8.227 8.227 0 00-5.808 9.792z" fill="#b8c23f"/><path data-name="Path 429" d="M109.812 82.615a4.307 4.307 0 005.206 3.4 4.62 4.62 0 003.268-5.506 4.311 4.311 0 00-5.206-3.4 4.626 4.626 0 00-3.268 5.506z" fill="#5b2914"/><path data-name="Path 430" d="M112.818 87.023a8.337 8.337 0 004.7-12.484 8.045 8.045 0 013.164 4.858 8.227 8.227 0 01-5.817 9.793 7.5 7.5 0 01-8.147-3.358 7.376 7.376 0 006.1 1.191z" fill="#8f83ff" opacity=".3" style="mix-blend-mode:multiply;isolation:isolate"/><path data-name="Path 431" d="M105.358 79.451a3.241 3.241 0 003.914 2.558 3.475 3.475 0 002.458-4.142 3.243 3.243 0 00-3.914-2.558 3.479 3.479 0 00-2.458 4.142z" fill="#fff"/><path data-name="Path 432" d="M115.809 84.583a2.453 2.453 0 002.956 1.933 2.63 2.63 0 001.85-3.129 2.447 2.447 0 00-2.951-1.927 2.619 2.619 0 00-1.855 3.123z" fill="#bf590c" opacity=".5" style="mix-blend-mode:screen;isolation:isolate"/></g></g><path data-name="Path 433" d="M110.315 73.59a10.227 10.227 0 00-8.884 9.167 10.211 10.211 0 011.609-6.581.485.485 0 01.031-.04c.165-.255.342-.5.526-.737.027-.03.05-.054.072-.083.176-.218.364-.432.558-.639.042-.046.089-.085.13-.125.184-.186.372-.367.573-.537.061-.058.132-.107.2-.162.183-.15.364-.3.556-.435.093-.068.19-.121.288-.185.174-.121.354-.236.533-.345.119-.066.249-.123.375-.19.167-.088.332-.179.5-.258s.326-.128.482-.189.293-.124.453-.176c.192-.065.4-.119.609-.175.125-.033.24-.075.363-.1.337-.076.676-.137 1.023-.181 4.066-.514 8.775 2.394 11.322 6.165a14.689 14.689 0 00-11.319-4.194z" fill="#8f83ff" opacity=".3" style="mix-blend-mode:multiply;isolation:isolate"/></g><g data-name="Group 233"><path data-name="Path 434" d="M103.091 91.483c.288.176 1.434-.937 1.434-.937s.2-.386.358-.79.278-.825.139-.916-.5.15-.823.4-.6.526-.6.526-.792 1.543-.508 1.717z" fill="#5b2914"/></g><g data-name="Group 234"><path data-name="Path 435" d="M100.782 88.607c.064.335 1.544.239 1.544.239s.081-.041.2-.117.286-.184.437-.3c.31-.227.589-.494.522-.65s-.454-.179-.81-.167c-.179 0-.35.016-.477.03s-.211.021-.211.021-1.261.607-1.205.944z" fill="#5b2914"/></g></g><g data-name="Group 247"><g data-name="Group 236" fill="#ff6875"><path data-name="Path 436" d="M116.257 67.041a7.255 7.255 0 00-2.6-.564 4.93 4.93 0 00-.887.008l-.336.016a1.7 1.7 0 00-.333.044l-.865.165a12.14 12.14 0 00-2.49.913 9.9 9.9 0 00-2.183 1.44 4.924 4.924 0 00-.612.6c-.136.153-.209.247-.194.256.036.034.364-.3.932-.711a11.236 11.236 0 012.215-1.271 12.456 12.456 0 012.43-.784c.348-.054.633-.1.833-.13a2.149 2.149 0 01.315-.031l.319-.03a5.222 5.222 0 01.833-.031 7.033 7.033 0 012.477.433 6.41 6.41 0 012.112 1.314 7.423 7.423 0 00.8.824 4.388 4.388 0 00-.649-.955 6.13 6.13 0 00-2.117-1.506z" opacity=".6" style="mix-blend-mode:multiply;isolation:isolate"/><path data-name="Path 437" d="M147.818 62.802a8.966 8.966 0 00-1.722.038 7.834 7.834 0 00-.78.132 7.191 7.191 0 00-.748.263 5.232 5.232 0 00-1.475.926 4.288 4.288 0 00-1 1.415 2.068 2.068 0 00-.2.751 3.845 3.845 0 00.372-.668 4.591 4.591 0 011.045-1.238 5.264 5.264 0 011.418-.772c.416-.141.706-.209.706-.209s.283-.078.723-.159a9.643 9.643 0 011.641-.137c1.213-.006 2.405.286 2.421.218a6.617 6.617 0 00-2.401-.56z" opacity=".6" style="mix-blend-mode:multiply;isolation:isolate"/></g><g data-name="Group 246"><g data-name="Group 243"><g data-name="Group 242"><g data-name="Group 240"><g data-name="Group 239"><g data-name="Group 237"><path data-name="Path 438" d="M155.559 64.413a7.985 7.985 0 013.024 2.79c.462.913-.307 2.7-.994 3.261a8.131 8.131 0 002.038-1.094c.275-.218.836 2.431.828 2.666a2.9 2.9 0 01-1.368 2.069 3.02 3.02 0 001.286.019c.016-.025.013-.026-.007 0a12.13 12.13 0 01-.8 3.424 11.129 11.129 0 01-1.689 2.808 9.989 9.989 0 01-5.078 3.33c-5.137 1.38-10.4-.542-11.5-6.413-.894-4.79 1.177-11.958 7.759-13.69a8.523 8.523 0 016.501.83z" fill="#5b2914"/><path data-name="Path 439" d="M158.404 75.363c.515 5.277-2.71 8.773-7.259 9.2-2.679.246-5.129 0-7.335-2.137a7.724 7.724 0 01-2.376-7.617c1.15-3.942 4.178-7.9 7.791-8.232 4.555-.426 8.662 3.51 9.179 8.786z" fill="#fff"/></g><g data-name="Group 238"><path data-name="Path 440" d="M158.374 79.144c.042-.1.08-.2.117-.31a2.262 2.262 0 00.185-.622c.04.033-1.33 2.02-1.433 2.217a7.051 7.051 0 01-2.827 2.683 9.591 9.591 0 01-5.17 1.347 3.067 3.067 0 01-.5-.024l-.506-.029c-.161 0-.355-.045-.58-.076a3.451 3.451 0 01-.731-.159 8.77 8.77 0 01-3.635-2.4 9.182 9.182 0 01-1.487-2.126 6.689 6.689 0 01-.65-2.306 9.649 9.649 0 01.243-2.358 2.047 2.047 0 00-.246.582 3.278 3.278 0 00-.179.747 4.78 4.78 0 00-.07 1.03 6.935 6.935 0 00.589 2.529 9.922 9.922 0 001.509 2.356 9.393 9.393 0 003.822 2.717 4.02 4.02 0 00.789.2c.234.038.443.093.611.1.338.033.531.048.531.048a3.544 3.544 0 00.532.007 9.761 9.761 0 001.384-.111 10.112 10.112 0 003.961-1.523 10.214 10.214 0 003.741-4.519z" fill="#ff6875"/></g></g></g><g data-name="Group 241"><path data-name="Path 441" d="M144.247 78.775c1.491 3.883 5.389 5.653 8.7 3.944s4.8-6.237 3.309-10.122-5.388-5.654-8.7-3.946-4.799 6.24-3.309 10.124z" fill="#b8c23f"/><path data-name="Path 442" d="M147.163 77.569c.84 2.188 3.026 3.179 4.894 2.22a4.606 4.606 0 001.863-5.693c-.838-2.183-3.031-3.178-4.9-2.22a4.609 4.609 0 00-1.857 5.693z" fill="#5b2914"/><path data-name="Path 443" d="M150.889 81.077c3.315-1.707 4.8-6.239 3.306-10.122a7.809 7.809 0 00-1.355-2.294 7.234 7.234 0 013.414 3.935c1.491 3.885.007 8.417-3.309 10.122a5.928 5.928 0 01-7.342-1.646 5.705 5.705 0 005.286.005z" fill="#8f83ff" opacity=".3" style="mix-blend-mode:multiply;isolation:isolate"/><path data-name="Path 444" d="M143.091 75.469a2.662 2.662 0 003.535 1.958 3.459 3.459 0 001.743-4.154 2.666 2.666 0 00-3.538-1.957 3.467 3.467 0 00-1.74 4.153z" fill="#fff"/><path data-name="Path 445" d="M152.23 79.419a2.01 2.01 0 002.776 1.259 2.615 2.615 0 001.06-3.228 2.014 2.014 0 00-2.778-1.262 2.619 2.619 0 00-1.058 3.231z" fill="#bf590c" opacity=".5" style="mix-blend-mode:screen;isolation:isolate"/></g></g><path data-name="Path 446" d="M149.596 68.384c3.932-.365 7.526 2.522 8.769 6.708a10.529 10.529 0 00-2.528-5.729l-.031-.028c-.183-.2-.367-.4-.559-.577a.9.9 0 01-.07-.063 13.488 13.488 0 00-.566-.478c-.042-.029-.083-.061-.124-.09a8.26 8.26 0 00-.554-.382c-.062-.04-.125-.072-.189-.112-.171-.1-.345-.2-.52-.29-.091-.046-.177-.079-.264-.117a8.107 8.107 0 00-.489-.212c-.108-.041-.218-.07-.328-.1-.155-.052-.3-.1-.446-.142s-.28-.054-.415-.08-.258-.059-.39-.075c-.17-.026-.343-.033-.515-.046-.108 0-.206-.024-.308-.024a7.25 7.25 0 00-.842.03c-3.307.3-6.474 3.868-7.76 7.814 1.727-3.216 5.089-5.725 8.129-6.007z" fill="#8f83ff" opacity=".3" style="mix-blend-mode:multiply;isolation:isolate"/></g><g data-name="Group 244"><path data-name="Path 447" d="M158.716 83.407c-.192.216-1.309-.584-1.309-.584s-.23-.316-.434-.657-.379-.7-.283-.812.421.038.729.21.574.368.574.368.916 1.262.723 1.475z" fill="#5b2914"/></g><g data-name="Group 245"><path data-name="Path 448" d="M159.988 80.331c.015.317-1.171.513-1.171.513a1.382 1.382 0 01-.185-.07c-.111-.049-.259-.112-.4-.187-.289-.152-.559-.339-.533-.493s.319-.254.6-.313c.141-.03.281-.05.383-.063l.171-.021s1.12.312 1.135.634z" fill="#5b2914"/></g></g></g><g data-name="Group 248"><path data-name="Path 449" d="M141.688 86.683s-.675 1.47-3.2 1.794-6.677-1.36-7.582.062 3.888 5.837 7.129 5.837 5.751-7.157 3.653-7.693z" fill="#ffbdc0" opacity=".5" style="mix-blend-mode:multiply;isolation:isolate"/><path data-name="Path 450" d="M141.223 85.04a4.685 4.685 0 011.231 1.174 2.006 2.006 0 01.288.553 1.457 1.457 0 01.077.23s.012.089.025.248a2.218 2.218 0 01-.038.635 4.236 4.236 0 01-.77 1.548c-.744.942-1.648 1.658-1.74 1.573s.629-.992 1.162-1.949a3.753 3.753 0 00.459-1.311 1.891 1.891 0 00-.046-.537.528.528 0 00-.038-.142 1.205 1.205 0 00-.144-.38 4.384 4.384 0 00-.9-1.11c-.8-.764-1.735-1.448-1.655-1.569a5.349 5.349 0 012.089 1.037zm-7.534 4.407c0 .138.351.26.642.413a4.109 4.109 0 01.519.337 2.967 2.967 0 01.539.238c.26.157.5.422.635.375s.1-.456-.126-.84a2.412 2.412 0 00-.592-.636 2.726 2.726 0 00-.828-.148c-.416.006-.79.133-.789.262zm-3.319-.62a1.762 1.762 0 00.172.943c.3.617.831.92.911.844.117-.091-.21-.589-.255-1.06a1.125 1.125 0 01.057-.575 2.4 2.4 0 01.1-.246s.027-.108.089-.284.174-.42.286-.679c.245-.51.428-1.083.3-1.143s-.486.351-.878.766a5.6 5.6 0 00-.512.644 3.291 3.291 0 00-.2.356l-.027.115a1.84 1.84 0 00-.042.319z" fill="#ff6875"/><path data-name="Path 451" d="M134.932 86.939c-.153.4.363.879 1.153 1.056s1.555-.016 1.706-.423-.369-.881-1.159-1.056-1.554.017-1.7.423z" fill="#f9c584" opacity=".6" style="mix-blend-mode:screen;isolation:isolate"/></g></g><g data-name="Group 252"><path data-name="Path 452" d="M106.59 59.237c.341 1.563-3.258 4.707-5.084 3.1-2.3-2.026 1.778-3.929 3.546-3.911.977.011 1.437.339 1.538.811zm39.305-6.246c.522 1.516 5.137 2.934 6.155.835 1.33-2.745-3.572-2.854-5.1-2.224-.958.395-1.222.897-1.054 1.389z" fill="#c87568"/><g data-name="Group 251"><g data-name="Group 250" fill="#c87568" opacity=".2"><path data-name="Path 453" d="M106.533 59.056c-.65 1.6-3.429 3.608-4.963 2.258a2.034 2.034 0 01-.6-.816 1.446 1.446 0 00.535 1.838c1.825 1.608 5.425-1.536 5.084-3.1a.811.811 0 00-.056-.18z"/><path data-name="Path 454" d="M152.111 52.803c-.967 2-5.2.806-6.043-.621a.8.8 0 00-.172.809c.522 1.516 5.137 2.934 6.155.835a1.629 1.629 0 00.155-1.274 1.841 1.841 0 01-.095.251z"/></g></g></g><g data-name="Group 253"><path data-name="Path 455" d="M143.148 92.432c.086.011.084.511.028 1.271-.068.372-.135.815-.254 1.278a8.869 8.869 0 01-.531 1.422 8.057 8.057 0 01-.786 1.335 6.537 6.537 0 01-.973.991c-.163.127-.309.251-.449.346l-.388.214-.343.18a2.913 2.913 0 01-.371.107 3.7 3.7 0 01-1 .16 5.187 5.187 0 01-1.406-.117 6.17 6.17 0 01-1.45-.6 6.232 6.232 0 01-2.78-2.921c.16-.157 1.436 1.443 3.174 2.122a5.545 5.545 0 001.259.375 4.271 4.271 0 001.1-.011 2.773 2.773 0 00.741-.183 1.347 1.347 0 00.27-.1l.265-.119.312-.135c.113-.066.235-.157.372-.246a5.677 5.677 0 00.87-.734 7.833 7.833 0 00.8-1.089 9.415 9.415 0 00.648-1.229c.173-.413.3-.815.442-1.154.196-.698.363-1.174.45-1.163z" fill="#ff6875"/></g></g><g data-name="Group 271"><g data-name="Group 264"><g data-name="Group 263"><g data-name="Group 262"><g data-name="Group 261"><path data-name="Path 456" d="M136.209 53.879c6.359-3.582 12.7-10.593 11.117-18.9a29.884 29.884 0 00-11.53-6.642c-12.5-4.117-22.728-3.285-29.874-1.4-1.482 2.493-2.8 6.482.245 10.493 2.95 3.887 6.867 1.982 10.874 3.353 5.209 1.783 6 10.688-1.2 8.813-3.6-.939-2.848-6.276.543-6a4.04 4.04 0 00-5.842 3.821c-.278 8.791 11.843 11.208 17.892 9.006-.077.03-.15.06-.218.092-2.359 1.107.62 4.026 2.453 3.678-1.627-.5-.836-2.345 0-3.329 1.308-1.537 3.83-2.021 5.54-2.985z" fill="#ffbdc0" opacity=".4" style="mix-blend-mode:multiply;isolation:isolate"/><path data-name="Path 457" d="M128.637 54.977c-2.359 1.107.62 4.026 2.452 3.679-1.627-.5-.834-2.346 0-3.328 1.311-1.55 3.833-2.034 5.545-3 6.416-3.616 12.832-10.719 11.084-19.125-.779-3.737-9.295-11.767-13.619-10.633 3.7-.972 1.654-5.379-.591-7.377.386 2.886-.83 3.241-2.569 3.767-3.253.986-8.367-.526-11.73-.33-3.839.225-8.037 1.394-10.918 4.2-.011.01-6.672 6.5-1.7 13.055 2.952 3.887 6.869 1.982 10.874 3.352 5.21 1.784 6 10.69-1.2 8.815-3.6-.939-2.846-6.279.543-6a4.042 4.042 0 00-5.842 3.822c-.277 8.79 11.844 11.207 17.894 9.005-.082.035-.155.066-.223.098z" fill="#c87568"/><path data-name="Path 458" d="M117.615 39.301c-.2-1.3-.288-2.844-.251-2.394a10.078 10.078 0 01.589-4.287 17.892 17.892 0 014.748-7.637 19.409 19.409 0 018.091-4.635 17.838 17.838 0 015.327-.5 7.954 7.954 0 00-2.613-4.658c.386 2.886-.83 3.241-2.569 3.767-3.253.986-8.367-.526-11.73-.33-3.839.225-8.037 1.394-10.918 4.2-.011.01-6.672 6.5-1.7 13.055 2.952 3.887 6.869 1.982 10.874 3.352.052.025.101.047.152.067z" fill="#c87568" opacity=".2" style="mix-blend-mode:multiply;isolation:isolate"/><path data-name="Path 459" d="M136.632 52.329a27.445 27.445 0 005.239-3.852 12.914 12.914 0 01-2.84 1.233 21.2 21.2 0 01-7.15 1.086 15.066 15.066 0 01-4.395-.658c-2.188-.838-4.569-1.746-6.133-3.63-.037-.045-.07-.084-.1-.127-.589 1.491-2.176 2.4-4.989 1.673-3.6-.939-2.846-6.279.543-6a4.042 4.042 0 00-5.842 3.822c-.277 8.79 11.844 11.207 17.894 9.005a2.65 2.65 0 00-.218.092c-2.359 1.107.62 4.026 2.452 3.679-1.627-.5-.834-2.346 0-3.328 1.305-1.546 3.827-2.03 5.539-2.995z" fill="#c87568" opacity=".2" style="mix-blend-mode:multiply;isolation:isolate"/><g data-name="Group 260"><g data-name="Group 258"><g data-name="Group 255"><path data-name="Path 460" d="M121.628 35.254a2.676 2.676 0 01.751.27 7.49 7.49 0 011.674 1.116 8.378 8.378 0 012.638 4.823 7.347 7.347 0 01-1.028 5.269 6.3 6.3 0 01-1.357 1.464 4.885 4.885 0 01-.66.459 4.68 4.68 0 01-.736.375 8.04 8.04 0 01-2.142.612 7.39 7.39 0 01-3.2-.126 7.569 7.569 0 01-2.988-1.636 6.017 6.017 0 01-1.741-2.509 2.536 2.536 0 01.361-2.485 3.271 3.271 0 011.813-.992 2.391 2.391 0 01.816-.088 5.317 5.317 0 01-.749.239 3.06 3.06 0 00-1.551 1.007 2.255 2.255 0 00-.155 2.2 5.8 5.8 0 001.72 2.245 7 7 0 002.732 1.4 6.342 6.342 0 002.757.024 6.941 6.941 0 001.847-.57 3.906 3.906 0 00.622-.336 4.143 4.143 0 00.578-.383 5.545 5.545 0 001.23-1.258 6.953 6.953 0 001.133-4.85 8.124 8.124 0 00-2.236-4.686 12.7 12.7 0 00-2.129-1.584z" fill="#963e35"/></g><g data-name="Group 256"><path data-name="Path 461" d="M132.702 43.284c-.089-.014.157-.933.187-2.321a14.266 14.266 0 00-.887-5 16.438 16.438 0 00-2.56-4.593 17.1 17.1 0 00-1.207-1.341l-.488-.489-.517-.465a15.264 15.264 0 00-1.455-1.152c-.336-.2-.685-.451-1.081-.67l-1.285-.631-1.5-.5c-.531-.137-1.083-.249-1.63-.377a39.265 39.265 0 00-6.285-.549c-1.74-.039-2.905-.007-2.909-.074a3.129 3.129 0 01.793-.111c.509-.049 1.236-.1 2.111-.126a35.171 35.171 0 016.438.311c.577.113 1.159.214 1.721.343l1.622.493 1.421.649c.432.225.807.472 1.171.684a16.159 16.159 0 011.584 1.171l.562.482.5.524a17.144 17.144 0 011.216 1.436 16.12 16.12 0 012.459 4.829 13.258 13.258 0 01.594 5.166 8.744 8.744 0 01-.327 1.688c-.128.404-.214.63-.248.623z" fill="#963e35"/></g><g data-name="Group 257"><path data-name="Path 462" d="M132.174 23.633c-.1.1-1.507-.662-3.074-1.113a18.361 18.361 0 00-2.2-.444l-1.016-.13-1.019-.091a20.334 20.334 0 00-2.268-.053c-1.66.089-3.285.467-3.342.352a10.02 10.02 0 013.263-.912 20.29 20.29 0 013.5-.084l1.074.2a16.138 16.138 0 012.278.64 8.306 8.306 0 012.804 1.635z" fill="#963e35"/></g></g><g data-name="Group 259" fill="#963e35"><path data-name="Path 463" d="M138.598 43.51c.053-.278.069-.439.043-.444s-.1.141-.2.4a11.352 11.352 0 01-2.347 3.911 22.052 22.052 0 01-2.612 2.275l-1.267.98s-.5.411-1.212 1.067c-.353.336-.759.732-1.167 1.179a7.231 7.231 0 00-1.135 1.581 6.469 6.469 0 00-.691 1.819 1.82 1.82 0 00.365 1.7 1.591 1.591 0 001.157.375c.288-.022.446-.046.444-.073s-.163-.058-.434-.086a1.541 1.541 0 01-.945-.431 1.509 1.509 0 01-.153-1.387 6.29 6.29 0 01.743-1.631 6.735 6.735 0 011.119-1.4c.421-.419.831-.786 1.186-1.094.722-.61 1.224-1 1.224-1l1.225-1.026a20.816 20.816 0 002.573-2.474 9.9 9.9 0 001.777-3.1 6.493 6.493 0 00.307-1.141z"/><path data-name="Path 464" d="M144.515 36.599a13.734 13.734 0 00-.25-2.074l-.167-.775-.236-.756a14.194 14.194 0 00-.791-1.925 15.466 15.466 0 00-3.848-4.926 15.774 15.774 0 00-5.43-3.012 13.274 13.274 0 00-1.987-.483 2.98 2.98 0 00-.772-.082c-.013.074 1.1.27 2.656.857a16.243 16.243 0 015.161 3.143 15.062 15.062 0 013.557 4.82 13.616 13.616 0 01.712 1.845c.132.458.21.72.21.72l.172.731a13.484 13.484 0 01-.64 7.867 14.73 14.73 0 01-3.391 5c-1.2 1.161-2.142 1.79-2.1 1.852a2.949 2.949 0 00.675-.386 14.049 14.049 0 001.633-1.24 14.379 14.379 0 003.7-5.008 13.569 13.569 0 001.136-6.168z"/></g></g></g><path data-name="Path 465" d="M137.946 28.94c-.477.388-1.676.061-2.679-.732s-1.428-1.747-.952-2.135 1.678-.062 2.679.73 1.429 1.749.952 2.137z" fill="#c87568" style="mix-blend-mode:screen;isolation:isolate"/></g></g></g><g data-name="Group 270"><path data-name="Path 466" d="M105.258 35.525c.561-.039-.141 11.691-7.185 18.453S87.509 75.53 90.607 79.051s5.634.564 4.226-1.126c0 0 4.368 2.252-.563 5.353s-14.088-3.241-12.818-11.269-.706-34.793 23.806-36.484z" fill="#ffbdc0" opacity=".4" style="mix-blend-mode:multiply;isolation:isolate"/><path data-name="Path 467" d="M104.412 33.972c.562-.039-.14 11.691-7.184 18.452S86.664 73.98 89.764 77.501s5.634.565 4.226-1.126c0 0 4.367 2.252-.564 5.352s-14.087-3.239-12.818-11.268-.707-34.793 23.804-36.487z" fill="#c87568"/><path data-name="Path 468" d="M89.904 44.342h.282a12.473 12.473 0 019.826 4.728c4.444-6.689 4.877-15.127 4.4-15.094-9.666.666-15.2 5.237-18.454 11.016a12.546 12.546 0 013.946-.65z" fill="#c87568" opacity=".2" style="mix-blend-mode:multiply;isolation:isolate"/><path data-name="Path 469" d="M93.989 76.375c1.408 1.691-1.128 4.648-4.226 1.126-1.2-1.361-1.4-4.406-.8-8.02a12.639 12.639 0 01-7.914-3.6c-.139 1.829-.255 3.405-.439 4.575-1.268 8.029 7.888 14.369 12.818 11.268s.561-5.349.561-5.349z" fill="#c87568" opacity=".2" style="mix-blend-mode:multiply;isolation:isolate"/><g data-name="Group 269"><g data-name="Group 265"><path data-name="Path 470" d="M89.059 60.879c.136.029-.6 2.987-.978 5.969-.044.373-.089.746-.131 1.112-.021.369-.04.731-.061 1.081a15.332 15.332 0 000 1.906 8.008 8.008 0 00.118 1.337l.07.5a5.777 5.777 0 00.139.906c.063.277.14.61.229.982a4.744 4.744 0 00.384 1.167 6.806 6.806 0 001.661 2.274 2.535 2.535 0 002.447.617h.021a2.061 2.061 0 00.963-.516 1.489 1.489 0 00.378-.76 6.812 6.812 0 00-.027-.792c.015-.007.053.056.112.19a1.4 1.4 0 01.113.62 1.636 1.636 0 01-.355.933 2.293 2.293 0 01-1.094.7l.021-.007a2.662 2.662 0 01-1.476.139 3.553 3.553 0 01-1.446-.684 7.234 7.234 0 01-1.931-2.407 12.433 12.433 0 01-.927-3.237s-.019-.193-.058-.53a8.466 8.466 0 01-.075-1.4 15.353 15.353 0 01.074-1.971c.037-.359.063-.731.11-1.105s.122-.749.185-1.126c.255-1.51.641-2.982.941-4.081a9.576 9.576 0 01.593-1.817z" fill="#963e35"/></g><g data-name="Group 266"><path data-name="Path 471" d="M98.074 39.89a46.659 46.659 0 01-2.684 4.73c-.728 1.147-1.571 2.221-2.158 3.058l-1 1.379-.288.366a28.93 28.93 0 01-.768.95 26.469 26.469 0 00-2.163 2.963 17.142 17.142 0 00-1.637 3.276 13.727 13.727 0 01-.567 1.589 5.482 5.482 0 01.271-1.683 15.166 15.166 0 011.448-3.468 25.115 25.115 0 012.074-3.136c.316-.406.569-.744.739-.983l.272-.374 1.04-1.325c.623-.795 1.493-1.831 2.275-2.931a48.06 48.06 0 013.146-4.411z" fill="#963e35"/></g><g data-name="Group 267"><path data-name="Path 472" d="M91.312 59.048a11.318 11.318 0 011.118-1.912c.413-.518.866-1.157 1.417-1.778s1.145-1.28 1.764-1.908c1.236-1.264 2.433-2.535 3.276-3.531.4-.508.712-.949.941-1.25.113-.152.2-.27.263-.352a.948.948 0 00.081-.13l.3-.5a13.478 13.478 0 00.772-1.346c.259-.6.564-1.29.89-2.036a8.562 8.562 0 00.439-1.175c.133-.407.27-.821.4-1.236a23.46 23.46 0 00.693-2.468c.2-.794.4-1.535.511-2.184a12.917 12.917 0 01.51-2.139 12.96 12.96 0 01-.2 2.194c-.066.659-.219 1.416-.382 2.227a21.726 21.726 0 01-.587 2.527c-.122.427-.243.853-.364 1.272a8.725 8.725 0 01-.4 1.215c-.31.775-.6 1.5-.845 2.119a13.648 13.648 0 01-.768 1.436c-.2.343-.309.539-.309.539a.74.74 0 01-.09.135l-.282.36c-.246.3-.582.759-1.015 1.269-.9 1-2.157 2.249-3.436 3.454-.643.6-1.25 1.227-1.832 1.81s-1.054 1.183-1.5 1.667a15.332 15.332 0 01-1.365 1.721z" fill="#963e35"/></g><g data-name="Group 268"><path data-name="Path 473" d="M82.716 65.951c.159.015-.77 3.674-.448 7.322a10.535 10.535 0 001.444 4.674 4.591 4.591 0 00.514.743c.172.209.308.4.441.54l.436.426a3.561 3.561 0 00.442.415 9.311 9.311 0 001.3.943 6.138 6.138 0 004.626.833 4.639 4.639 0 002.268-1.149 3.037 3.037 0 00.914-1.97 8.5 8.5 0 00-.382-2.215 2.09 2.09 0 01.315.56 2.7 2.7 0 01.245.7 4.39 4.39 0 01.1.451l.026.516a3.347 3.347 0 01-.9 2.265 5.066 5.066 0 01-2.45 1.389 6.729 6.729 0 01-5.132-.752 9.825 9.825 0 01-1.43-.975 4.432 4.432 0 01-.494-.44l-.462-.477c-.143-.156-.288-.371-.467-.6a5.241 5.241 0 01-.539-.827 10.99 10.99 0 01-1.375-5.008 21.449 21.449 0 01.42-5.115 11.478 11.478 0 01.588-2.249z" fill="#963e35"/></g></g><path data-name="Path 474" d="M97.052 50.038c.215.575-.476 1.609-1.546 2.305s-2.11.8-2.327.223.476-1.61 1.545-2.308 2.114-.797 2.328-.22z" fill="#c87568" style="mix-blend-mode:screen;isolation:isolate"/></g></g><g data-name="Group 277"><g data-name="Group 272"><path data-name="Path 475" d="M115.837 23.29c.08-.04.163-.076.243-.116a92.053 92.053 0 00-9.556.66s-18.172.211-26.833 17.325-2.748 31.9-2.748 31.9l4.226 1.058s.141-19.721 13.521-33.384c5.805-5.922 13.675-13.616 21.147-17.443z" fill="#c22367"/><path data-name="Path 476" d="M106.525 23.834s-15.514.19-24.7 13.725a29.223 29.223 0 009.926 6.555 40.816 40.816 0 012.946-3.378c5.8-5.926 13.674-13.619 21.147-17.446.08-.04.163-.076.243-.116a92.053 92.053 0 00-9.562.66z" fill="#8f83ff" opacity=".3" style="mix-blend-mode:multiply;isolation:isolate"/><path data-name="Path 477" d="M106.524 23.834a33.138 33.138 0 00-20.777 9.034c.071 0 .14-.01.212-.01a7.737 7.737 0 017.462 5.68c.094.686.185 1.372.278 2.058-.061.462-.1.932-.168 1.4.379-.423.758-.847 1.161-1.26 5.8-5.926 13.674-13.619 21.147-17.446.08-.04.163-.076.243-.116a92.053 92.053 0 00-9.558.66z" fill="#8f83ff" opacity=".3" style="mix-blend-mode:multiply;isolation:isolate"/><path data-name="Path 478" d="M80.165 40.281c-.159.291-.321.576-.473.878a44.564 44.564 0 00-2.094 4.811 47.059 47.059 0 008.947 6.553 46.866 46.866 0 013.357-5.882 32.358 32.358 0 01-9.737-6.36z" fill="#8f83ff" opacity=".3" style="mix-blend-mode:multiply;isolation:isolate"/><path data-name="Path 479" d="M75.029 62.811a35.022 35.022 0 001.915 10.252l4.226 1.058a47.79 47.79 0 01.819-7.338 61.678 61.678 0 01-6.96-3.972z" fill="#8f83ff" opacity=".3" style="mix-blend-mode:multiply;isolation:isolate"/></g><g data-name="Group 276"><g data-name="Group 275"><g data-name="Group 274"><path data-name="Path 480" d="M118.306 25.525s15.524-.926 16.522-4.438C136.075 16.705 126.001-.07 121.982 0c-5.244.089-7.351 13.153-6.94 19.846a4.349 4.349 0 00-6.159 2.249s-14.223-9.406-18.261-6.792 3.068 23.345 9.578 22.994 11.269-10.2 11.269-10.2 4.375 1.013 6.837-2.572z" fill="#c22367"/><path data-name="Path 481" d="M99.62 38.273a3.657 3.657 0 01-.508-.11 1.336 1.336 0 01-.072-.021 3.949 3.949 0 01-.5-.19 1.019 1.019 0 01-.083-.038 5.225 5.225 0 01-.49-.264c-.026-.015-.054-.035-.084-.052a6.188 6.188 0 01-.486-.338l-.072-.057a8.952 8.952 0 01-.5-.416.388.388 0 00-.045-.043 9.43 9.43 0 01-.5-.5l-.013-.012a10.49 10.49 0 01-.5-.561l-.054-.062a13.17 13.17 0 01-.465-.59c-.026-.031-.051-.062-.076-.089-.149-.206-.3-.413-.449-.628-.022-.037-.047-.072-.074-.112a17.08 17.08 0 01-.436-.667c-.023-.036-.048-.07-.069-.109q-.219-.349-.432-.715c-.017-.034-.034-.063-.051-.093a35.122 35.122 0 01-.431-.776.13.13 0 00-.021-.045q-.444-.837-.844-1.719a.355.355 0 00-.029-.057 35.105 35.105 0 01-.376-.863c-.013-.027-.023-.055-.035-.083-.117-.285-.237-.573-.351-.864l-.034-.088c-.112-.293-.223-.583-.327-.877a.427.427 0 01-.026-.068c-.11-.3-.212-.6-.313-.907a.136.136 0 00-.007-.025 33.174 33.174 0 01-.992-3.718c-.06-.3-.114-.592-.161-.881-.388-2.322-.363-4.308.211-5.477.536 2.445 3.151 6.478 3.87 9.057.856 3.079 2.608 4.443 6.257 3.605s6.893-2.256 5.144-2.843-6.257-1.539-6.1-3.4 6.59.322 8.036-.5c.333-.188.224-.619-.133-1.164.137.083.261.159.384.236.015.01.034.018.047.029.114.068.222.136.32.2.023.014.042.029.062.04.1.058.183.114.266.168.024.013.044.028.065.041.077.048.151.092.214.135l.065.04c.058.038.113.072.161.1l.057.037c.042.025.084.055.112.074l.021.012.114.073c.062-.129.123-.25.185-.37l.132-.232c.022-.03.039-.065.062-.1.057-.094.116-.187.179-.275l.013-.016c.064-.094.134-.183.2-.267 1.043 2.042 2.837 4.649 4.729 3.334 1.423-.994.89-2.9-.038-4.6a4.665 4.665 0 01.7.278c-.021-.36-.035-.741-.043-1.133v-.1c-.006-.389 0-.793 0-1.211v-.1c.012-.427.028-.862.051-1.308a.548.548 0 00.007-.064c.027-.461.059-.93.1-1.409.551 1.6 1.143 2.931 1.656 3.188 1.454.729 1.69-4.423 3.684-4.736s-1.526 7.455.72 7.288c1.58-.12 2.562-2.1 3.487-3.15 1.12-1.27 2.187-1.61 3.422-2.565 2.775-2.147.91-4.34-.957-6.886a9.352 9.352 0 01-1.754-5.474c4.547 4.677 10.374 15.507 9.41 18.9s-15.568 4.377-16.477 4.435h-.045c-2.462 3.585-6.837 2.574-6.837 2.574s-4.757 9.85-11.269 10.2a2.9 2.9 0 01-.532-.021z" fill="#8f83ff" opacity=".3" style="mix-blend-mode:multiply;isolation:isolate"/><path data-name="Path 482" d="M131.811 16.755c1.26.485 2.249 3.975 2.612 5.019-2.657 2.946-16.116 3.752-16.116 3.752s7.799-10.957 13.504-8.771zM111.47 28.099s-8.041.813-11.72 3.7c-1.953 1.529-3.492 3.994-.44 6.421a3.205 3.205 0 00.892.082c6.51-.354 11.268-10.203 11.268-10.203z" fill="#8f83ff" opacity=".3" style="mix-blend-mode:multiply;isolation:isolate"/><g data-name="Group 273" opacity=".3" style="mix-blend-mode:multiply;isolation:isolate" fill="#8f83ff"><path data-name="Path 483" d="M108.951 28.469c-1.925 2.942-5.416 7.191-9.652 7.419a3.2 3.2 0 01-.892-.082 5.978 5.978 0 01-.806-.766 5.076 5.076 0 012.15-3.244c2.363-1.853 6.522-2.85 9.2-3.327z" style="mix-blend-mode:multiply;isolation:isolate"/><path data-name="Path 484" d="M120.465 22.853c2.721-3.089 7.51-7.57 11.346-6.1a3.7 3.7 0 011.484 1.939l.219.669c-1.843 2.055-8.911 3.064-13.049 3.492z" style="mix-blend-mode:multiply;isolation:isolate"/></g><path data-name="Path 485" d="M107.308 25.39c.742-.19 1.2-.422 1.231-.368a3.115 3.115 0 01-1.148.627 8.174 8.174 0 01-2.869.439 8.8 8.8 0 01-2.919-.562 7.326 7.326 0 01-.911-.437l-.336-.2s-.026-.019-.085-.055-.126-.1-.227-.186l-.348-.29-.4-.44a5.668 5.668 0 01-.414-.571 2.243 2.243 0 01-.185-.339l-.248-.515-.037-.075c-.01-.026-.039-.059 0-.069l.135-.094.262-.188a3.248 3.248 0 01.4-.2 2.747 2.747 0 01.826-.172 6.8 6.8 0 012.9.688 5.467 5.467 0 011.2.6 5.642 5.642 0 01-1.283-.354 7.136 7.136 0 00-2.76-.454 2.341 2.341 0 00-.676.178c-.092.05-.223.123-.274.155-.014.021-.067.039-.046.06l.022.03.071.137a1.6 1.6 0 00.173.287 5.528 5.528 0 00.381.481c.132.136.256.258.365.365.122.092.23.177.316.244s.16.121.2.157.08.045.08.045l.293.187a6.314 6.314 0 00.813.435 8.739 8.739 0 002.715.665 8.958 8.958 0 002.783-.211zm13.113-12.965a1 1 0 00-.444.185 2.44 2.44 0 00-.573.608 7.024 7.024 0 00-1.059 2.705 2.989 2.989 0 00-.027 1.33c.048 0 .07-.522.279-1.261a7.378 7.378 0 011.183-2.465 2.079 2.079 0 01.489-.467.486.486 0 01.233-.086.142.142 0 01.138.05 1.043 1.043 0 01.225.468 4.022 4.022 0 01.089.581 8.338 8.338 0 01.032.917c0 .222-.009.347-.009.347s-.009.12-.021.334a7.853 7.853 0 01-.146.886 9.857 9.857 0 01-.989 2.552 7.737 7.737 0 01-1.681 2.121c-.564.483-1.032.67-1.011.726a2.425 2.425 0 001.169-.507 7.234 7.234 0 001.93-2.072 9.993 9.993 0 001.178-2.639 8.209 8.209 0 00.2-.964c.022-.243.038-.382.038-.382a9.873 9.873 0 00-.074-1.369 5.745 5.745 0 00-.141-.68 1.573 1.573 0 00-.46-.766.7.7 0 00-.548-.152zm-6.331 6.98c-.4-.117-.664-.109-.67-.073-.008.057.244.138.581.319a3.815 3.815 0 011.083.863 5 5 0 01.755 1.167c.074.177.133.324.177.427s.056.164.056.164.02.059.062.163a2.519 2.519 0 01.154.441 6.588 6.588 0 01.286 1.39 7.959 7.959 0 010 1.433c-.04.389-.081.655-.035.675s.166-.222.29-.614a5.687 5.687 0 00.216-1.5 6.7 6.7 0 00-.16-1.534 3.565 3.565 0 00-.137-.5l-.058-.188s-.024-.067-.076-.181-.139-.27-.236-.463a5.3 5.3 0 00-.967-1.227 3.454 3.454 0 00-1.321-.765zm-4.861 4.288c.109.409.214.82.294 1.128l.141.514.2.5a9.6 9.6 0 00.523 1.089 4.377 4.377 0 00.709.989c.23.239.418.352.445.322s-.093-.212-.244-.483a6.613 6.613 0 01-.491-1.031 11.91 11.91 0 01-.364-1.084l-.148-.5-.189-.5c-.113-.3-.267-.7-.43-1.094a4.389 4.389 0 00-.845-1.507 9.148 9.148 0 00.399 1.654zm20.446-13.937l-1.981-1.859c-.706-.683-1.4-1.382-1.876-1.945a6.714 6.714 0 00-.828-.925 4.324 4.324 0 00.628 1.09 21.363 21.363 0 001.753 2.123c.68.727 1.374 1.433 1.888 1.968l.844.894s.347.348.845.889a16.2 16.2 0 011.643 2.13 10.668 10.668 0 011.092 2.455 6.671 6.671 0 00.334 1.2 4.017 4.017 0 00-.083-1.255 9.477 9.477 0 00-.941-2.637 15.449 15.449 0 00-1.6-2.3c-.487-.583-.83-.953-.83-.953s-.355-.354-.889-.877zm-37.346 12.48a19.64 19.64 0 01.71 2.6c.184.965.324 1.936.428 2.671s.17 1.223.17 1.223.086.493.246 1.232a19.842 19.842 0 00.749 2.678 12.7 12.7 0 001.237 2.5 4.488 4.488 0 00.792.979 5.874 5.874 0 00-.569-1.113 15.078 15.078 0 01-1.014-2.505 22.909 22.909 0 01-.593-2.635c-.123-.728-.192-1.219-.192-1.219l-.222-1.218a39.777 39.777 0 00-.576-2.684 15.31 15.31 0 00-.926-2.6 4.392 4.392 0 00-.636-1.08 5.9 5.9 0 00.395 1.168z" fill="#8f83ff" opacity=".5" style="mix-blend-mode:multiply;isolation:isolate"/></g></g><path data-name="Path 486" d="M121.999 2.26c.562.318.485 1.519-.174 2.684s-1.645 1.85-2.208 1.533-.485-1.52.173-2.681 1.648-1.852 2.209-1.536z" fill="#c22367" opacity=".5" style="mix-blend-mode:screen;isolation:isolate"/><path data-name="Path 487" d="M99.019 26.175c-.347.541-1.543.4-2.669-.325s-1.755-1.746-1.408-2.29 1.546-.4 2.67.321 1.757 1.749 1.407 2.294z" fill="#c22367" opacity=".5" style="mix-blend-mode:screen;isolation:isolate"/></g></g></g></g></svg>