<svg xmlns="http://www.w3.org/2000/svg" width="175.96" height="181.498" viewBox="0 0 175.96 181.498">
  <g id="baby2" transform="translate(-186.23 -220.675)">
    <g id="Group_153" data-name="Group 153" transform="translate(186.23 359.351)">
      <g id="Group_152" data-name="Group 152">
        <g id="Group_151" data-name="Group 151" opacity="0.2" style="mix-blend-mode: multiply;isolation: isolate">
          <path id="Path_357" data-name="Path 357" d="M186.231,387.814c.193,11.794,39.741,20.671,88.326,19.827s87.825-11.088,87.633-22.884-39.731-20.674-88.326-19.826S186.041,376.017,186.231,387.814Z" transform="translate(-186.23 -364.875)" fill="#fd80a3"/>
        </g>
      </g>
    </g>
    <g id="Group_279" data-name="Group 279" transform="translate(194.716 220.675)">
      <g id="Group_193" data-name="Group 193" transform="translate(0 98.631)">
        <g id="Group_164" data-name="Group 164" transform="translate(105.252 11.792)">
          <g id="Group_161" data-name="Group 161">
            <g id="Group_154" data-name="Group 154">
              <path id="Path_358" data-name="Path 358" d="M341.093,371.434s4.757-3.467,9.884-1.864,8.195,2.883.948,4.145c0,0,6.515,2.474,6.162,6.124s-8.959,2.447-8.959,2.447a18.33,18.33,0,0,1-16.571-1.364c-8.336-5.231-23.045-10.589-27.272-29.054s9.741-18.093,13.79-14.26S328.537,361.617,341.093,371.434Z" transform="translate(-304.498 -335.495)" fill="#f9cbb0"/>
              <path id="Path_359" data-name="Path 359" d="M356.005,376.06a8.525,8.525,0,0,1-15.716-4.6v-.424c0-.083.012-.164.013-.247-11.993-10.029-17.263-29.425-21.227-33.176-4.049-3.833-18.014-4.207-13.79,14.26s18.936,23.823,27.272,29.054a18.33,18.33,0,0,0,16.571,1.364s8.6,1.2,8.959-2.447C358.231,378.356,357.234,377.069,356.005,376.06Z" transform="translate(-304.498 -335.495)" fill="#ffbdc0" opacity="0.4" style="mix-blend-mode: multiply;isolation: isolate"/>
              <path id="Path_360" data-name="Path 360" d="M332.471,379.356a8.778,8.778,0,0,1,6.03-9.434,6.542,6.542,0,0,1,.689-.121c-11.209-10.262-16.277-28.56-20.114-32.192-4.049-3.833-18.014-4.207-13.79,14.26s18.936,23.823,27.272,29.054c.03.019.06.036.09.053.04-.143.1-.282.139-.424a6.758,6.758,0,0,1-.2-.715Z" transform="translate(-304.498 -335.495)" fill="#c22367"/>
              <path id="Path_361" data-name="Path 361" d="M332.471,379.356a7.055,7.055,0,0,1,1.027-5.46,16.044,16.044,0,0,1-10.834-10.115c-1.523-4.173-1.039-9.015.183-13.193a8.7,8.7,0,0,1,1.686-3.146c-2.216-4.64-3.934-8.394-5.458-9.834-4.049-3.833-18.014-4.207-13.79,14.26s18.936,23.823,27.272,29.054c.03.019.06.036.09.053.04-.143.1-.282.139-.424a6.758,6.758,0,0,1-.2-.715Z" transform="translate(-304.498 -335.495)" fill="#8f83ff" opacity="0.3" style="mix-blend-mode: multiply;isolation: isolate"/>
            </g>
            <g id="Group_160" data-name="Group 160" transform="translate(35.886 33.518)">
              <g id="Group_155" data-name="Group 155" transform="translate(0 8.708)">
                <path id="Path_362" data-name="Path 362" d="M341.818,384.548c.029-.034.176.011.393.1a4.786,4.786,0,0,0,.991.164,10.826,10.826,0,0,0,3.061-.315,9.131,9.131,0,0,0,2.792-1.068,2.248,2.248,0,0,0,.362-.29l.277-.3.2-.271c-.035.016.389-.428.333-.844a1.224,1.224,0,0,0-.649-.739,5.846,5.846,0,0,0-1.445-.573,12.863,12.863,0,0,0-3.051-.392,11.786,11.786,0,0,1-1.435.026c-.038-.079.509-.379,1.4-.516a10.669,10.669,0,0,1,3.276.012,6.426,6.426,0,0,1,1.758.526,2.288,2.288,0,0,1,1.281,1.392,2.065,2.065,0,0,1-.2,1.429,4.3,4.3,0,0,1-.244.418l-.3.35c-.1.1-.222.217-.361.351a3.363,3.363,0,0,1-.593.415,10.808,10.808,0,0,1-6.536.878,3.225,3.225,0,0,1-1.028-.42C341.886,384.7,341.791,384.581,341.818,384.548Z" transform="translate(-341.813 -379.404)" fill="#ff6875"/>
              </g>
              <g id="Group_156" data-name="Group 156" transform="translate(5.075 5.243)">
                <path id="Path_363" data-name="Path 363" d="M350.753,383.424a5.557,5.557,0,0,1,1.649-.107,13.84,13.84,0,0,0,3.467-.4,1.972,1.972,0,0,0,1.248-.816,1.357,1.357,0,0,0-.113-1.154,4.331,4.331,0,0,0-.525-.886c-.166-.192-.264-.3-.264-.3a6.056,6.056,0,0,0-1.068-1.024,11.611,11.611,0,0,0-3.039-1.566c-2.4-.888-5.023-1.042-5.019-1.21-.014-.178,2.668-.35,5.28.359a11.849,11.849,0,0,1,3.445,1.467,6.967,6.967,0,0,1,1.354,1.152l.308.4a5.388,5.388,0,0,1,.611,1.2,3.38,3.38,0,0,1,.213.93,2.1,2.1,0,0,1-.276,1.154,2.824,2.824,0,0,1-1.932,1.162,11.691,11.691,0,0,1-3.717.032A4.2,4.2,0,0,1,350.753,383.424Z" transform="translate(-347.091 -375.801)" fill="#ff6875"/>
              </g>
              <g id="Group_157" data-name="Group 157" transform="translate(5.216 6.88)">
                <path id="Path_364" data-name="Path 364" d="M350.125,383.565c.012-.09.534-.1,1.305-.136a11.122,11.122,0,0,0,2.708-.359,1.438,1.438,0,0,0,.911-.6.971.971,0,0,0-.106-.812,3.3,3.3,0,0,0-.4-.666l-.2-.228a4.682,4.682,0,0,0-.813-.8,9.119,9.119,0,0,0-2.354-1.243c-1.87-.719-3.933-.877-3.93-1.043-.012-.178,2.112-.349,4.193.191a9.357,9.357,0,0,1,2.76,1.147,5.746,5.746,0,0,1,1.1.922s.088.118.246.324a4.366,4.366,0,0,1,.491.977,2.661,2.661,0,0,1,.169.767,1.781,1.781,0,0,1-.237.974,2.321,2.321,0,0,1-1.6.954,9.054,9.054,0,0,1-2.958-.015C350.621,383.8,350.116,383.649,350.125,383.565Z" transform="translate(-347.237 -377.502)" fill="#ff6875"/>
              </g>
              <g id="Group_158" data-name="Group 158" transform="translate(3.807 3.38)">
                <path id="Path_365" data-name="Path 365" d="M356.056,383.208c-.008-.043.143-.122.41-.225.133-.049.293-.108.479-.173l.586-.279a5.655,5.655,0,0,0,.632-.389,2.709,2.709,0,0,0,.285-.263.945.945,0,0,0,.246-.3,1.687,1.687,0,0,0,.2-1.5,5.546,5.546,0,0,0-2.029-2.5,8.862,8.862,0,0,0-1.3-.809s-.128-.081-.376-.2-.58-.317-1.017-.5a20.83,20.83,0,0,0-3.3-1.123,24.105,24.105,0,0,0-3.475-.56,5.764,5.764,0,0,1-1.625-.193,3.982,3.982,0,0,1,1.631-.3,17.613,17.613,0,0,1,3.643.176,19.505,19.505,0,0,1,3.56.921c.478.164.859.362,1.133.471a4.638,4.638,0,0,1,.426.2l.408.256a9.294,9.294,0,0,1,1.013.751,6.3,6.3,0,0,1,2.171,3.2,2.452,2.452,0,0,1-.5,2.136,1.5,1.5,0,0,1-.367.357,3.532,3.532,0,0,1-.389.277,5.151,5.151,0,0,1-.774.341l-.671.185-.527.063C356.23,383.256,356.064,383.251,356.056,383.208Z" transform="translate(-345.772 -373.863)" fill="#ff6875"/>
              </g>
              <g id="Group_159" data-name="Group 159" transform="translate(0.845)">
                <path id="Path_366" data-name="Path 366" d="M353.544,375.327c-.023-.027.123-.182.432-.306a7.277,7.277,0,0,1,1.292-.378,11.109,11.109,0,0,0,1.712-.473c.652-.29.552-.41.149-.951l-.023-.033a3.15,3.15,0,0,0-1.341-.863,8.707,8.707,0,0,0-1.471-.4c-.889-.166-1.488-.215-1.488-.215s-.642-.114-1.624-.193a17.123,17.123,0,0,0-3.578.077,11.213,11.213,0,0,0-3.426.991l-.6.3-.44.279c-.25.152-.41.225-.439.194s.071-.17.278-.389l.387-.389c.164-.13.358-.266.569-.419a10.064,10.064,0,0,1,3.517-1.444,16.608,16.608,0,0,1,3.791-.36c1.037.017,1.728.1,1.728.1a15.346,15.346,0,0,1,1.587.326,9.179,9.179,0,0,1,1.625.565,3.936,3.936,0,0,1,1.692,1.329l-.024-.033a3.494,3.494,0,0,1,.316.552c.04.113.081.224.111.342a2.378,2.378,0,0,1-.012.432,1.583,1.583,0,0,1-.191.378c-.1.088-.19.189-.283.261a2.339,2.339,0,0,1-.557.247,9.284,9.284,0,0,1-1.885.289C354.252,375.2,353.591,375.387,353.544,375.327Z" transform="translate(-342.692 -370.349)" fill="#ff6875"/>
              </g>
            </g>
          </g>
          <g id="Group_163" data-name="Group 163" transform="translate(25.628 33.107)">
            <g id="Group_162" data-name="Group 162">
              <path id="Path_367" data-name="Path 367" d="M338.239,370.027c.008.1-.355.186-.834.4a6.35,6.35,0,0,0-1.6,1.017,9.735,9.735,0,0,0-1.308,1.382c-.306.422-.511.7-.511.7s-.214.274-.531.687a13.752,13.752,0,0,0-1.024,1.633c-.707,1.234-1,2.632-1.162,2.628-.075,0-.153-.383-.1-.95a8.033,8.033,0,0,1,.45-2.032,12.267,12.267,0,0,1,1.364-2.72s.249-.3.65-.717a8.991,8.991,0,0,1,1.659-1.338,5.264,5.264,0,0,1,1.99-.766C337.852,369.871,338.24,369.957,338.239,370.027Z" transform="translate(-331.148 -369.921)" fill="#fd80a3"/>
            </g>
          </g>
        </g>
        <g id="Group_171" data-name="Group 171" transform="translate(0 19.51)">
          <g id="Group_165" data-name="Group 165" transform="translate(0.093)">
            <path id="Path_368" data-name="Path 368" d="M244.782,343.521s-4.789,8.17-13.805,9.015-16.621-3.944-23.663,2.253-5.071,12.4-5.071,12.4-6.2,1.408-5.071,4.787c0,0-3.662,2.536-1.126,4.228s9.014,4.789,17.184-5.353c0,0,15.777,14.931,34.934.564S253.8,344.647,244.782,343.521Z" transform="translate(-195.151 -343.521)" fill="#fd80a3"/>
            <path id="Path_369" data-name="Path 369" d="M244.782,343.521s-4.789,8.17-13.805,9.015-16.621-3.944-23.663,2.253-5.071,12.4-5.071,12.4-6.2,1.408-5.071,4.787c0,0-3.662,2.536-1.126,4.228s9.014,4.789,17.184-5.353c0,0,15.777,14.931,34.934.564S253.8,344.647,244.782,343.521Z" transform="translate(-195.151 -343.521)" fill="#fd80a3" opacity="0.4" style="mix-blend-mode: multiply;isolation: isolate"/>
            <path id="Path_370" data-name="Path 370" d="M244.782,343.521a21.23,21.23,0,0,1-8.282,7.452,8.309,8.309,0,0,1,.458,2.56,7.832,7.832,0,0,1-2.267,5.48,11.52,11.52,0,0,1-1.658,1.287c-.086.064-.173.126-.263.186a7.582,7.582,0,0,1-5.964.78,7.729,7.729,0,0,1-5.457-9.282,30.1,30.1,0,0,0-6.906-.328,7.76,7.76,0,0,1,1.03,3.838,7.524,7.524,0,0,1-1.234,4.12c.013-.016.023-.03.037-.047-.017.023-.035.049-.052.073-.173.268-.36.533-.563.789a15.53,15.53,0,0,1-1.088,1.383,7.6,7.6,0,0,1-5.474,2.268,7.782,7.782,0,0,1-4.777-1.661,9.468,9.468,0,0,0-.081,4.768,13.582,13.582,0,0,0-1.682.539c1.515,1.238,1.023,4.354-1.489,4.354a2.2,2.2,0,0,1-2.012-1.118,2.375,2.375,0,0,0,.112,1.014s-3.662,2.536-1.126,4.228,9.014,4.789,17.184-5.353c0,0,15.777,14.931,34.934.564S253.8,344.647,244.782,343.521Z" transform="translate(-195.151 -343.521)" fill="#fd80a3" opacity="0.3" style="mix-blend-mode: multiply;isolation: isolate"/>
          </g>
          <g id="Group_170" data-name="Group 170" transform="translate(0 8.776)">
            <g id="Group_166" data-name="Group 166" transform="translate(6.781)">
              <path id="Path_371" data-name="Path 371" d="M204.2,370.422c-.045.05-.631-.38-1.184-1.31a7.232,7.232,0,0,1-.906-3.819,12.567,12.567,0,0,1,.728-3.865,16.533,16.533,0,0,1,.674-1.653,16.878,16.878,0,0,1,.919-1.516,17.442,17.442,0,0,1,2.5-2.96,11.894,11.894,0,0,1,3.173-2.205,3.209,3.209,0,0,1,1.7-.421,14.8,14.8,0,0,1-1.472.853,13.7,13.7,0,0,0-2.766,2.4,18.127,18.127,0,0,0-2.156,2.955c-.5.861-.776,1.464-.776,1.464a16.575,16.575,0,0,0-.715,1.5,12.384,12.384,0,0,0-.923,3.5,7.342,7.342,0,0,0,.456,3.552C203.829,369.815,204.276,370.353,204.2,370.422Z" transform="translate(-202.104 -352.647)" fill="#c22367"/>
            </g>
            <g id="Group_167" data-name="Group 167" transform="translate(0 19.318)">
              <path id="Path_372" data-name="Path 372" d="M207.731,375.839c.06.041-.278.632-1.056,1.268a9.861,9.861,0,0,1-3.23,1.685,11.757,11.757,0,0,1-3.646.568,8.268,8.268,0,0,1-1.721-.2s-.169-.055-.462-.146a4.582,4.582,0,0,1-1.159-.621,3.363,3.363,0,0,1-1.24-1.471,2.372,2.372,0,0,1,.28-2.226,4.864,4.864,0,0,1,3.194-1.892,2.651,2.651,0,0,1,1.645.08c0,.1-.652.1-1.528.4a4.58,4.58,0,0,0-2.549,1.881,1.4,1.4,0,0,0-.081,1.352,2.384,2.384,0,0,0,.925.918,3.485,3.485,0,0,0,.908.414l.383.1a7.412,7.412,0,0,0,1.458.262,11.591,11.591,0,0,0,3.357-.268,10.978,10.978,0,0,0,3.184-1.227C207.2,376.234,207.653,375.776,207.731,375.839Z" transform="translate(-195.054 -372.735)" fill="#c22367"/>
            </g>
            <g id="Group_168" data-name="Group 168" transform="translate(1.876 14.916)">
              <path id="Path_373" data-name="Path 373" d="M202.947,368.27c.022.173-.991.485-1.88.988a8.958,8.958,0,0,0-1.622,1.144,5.372,5.372,0,0,0-1.373,1.309,4.584,4.584,0,0,0-.571,1.2c-.1.362-.165.632-.259.638s-.188-.257-.227-.687a3.62,3.62,0,0,1,.27-1.57,5.223,5.223,0,0,1,.865-1.364c.3-.32.515-.517.515-.517l.169-.109a4.35,4.35,0,0,1,.451-.27,7.643,7.643,0,0,1,1.442-.6C201.813,368.1,202.929,368.1,202.947,368.27Z" transform="translate(-197.005 -368.157)" fill="#c22367"/>
            </g>
            <g id="Group_169" data-name="Group 169" transform="translate(14.98 13.972)">
              <path id="Path_374" data-name="Path 374" d="M215.513,367.176c.163.024.029,1.221-.453,2.323a14,14,0,0,1-.741,1.443c-.224.38-.379.629-.379.629s-.747.887-1.549,1.7-1.594,1.614-1.738,1.513.417-1.114,1.043-2.068l1.229-1.887s.722-.848,1.355-1.754S215.332,367.142,215.513,367.176Z" transform="translate(-210.63 -367.175)" fill="#c22367"/>
            </g>
          </g>
        </g>
        <g id="Group_175" data-name="Group 175" transform="translate(42.224)">
          <path id="Path_375" data-name="Path 375" d="M318.862,331.262s2.112,15.214-2.959,25.778S299,383.663,267.73,381.549s-36.6-32.668-18.172-46.059,32.962,8.027,49.865-12.256Z" transform="translate(-238.96 -323.234)" fill="#fd80a3"/>
          <path id="Path_376" data-name="Path 376" d="M318.863,331.488l-5.69-2.349a19.577,19.577,0,0,1,.2,2.773v.423a19.943,19.943,0,0,1-5.817,14.046c-5.372,5.374-12.955,5.324-19.4,8.653-7.693,3.971-16.095,9.842-25.071,9.842a20.048,20.048,0,0,1-19.864-19.864,19.215,19.215,0,0,1,.257-3.128c-10.452,14.87-2.849,38.061,24.256,39.892,31.271,2.114,43.1-13.945,48.173-24.509S318.863,331.488,318.863,331.488Z" transform="translate(-238.96 -323.46)" fill="#fd80a3" opacity="0.3" style="mix-blend-mode: multiply;isolation: isolate"/>
          <g id="Group_174" data-name="Group 174" transform="translate(0.251 7.512)">
            <g id="Group_172" data-name="Group 172">
              <path id="Path_377" data-name="Path 377" d="M280.417,335.365a5.765,5.765,0,0,1-1.317-.168l-.684-.04-.387-.025a1.394,1.394,0,0,1-.245-.028l-.212-.048c-.574-.136-1.222-.287-1.929-.452-2.818-.693-6.47-2.033-10.236-2.47a22.285,22.285,0,0,0-2.815-.108l-1.381.039-1.328.153a17.794,17.794,0,0,0-4.589,1.336,16.317,16.317,0,0,0-1.722.841,13.023,13.023,0,0,0-1.271.757,10.37,10.37,0,0,0-1.067.721l-1.039.752-1.124.953c-.431.376-.9.837-1.416,1.321a27.175,27.175,0,0,0-5.983,8.365,26.12,26.12,0,0,0-1.924,10.151c-.01,2.861.209,4.773.1,4.784a5.437,5.437,0,0,1-.263-1.3c-.073-.416-.129-.923-.185-1.509s-.116-1.244-.14-1.968a25.437,25.437,0,0,1,1.591-10.5,27.641,27.641,0,0,1,5.984-8.845c.521-.51.984-.987,1.425-1.39l1.165-1.027,1.08-.816a11.117,11.117,0,0,1,1.142-.742,13.852,13.852,0,0,1,1.36-.77,17.164,17.164,0,0,1,1.839-.849,18.653,18.653,0,0,1,4.9-1.3l1.411-.125,1.439-.006a23.112,23.112,0,0,1,2.925.2c3.905.576,7.508,2.056,10.259,2.882l1.886.559.207.062a.665.665,0,0,0,.168.034l.4.057c.256.037.493.072.7.1A5.384,5.384,0,0,1,280.417,335.365Z" transform="translate(-239.221 -331.045)" fill="#c22367"/>
            </g>
            <g id="Group_173" data-name="Group 173" transform="translate(59.138 2.416)">
              <path id="Path_378" data-name="Path 378" d="M315.734,339.9c.035.056-.419.43-1.227.76a8.169,8.169,0,0,1-3.156.55,12.222,12.222,0,0,1-3.179-.514c-.835-.276-1.383-.5-1.382-.5l-.352-.192a10.14,10.14,0,0,1-.913-.531,14.356,14.356,0,0,1-2.483-1.995,10.641,10.641,0,0,1-1.866-2.556,2.845,2.845,0,0,1-.444-1.364c.1-.04.368.452.863,1.106a12.947,12.947,0,0,0,2.053,2.16,15.129,15.129,0,0,0,2.462,1.647c.344.209.665.317.872.424l.335.156s.118.063.335.157.517.245.894.386a12.465,12.465,0,0,0,2.862.723,9.173,9.173,0,0,0,2.953-.128C315.16,340.021,315.684,339.8,315.734,339.9Z" transform="translate(-300.715 -333.558)" fill="#c22367"/>
            </g>
          </g>
          <path id="Path_379" data-name="Path 379" d="M262.725,334.3c-.05.614-1.117,1.251-2.381,1.424s-2.25-.181-2.2-.793,1.119-1.251,2.384-1.425S262.778,333.683,262.725,334.3Z" transform="translate(-239.695 -323.626)" fill="#c87568" style="mix-blend-mode: screen;isolation: isolate"/>
        </g>
        <path id="Path_380" data-name="Path 380" d="M318.492,336.623a7.217,7.217,0,0,0,.7-4.468l-16.052-7.713a9.264,9.264,0,0,0-1.75,5.387C301.393,338.815,315.053,342.718,318.492,336.623Z" transform="translate(-199.127 -323.28)" fill="#f9cbb0"/>
        <path id="Path_381" data-name="Path 381" d="M307.205,338.277a17.507,17.507,0,0,1,11.3-1.7,7.228,7.228,0,0,0,.685-4.426l-16.052-7.713a9.264,9.264,0,0,0-1.75,5.387C301.393,333.748,303.99,336.7,307.205,338.277Z" transform="translate(-199.127 -323.28)" fill="#ffbdc0" opacity="0.4" style="mix-blend-mode: multiply;isolation: isolate"/>
        <g id="Group_185" data-name="Group 185" transform="translate(87.897 16.709)">
          <g id="Group_182" data-name="Group 182">
            <g id="Group_176" data-name="Group 176">
              <path id="Path_382" data-name="Path 382" d="M319.836,386.018s5.915-2.535,10.987.424,8.028,5.07,0,4.648c0,0,6.339,4.225,5.071,8.028s-10.143.423-10.143.423a20.036,20.036,0,0,1-17.325-5.493c-7.606-7.606-21.975-16.9-21.975-37.611s14.79-16.9,18.171-11.831S308.849,372.5,319.836,386.018Z" transform="translate(-286.452 -340.609)" fill="#f9cbb0"/>
              <path id="Path_383" data-name="Path 383" d="M334.363,394.282a7.77,7.77,0,0,1-6.92,3.667c-7.026,0-9.568-6.937-7.642-11.976-10.953-13.529-11.8-36.3-15.177-41.366s-18.171-8.876-18.171,11.831,14.369,30,21.975,37.611a20.036,20.036,0,0,0,17.325,5.493s8.875,3.38,10.143-.423C336.448,397.459,335.55,395.716,334.363,394.282Z" transform="translate(-286.452 -340.609)" fill="#ffbdc0" opacity="0.4" style="mix-blend-mode: multiply;isolation: isolate"/>
              <path id="Path_384" data-name="Path 384" d="M308.715,392.358a9.6,9.6,0,0,1,8.726-8.584,7.419,7.419,0,0,1,.763.039c-9.44-13.667-10.378-34.4-13.581-39.206-3.381-5.072-18.171-8.876-18.171,11.831s14.369,30,21.975,37.611c.027.027.054.051.082.078.08-.144.171-.277.252-.418a8.054,8.054,0,0,1-.045-.811Z" transform="translate(-286.452 -340.609)" fill="#c22367"/>
              <path id="Path_385" data-name="Path 385" d="M310.379,380.742c-16.6-6.274-18.092-25.627-8.48-38.576-5.432-3.206-15.447-2.771-15.447,14.272,0,20.707,14.369,30,21.975,37.611.027.027.054.051.082.078.08-.144.171-.277.252-.418a8.055,8.055,0,0,1-.045-.811v-.54a9.6,9.6,0,0,1,8.726-8.584,7.427,7.427,0,0,1,.763.039c-.765-1.108-1.47-2.266-2.128-3.456A7.177,7.177,0,0,1,310.379,380.742Z" transform="translate(-286.452 -340.609)" fill="#8f83ff" opacity="0.3" style="mix-blend-mode: multiply;isolation: isolate"/>
            </g>
            <g id="Group_181" data-name="Group 181" transform="translate(31.411 43.945)">
              <g id="Group_177" data-name="Group 177" transform="translate(5.564 3.37)">
                <path id="Path_386" data-name="Path 386" d="M332.929,402.377c.019-.039.211-.02.506.04l.554.024c.214-.01.455-.031.713-.064a4.64,4.64,0,0,0,1.62-.6c.113-.1.23-.191.347-.289a4.223,4.223,0,0,0,.257-.342,1.24,1.24,0,0,0,.121-.794,5.563,5.563,0,0,0-.711-1.835,16.07,16.07,0,0,0-2.048-2.91,15.449,15.449,0,0,0-1.141-1.359,13.781,13.781,0,0,0-2.882-2.557,9.541,9.541,0,0,0-3.573-1.38,11.169,11.169,0,0,0-1.288-.171c-.315-.038-.5-.081-.5-.123s.178-.087.5-.131a6,6,0,0,1,1.344-.062,9.058,9.058,0,0,1,3.97,1.1,13.84,13.84,0,0,1,3.273,2.524,15.755,15.755,0,0,1,1.275,1.36,15.977,15.977,0,0,1,2.016,3.259,6.18,6.18,0,0,1,.657,2.212,2.06,2.06,0,0,1-.329,1.3,4.078,4.078,0,0,1-.429.472l-.492.338a4.8,4.8,0,0,1-1.938.484,6.736,6.736,0,0,1-.786-.05c-.231-.056-.428-.1-.586-.151C333.066,402.516,332.911,402.415,332.929,402.377Z" transform="translate(-324.9 -389.808)" fill="#ff6875"/>
              </g>
              <g id="Group_178" data-name="Group 178" transform="translate(9.579 8.07)">
                <path id="Path_387" data-name="Path 387" d="M336.365,402.142c-.055-.1.4-.243.289-.666a4.237,4.237,0,0,0-.92-1.579,19.524,19.524,0,0,0-1.325-1.459c-.379-.388-.645-.613-.645-.613s-.225-.269-.6-.632a9.318,9.318,0,0,0-1.484-1.2,7.414,7.414,0,0,0-1.73-.818c-.507-.146-.872-.233-.872-.328,0-.078.373-.161.954-.156a5.85,5.85,0,0,1,2.066.515,8.793,8.793,0,0,1,1.823,1.1,8.442,8.442,0,0,1,.74.623s.272.283.62.733a14.926,14.926,0,0,1,1.191,1.726,3.819,3.819,0,0,1,.675,2.1.934.934,0,0,1-.177.452c-.115.092-.2.19-.3.2C336.474,402.189,336.376,402.182,336.365,402.142Z" transform="translate(-329.075 -394.695)" fill="#ff6875"/>
              </g>
              <g id="Group_179" data-name="Group 179" transform="translate(6.187 10.898)">
                <path id="Path_388" data-name="Path 388" d="M325.56,400.247c.08-.054.406.311,1.043.666a9.991,9.991,0,0,0,2.447,1,5.911,5.911,0,0,0,2.486.191,3.148,3.148,0,0,0,.385-.1l.3-.144c.157-.09.24-.142.24-.142-.036.01.444-.21.486-.477a.992.992,0,0,0-.281-.748,4.92,4.92,0,0,0-.95-.923,11.644,11.644,0,0,0-2.277-1.344c-.664-.308-1.141-.419-1.134-.51s.535-.135,1.288.045a9.2,9.2,0,0,1,2.624,1.072,5.538,5.538,0,0,1,1.25.989,2.05,2.05,0,0,1,.631,1.556,1.719,1.719,0,0,1-.639,1.156,2.312,2.312,0,0,1-.348.261s-.133.073-.366.182c-.117.05-.261.1-.425.162a4.051,4.051,0,0,1-.616.119,6.563,6.563,0,0,1-2.931-.491,8.322,8.322,0,0,1-2.46-1.454C325.713,400.792,325.491,400.284,325.56,400.247Z" transform="translate(-325.548 -397.635)" fill="#ff6875"/>
              </g>
              <g id="Group_180" data-name="Group 180">
                <path id="Path_389" data-name="Path 389" d="M333.341,392.982a3.868,3.868,0,0,1,1.769-.678c.273-.065.568-.132.842-.224.3-.106.435-.214.424-.379a2.135,2.135,0,0,0-.319-.8l-.133-.222a.576.576,0,0,0-.138-.163l-.344-.352a12.932,12.932,0,0,0-3.453-1.821c-.506-.193-.941-.33-1.237-.415s-.47-.127-.47-.127l-.464-.1a6.566,6.566,0,0,0-1.242-.214,13.678,13.678,0,0,0-3.9.211,23.211,23.211,0,0,0-3.821,1.186,7.441,7.441,0,0,1-1.742.651,5,5,0,0,1,1.527-1.092,18.382,18.382,0,0,1,3.829-1.61,13.838,13.838,0,0,1,4.193-.5,7.6,7.6,0,0,1,1.414.166l.537.092s.189.052.514.166.772.28,1.3.515a13.032,13.032,0,0,1,3.623,2.246l.4.48a1.037,1.037,0,0,1,.19.282l.13.262a2.552,2.552,0,0,1,.306,1.236.9.9,0,0,1-.4.652,1.446,1.446,0,0,1-.561.232,8.061,8.061,0,0,1-.926.133A15.16,15.16,0,0,1,333.341,392.982Z" transform="translate(-319.114 -386.304)" fill="#ff6875"/>
              </g>
            </g>
          </g>
          <g id="Group_184" data-name="Group 184" transform="translate(19.863 41.095)">
            <g id="Group_183" data-name="Group 183">
              <path id="Path_390" data-name="Path 390" d="M317.246,383.43c.014.17-1.721.525-3.292,1.291a16.345,16.345,0,0,0-2.075,1.151c-.534.356-.869.613-.869.613s-.349.234-.853.613a8.968,8.968,0,0,0-1.6,1.633,6.164,6.164,0,0,0-.96,2.073c-.143.618-.174,1.069-.277,1.077-.07.009-.21-.437-.209-1.139a5.6,5.6,0,0,1,.691-2.482,8.921,8.921,0,0,1,1.595-2.036c.516-.475.887-.764.887-.764s.4-.258,1.011-.589a14.408,14.408,0,0,1,2.344-.981C315.388,383.3,317.24,383.254,317.246,383.43Z" transform="translate(-307.107 -383.34)" fill="#fd80a3"/>
            </g>
          </g>
        </g>
        <g id="Group_192" data-name="Group 192" transform="translate(11.584 26.621)">
          <path id="Path_391" data-name="Path 391" d="M222.557,382.219s4.918,17.44,22.8,12.968,28.173-18.783,21.912-35.327-29.512-8.5-29.962,10.732c0,0-4.471-12.521-12.967-9.837a10.98,10.98,0,0,0-8.048,10.733s-6.709,3.128-4.473,6.707c0,0-6.708,2.235-3.131,5.366S217.638,385.8,222.557,382.219Z" transform="translate(-207.12 -350.915)" fill="#fd80a3"/>
          <path id="Path_392" data-name="Path 392" d="M267.274,359.861c-2.462-6.509-7.555-9.2-12.853-8.911a13.225,13.225,0,0,1-1.978,26.3h-.281a13.235,13.235,0,0,1-13.233-13.234,12.959,12.959,0,0,1,.1-1.534,21.89,21.89,0,0,0-1.716,8.109s-1.93-5.407-5.666-8.352a6.478,6.478,0,0,1,1.209,3.75,6.268,6.268,0,0,1-.489,2.441c-.007.029-.01.059-.018.088a6.356,6.356,0,0,1-1.619,2.773,5.593,5.593,0,0,1-3.072,1.9,5.052,5.052,0,0,1-1.95.2c-.028,0-.055,0-.082,0a6.353,6.353,0,0,1-2.472-.175l-1.512-.638a6.316,6.316,0,0,1-1.812-9.319,11.141,11.141,0,0,0-3.531,8.225s-6.709,3.128-4.473,6.707c0,0-6.708,2.235-3.131,5.366s8.945,2.236,13.864-1.342c0,0,4.918,17.44,22.8,12.968S273.534,376.405,267.274,359.861Z" transform="translate(-207.12 -350.916)" fill="#fd80a3" opacity="0.3" style="mix-blend-mode: multiply;isolation: isolate"/>
          <g id="Group_191" data-name="Group 191" transform="translate(0 0.094)">
            <g id="Group_186" data-name="Group 186" transform="translate(0 27.128)">
              <path id="Path_393" data-name="Path 393" d="M218.617,384.821c.047.068-.483.471-1.391.793a15.69,15.69,0,0,1-3.415.8,12.615,12.615,0,0,1-3.578-.018,4.811,4.811,0,0,1-1.665-.556,2.439,2.439,0,0,1-.385-.263c-.114-.112-.251-.25-.413-.412a4.772,4.772,0,0,1-.4-.691c.008.017.018.042.031.067-.078-.2-.165-.407-.235-.634a3.02,3.02,0,0,1-.053-.756,3.108,3.108,0,0,1,.533-1.48,5.923,5.923,0,0,1,2.328-1.881,5.5,5.5,0,0,1,2.326-.57c.629.014.985.2.966.246-.021.079-.381.035-.933.133a6.181,6.181,0,0,0-2.021.822,5.415,5.415,0,0,0-1.828,1.771,1.707,1.707,0,0,0-.058,1.779l.032.066a1.606,1.606,0,0,0,.755.717,3.466,3.466,0,0,0,1.258.5,12.627,12.627,0,0,0,3.274.266,21.323,21.323,0,0,0,3.351-.384A10.958,10.958,0,0,1,218.617,384.821Z" transform="translate(-207.099 -379.222)" fill="#c22367"/>
            </g>
            <g id="Group_187" data-name="Group 187" transform="translate(3.766 20.228)">
              <path id="Path_394" data-name="Path 394" d="M217.358,372.151c.009.1-.3.194-.724.4a9.6,9.6,0,0,0-1.474.84,10,10,0,0,0-1.8,1.614s-.21.2-.519.522a5.315,5.315,0,0,0-.875,1.322,3.24,3.24,0,0,0-.276,1.544c.035.44.128.759.038.8-.062.039-.312-.2-.515-.69a3.214,3.214,0,0,1-.093-1.93,5.625,5.625,0,0,1,.8-1.758c.308-.42.531-.688.531-.688a9.22,9.22,0,0,1,2.274-1.516,6.221,6.221,0,0,1,1.781-.537C217.011,372.008,217.354,372.076,217.358,372.151Z" transform="translate(-211.015 -372.047)" fill="#c22367"/>
            </g>
            <g id="Group_188" data-name="Group 188" transform="translate(28.533)">
              <path id="Path_395" data-name="Path 395" d="M265.322,355.569c-.037.024-.3-.225-.713-.673a4.934,4.934,0,0,0-.8-.759,7.1,7.1,0,0,0-1.139-.839,7.49,7.49,0,0,0-1.488-.745,7.361,7.361,0,0,0-.855-.306c-.3-.068-.61-.14-.923-.213a12.434,12.434,0,0,0-4.02-.056,19.61,19.61,0,0,0-7.114,2.532A18.865,18.865,0,0,0,246.2,355.9l-.552.424-.184.164s-.26.22-.715.6a16.759,16.759,0,0,0-1.659,1.8,25.07,25.07,0,0,0-3.486,6.718,56.528,56.528,0,0,0-2.036,7.432,28.5,28.5,0,0,1-.772,3.447,17.125,17.125,0,0,1,.289-3.531,47.4,47.4,0,0,1,1.676-7.631,25.243,25.243,0,0,1,3.4-7.131,17.7,17.7,0,0,1,1.746-2.008l.753-.67s.07-.058.2-.17.342-.249.6-.438a19.578,19.578,0,0,1,2.24-1.409,20.134,20.134,0,0,1,7.582-2.407,12.845,12.845,0,0,1,4.27.255c.33.093.654.188.972.278a7.318,7.318,0,0,1,.892.377,7.561,7.561,0,0,1,1.525.89,6.963,6.963,0,0,1,1.12.971,4.409,4.409,0,0,1,.735.867C265.169,355.243,265.358,355.544,265.322,355.569Z" transform="translate(-236.769 -351.013)" fill="#c22367"/>
            </g>
            <g id="Group_189" data-name="Group 189" transform="translate(9.146 8.192)">
              <path id="Path_396" data-name="Path 396" d="M236.791,367.432a13.521,13.521,0,0,1-1.436-1.831,15.584,15.584,0,0,0-3.536-3.494,7.715,7.715,0,0,0-4.509-1.4,5.008,5.008,0,0,0-.884.062,3.845,3.845,0,0,0-.668.112l-.564.137s-.2.07-.552.187a3.5,3.5,0,0,0-.62.259,5.269,5.269,0,0,0-.775.419,12.186,12.186,0,0,0-3.477,3.373,19.482,19.482,0,0,0-2.335,4.4,18.731,18.731,0,0,1-.793,2.168,6.133,6.133,0,0,1,.327-2.318,17.288,17.288,0,0,1,2.064-4.744,12.7,12.7,0,0,1,3.585-3.853,6.119,6.119,0,0,1,.868-.52,4.506,4.506,0,0,1,.711-.334l.646-.244.684-.138a4.792,4.792,0,0,1,.782-.1,6.2,6.2,0,0,1,1.016-.024,8.563,8.563,0,0,1,5.012,1.842,14.4,14.4,0,0,1,3.423,3.938A7.217,7.217,0,0,1,236.791,367.432Z" transform="translate(-216.61 -359.531)" fill="#c22367"/>
            </g>
            <g id="Group_190" data-name="Group 190" transform="translate(14.323 27.938)">
              <path id="Path_397" data-name="Path 397" d="M257.782,390.91a16.839,16.839,0,0,1-2.973,2,37.167,37.167,0,0,1-7.194,3.285,23.617,23.617,0,0,1-7.9,1.156l-1.5-.122c-.445-.05-.829-.133-1.148-.18a8.709,8.709,0,0,1-.991-.2l-.969-.279a9.675,9.675,0,0,1-1.087-.382c-.414-.17-.891-.315-1.384-.572a16.264,16.264,0,0,1-6.14-5.087,25.489,25.489,0,0,1-3.62-7.007,14.043,14.043,0,0,1-.867-3.461c.1-.027.511,1.334,1.324,3.286a27.354,27.354,0,0,0,3.86,6.632,15.551,15.551,0,0,0,5.917,4.58c.459.222.924.35,1.316.5a8.642,8.642,0,0,0,1.033.332l.915.237a7.732,7.732,0,0,0,.926.209c.3.054.654.14,1.071.2s.892.1,1.408.157a23.271,23.271,0,0,0,7.588-.852,42.006,42.006,0,0,0,7.216-2.862A30.147,30.147,0,0,1,257.782,390.91Z" transform="translate(-221.993 -380.065)" fill="#c22367"/>
            </g>
          </g>
          <path id="Path_398" data-name="Path 398" d="M246.249,394.058c-.05.613-1.118,1.251-2.384,1.423s-2.249-.181-2.2-.792,1.119-1.252,2.383-1.426S246.3,393.444,246.249,394.058Z" transform="translate(-208.423 -352.536)" fill="#c87568" style="mix-blend-mode: screen;isolation: isolate"/>
        </g>
      </g>
      <g id="Group_278" data-name="Group 278" transform="translate(56.062)">
        <g id="Group_206" data-name="Group 206" transform="translate(0 11.178)">
          <g id="Group_199" data-name="Group 199">
            <path id="Path_399" data-name="Path 399" d="M283.18,240.417a45.812,45.812,0,0,1-8.088,4.808c-6.826,3.533-12.814,8.618-15.772,16.225-5.97,15.369-.852,27.395-1.706,29.621s-4.264-1.113-4.264-1.113-.213,8.463,7.037,8.241,12.8-10.692,12.8-10.692c2.413-4.555,2.477-11.394,3.893-16.34,2.293-8.015,9.439-14.295,14.877-20.057,2.579-2.73,4.5-4.374,8.105-4.992a55.482,55.482,0,0,0,12.527-4.21c1.736-.753,2.826-1.249,1.918-3.162-1.952-4.107-7.542-4.488-11.364-4.5-4.729-.011-10.161-.241-13.985,3.281,1.164-1.845-.062-4.083-1.642-5.232C287.5,235.807,285.657,238.385,283.18,240.417Z" transform="translate(-253.349 -232.298)" fill="#c87568"/>
            <path id="Path_400" data-name="Path 400" d="M256.469,281.821c.334,5.889,1.606,9.945,1.145,11.147-.852,2.227-4.264-1.113-4.264-1.113s-.213,8.463,7.037,8.241,12.8-10.692,12.8-10.692c.2-.381.387-.783.559-1.2C267.272,287.65,260.843,285.88,256.469,281.821Z" transform="translate(-253.349 -234.195)" fill="#c87568" opacity="0.2" style="mix-blend-mode: multiply;isolation: isolate"/>
            <path id="Path_401" data-name="Path 401" d="M314.837,238.745c-1.952-4.107-7.542-4.488-11.364-4.5-4.729-.011-10.161-.241-13.985,3.281,1.164-1.845-.062-4.083-1.642-5.232-.009,3.509-1.854,6.088-4.331,8.119a45.807,45.807,0,0,1-8.088,4.808A34.077,34.077,0,0,0,262.1,256.683a29.147,29.147,0,0,0,10.671,7.679,38.5,38.5,0,0,0,6.611,2.089c3.186-5.848,8.58-10.759,12.9-15.341,2.579-2.73,4.5-4.374,8.105-4.992a55.484,55.484,0,0,0,12.527-4.21C314.656,241.154,315.746,240.658,314.837,238.745Z" transform="translate(-253.685 -232.298)" fill="#c87568" opacity="0.2" style="mix-blend-mode: multiply;isolation: isolate"/>
            <g id="Group_198" data-name="Group 198" transform="translate(0.385 4.836)">
              <g id="Group_194" data-name="Group 194" transform="translate(0 46.556)">
                <path id="Path_402" data-name="Path 402" d="M261.253,285.737a16.748,16.748,0,0,1-.166,3.832,11.653,11.653,0,0,1-.64,2.612,6.157,6.157,0,0,1-.566,1.126,1.921,1.921,0,0,1-.214.281,4.6,4.6,0,0,1-.654.668,3.719,3.719,0,0,1-2.669.812A2.873,2.873,0,0,1,254,293.7a1.625,1.625,0,0,1-.215-1.2,7.646,7.646,0,0,0,.478,1.042,2.57,2.57,0,0,0,2.105.966,3.141,3.141,0,0,0,2.164-.8,3.832,3.832,0,0,0,.515-.59,1.529,1.529,0,0,0,.171-.247,5.527,5.527,0,0,0,.551-.97,11.924,11.924,0,0,0,.762-2.424C260.915,287.632,261.122,285.72,261.253,285.737Z" transform="translate(-253.75 -285.737)" fill="#963e35"/>
              </g>
              <g id="Group_195" data-name="Group 195" transform="translate(5.805 9.08)">
                <path id="Path_403" data-name="Path 403" d="M259.795,273.256a2.818,2.818,0,0,1,.109-.748c.1-.473.249-1.147.424-1.958.221-.8.548-1.708.869-2.7.351-.974.83-1.973,1.258-3,.492-.99,1.03-1.961,1.513-2.881.552-.879,1.069-1.7,1.512-2.4.465-.69.9-1.234,1.176-1.629s.452-.615.452-.615a6.68,6.68,0,0,1,.476-.593l1.332-1.5a49.792,49.792,0,0,1,4.4-4.174,22.783,22.783,0,0,1,4.974-3.475,10.392,10.392,0,0,1,1.891-.67,2.862,2.862,0,0,1,.745-.143,2.929,2.929,0,0,1-.7.3,13.3,13.3,0,0,0-1.8.793,24.412,24.412,0,0,0-4.741,3.62,52.467,52.467,0,0,0-4.227,4.243l-1.274,1.5a6.708,6.708,0,0,0-.455.591l-.457.593c-.285.382-.72.908-1.192,1.574-.454.681-.983,1.474-1.549,2.326-.5.89-1.055,1.832-1.573,2.793-.455.99-.964,1.961-1.348,2.908-.356.959-.723,1.845-.988,2.624-.233.786-.427,1.443-.564,1.9A2.941,2.941,0,0,1,259.795,273.256Z" transform="translate(-259.787 -246.768)" fill="#963e35"/>
              </g>
              <g id="Group_196" data-name="Group 196" transform="translate(7.616 24.58)">
                <path id="Path_404" data-name="Path 404" d="M269.586,262.888c.089.088-1.421,1.719-2.721,3.5-.6.921-1.258,1.806-1.625,2.544l-.667,1.193-.61,1.218a25.1,25.1,0,0,0-1.157,2.77c-.688,2.084-.972,4.281-1.108,4.268a5.227,5.227,0,0,1,.042-1.4,20.071,20.071,0,0,1,.527-3.032,23.037,23.037,0,0,1,1.027-2.915c.345-.772.576-1.287.576-1.287l.742-1.2a27.312,27.312,0,0,1,1.807-2.507A19.211,19.211,0,0,1,269.586,262.888Z" transform="translate(-261.669 -262.886)" fill="#963e35"/>
              </g>
              <g id="Group_197" data-name="Group 197" transform="translate(34.124)">
                <path id="Path_405" data-name="Path 405" d="M315.577,239.371c-.045.143-3.3-.845-6.661-1.191-.84-.061-1.683-.078-2.47-.118-.393-.011-.775-.051-1.135-.036l-1.016.057-2.1.115-2.076.264a38.445,38.445,0,0,0-4.524.9c-3.24.921-6.3,2.385-6.364,2.257a12.1,12.1,0,0,1,1.868-1.018,30.39,30.39,0,0,1,8.908-2.869l2.118-.331,2.148-.056,1.039-.024c.37,0,.758.05,1.159.076.8.07,1.659.121,2.509.219a32.734,32.734,0,0,1,4.584,1.037A12.059,12.059,0,0,1,315.577,239.371Z" transform="translate(-289.233 -237.327)" fill="#963e35"/>
              </g>
            </g>
          </g>
          <g id="Group_205" data-name="Group 205" transform="translate(56.903 4.412)">
            <path id="Path_406" data-name="Path 406" d="M312.594,236.889s25.145,6.551,31.06,17.961c0,0,2.323,1.689,2.747-1.268,0,0,2.536,3.38-.634,4.226.832-.222,3.5,8.692,3.657,9.349,1.4,5.9.175,11.6-.2,17.519-.086,1.345-.372,3.363.8,4.365,1.353,1.152,3.182.18,2.37-1.636.772,1.221,1.887,1.4,2.251,2.724.67,2.438-1.944,3.524-3.816,4-2.571.649-4.073-.194-5.178-2.443-2.868-5.837-2.269-12.836-5.725-18.444-3.167-5.14-8.277-9.545-12.208-14.125-3.95-4.6-7.9-9.259-11.4-14.218C316.023,244.476,311.918,236.713,312.594,236.889Z" transform="translate(-312.519 -236.886)" fill="#c87568"/>
            <path id="Path_407" data-name="Path 407" d="M312.594,236.889s25.145,6.551,31.06,17.961c0,0,2.323,1.689,2.747-1.268,0,0,2.536,3.38-.634,4.226.832-.222,3.5,8.692,3.657,9.349,1.4,5.9.175,11.6-.2,17.519-.086,1.345-.372,3.363.8,4.365,1.353,1.152,3.182.18,2.37-1.636.772,1.221,1.887,1.4,2.251,2.724.67,2.438-1.944,3.524-3.816,4-2.571.649-4.073-.194-5.178-2.443-2.868-5.837-2.269-12.836-5.725-18.444-3.167-5.14-8.277-9.545-12.208-14.125-3.95-4.6-7.9-9.259-11.4-14.218C316.023,244.476,311.918,236.713,312.594,236.889Z" transform="translate(-312.519 -236.886)" fill="#c87568" opacity="0.2" style="mix-blend-mode: multiply;isolation: isolate"/>
            <g id="Group_204" data-name="Group 204" transform="translate(20.71 8.378)">
              <g id="Group_200" data-name="Group 200">
                <path id="Path_408" data-name="Path 408" d="M348,255.324c.015.02-.089.12-.292.278a2.858,2.858,0,0,1-.951.5,2.378,2.378,0,0,1-1.557-.033,4.057,4.057,0,0,1-1.478-.989,19.933,19.933,0,0,1-1.953-2.537,8.376,8.376,0,0,0-.626-.791l-.249-.292a2.948,2.948,0,0,0-.243-.3l-.669-.771a26.436,26.436,0,0,0-2.226-2.162,20.062,20.062,0,0,0-2.489-1.86,7.3,7.3,0,0,1-1.211-.761,4.487,4.487,0,0,1,1.36.489,16.181,16.181,0,0,1,2.694,1.694,24.268,24.268,0,0,1,2.4,2.094c.3.315.55.579.724.764a3.431,3.431,0,0,1,.267.3l.25.319a9.077,9.077,0,0,1,.625.868,21.446,21.446,0,0,0,1.752,2.558,3.682,3.682,0,0,0,1.232.962,2.1,2.1,0,0,0,1.32.145C347.484,255.623,347.959,255.25,348,255.324Z" transform="translate(-334.054 -245.597)" fill="#963e35"/>
              </g>
              <g id="Group_201" data-name="Group 201" transform="translate(8.157 10.426)">
                <path id="Path_409" data-name="Path 409" d="M348.609,256.865c.069.081-.578.718-1.412,1.115a5.305,5.305,0,0,1-1.2.411,4.025,4.025,0,0,1-.587.086,4.915,4.915,0,0,1-.6-.062,3.322,3.322,0,0,1-1.223-.481,2.821,2.821,0,0,1-.87-.94c-.156-.31-.214-.527-.169-.551s.2.138.417.365a3.334,3.334,0,0,0,.9.637,2.971,2.971,0,0,0,1.035.241c.292.01.488,0,.488,0a5.448,5.448,0,0,0,1.6-.224C347.8,257.229,348.538,256.777,348.609,256.865Z" transform="translate(-342.536 -256.439)" fill="#963e35"/>
              </g>
              <g id="Group_202" data-name="Group 202" transform="translate(10.7 15.077)">
                <path id="Path_410" data-name="Path 410" d="M349.132,281.42a6.664,6.664,0,0,1-.1-1.661c.008-1,.088-2.323.16-3.638a32.451,32.451,0,0,0,.025-3.6,9.613,9.613,0,0,0-.107-1.163c-.038-.277-.057-.436-.057-.436a2.788,2.788,0,0,0-.061-.434c-.065-.272-.156-.661-.265-1.129a24.682,24.682,0,0,0-1.248-3.344c-1.1-2.373-2.405-4.683-2.291-4.744a7.338,7.338,0,0,1,.955,1.354c.536.833,1.218,1.966,1.841,3.143a23.035,23.035,0,0,1,1.444,3.382c.137.49.249.9.328,1.187a2.617,2.617,0,0,1,.082.461s.018.169.046.467a10.048,10.048,0,0,1,.065,1.226,29.394,29.394,0,0,1-.2,3.668c-.15,1.313-.3,2.626-.411,3.612A8.427,8.427,0,0,1,349.132,281.42Z" transform="translate(-345.181 -261.275)" fill="#963e35"/>
              </g>
              <g id="Group_203" data-name="Group 203" transform="translate(16.031 42.265)">
                <path id="Path_411" data-name="Path 411" d="M355.259,290.25c.055,0,.079.233.079.588a2.383,2.383,0,0,1-.414,1.281,1.476,1.476,0,0,1-1.372.578,2.456,2.456,0,0,1-.643-.157l-.155-.082a2.263,2.263,0,0,1-.38-.248,4.558,4.558,0,0,1-.933-.938,2.663,2.663,0,0,1-.689-1.726c.1-.028.477.772,1.113,1.356a4.566,4.566,0,0,0,.911.7,2.5,2.5,0,0,0,.446.21c-.023-.021.755.479,1.278-.059C355.046,291.215,355.123,290.209,355.259,290.25Z" transform="translate(-350.724 -289.545)" fill="#963e35"/>
              </g>
            </g>
          </g>
        </g>
        <g id="Group_254" data-name="Group 254" transform="translate(3.66 25.383)">
          <g id="Group_220" data-name="Group 220">
            <g id="Group_219" data-name="Group 219">
              <g id="Group_218" data-name="Group 218">
                <g id="Group_216" data-name="Group 216">
                  <g id="Group_215" data-name="Group 215">
                    <g id="Group_214" data-name="Group 214">
                      <g id="Group_213" data-name="Group 213">
                        <g id="Group_212" data-name="Group 212">
                          <g id="Group_211" data-name="Group 211">
                            <g id="Group_210" data-name="Group 210">
                              <path id="Path_412" data-name="Path 412" d="M324.743,250.025c21.4,7.047,20.348,26.47,21.966,39.938,14.563,23.766-3.041,39.167-21.592,42.011-19.727,3.022-39.166-7.39-43.986-17.171,0,0-2.347,8.364-12.444,4.376-7.934-3.126-15.126-15.742-9.561-21.32,6.766-6.776,13.629-.425,13.629-.425s-14.622-26.881,10.733-43.846C283.487,253.588,299.479,241.706,324.743,250.025Z" transform="translate(-257.156 -247.069)" fill="#f9cbb0"/>
                              <path id="Path_413" data-name="Path 413" d="M324.743,250.025c21.4,7.047,20.348,26.47,21.966,39.938,14.563,23.766-3.041,39.167-21.592,42.011-19.727,3.022-39.166-7.39-43.986-17.171,0,0-2.347,8.364-12.444,4.376-7.934-3.126-15.126-15.742-9.561-21.32,6.766-6.776,13.629-.425,13.629-.425s-14.622-26.881,10.733-43.846C283.487,253.588,299.479,241.706,324.743,250.025Z" transform="translate(-257.156 -247.069)" fill="#f9cbb0"/>
                              <g id="Group_207" data-name="Group 207" transform="translate(3.455 11.283)" opacity="0.6" style="mix-blend-mode: screen;isolation: isolate">
                                <path id="Path_414" data-name="Path 414" d="M347.714,290.413c-1.168-9.735-.951-22.579-8.815-31.612,6.375,8.876,6.263,20.672,7.357,29.763,14.562,23.763-3.04,39.164-21.591,42.006-17.062,2.615-33.905-4.82-41.264-13.206,6.355,9.1,24.413,17.867,42.721,15.06C344.673,329.58,362.277,314.179,347.714,290.413Z" transform="translate(-261.616 -258.801)" fill="#f9b799"/>
                                <path id="Path_415" data-name="Path 415" d="M279.808,315.555s-2.345,8.362-12.44,4.373a17.85,17.85,0,0,1-6.62-4.938,19.176,19.176,0,0,0,8.076,6.791c8.827,3.487,11.729-2.467,12.32-4.017A16.489,16.489,0,0,1,279.808,315.555Z" transform="translate(-260.748 -260.953)" fill="#f9b799"/>
                              </g>
                              <path id="Path_416" data-name="Path 416" d="M330.73,329.653c.059.473.841.666,1.767.408s1.623-.846,1.574-1.324-.837-.663-1.761-.4S330.687,329.18,330.73,329.653Z" transform="translate(-259.974 -250.177)" fill="#f9c584" opacity="0.6" style="mix-blend-mode: screen;isolation: isolate"/>
                              <g id="Group_209" data-name="Group 209" transform="translate(4.485 49.123)">
                                <path id="Path_417" data-name="Path 417" d="M261.824,306.751s-.075-5.157,2.906-4.855,9.118,6.853,9.118,6.853-3.743-.375-2.884,2.627,4.652,4.51,4.652,4.51-.719,3.558-3.828,2.929S261.619,311.79,261.824,306.751Z" transform="translate(-261.819 -298.292)" fill="#ffbdc0" opacity="0.5" style="mix-blend-mode: multiply;isolation: isolate"/>
                                <g id="Group_208" data-name="Group 208" transform="translate(0.293 3.605)">
                                  <path id="Path_418" data-name="Path 418" d="M266.316,315.171c-.1.056.639,1.134,2.313,2.214a10.243,10.243,0,0,0,3.171,1.432,5.139,5.139,0,0,0,2.19.1,3.084,3.084,0,0,0,1.985-1.347,3.314,3.314,0,0,0,.476-1.168l.2-.769c.01-.059.048-.136.031-.182l-.2-.059-.4-.127-.768-.243a1.93,1.93,0,0,1-.4-.156c-.244-.135-.5-.233-.723-.384a4.9,4.9,0,0,1-1.879-2.021,3.314,3.314,0,0,1-.377-1.7c.04-.177.073-.311.1-.406l.067-.1a.893.893,0,0,1,.212-.3c.044-.034.119-.038.176-.08a.174.174,0,0,1,.117-.042,1.347,1.347,0,0,1,.294,0,3.539,3.539,0,0,1,.669.073c.329.109.656.22,1,.341.636.216,1.3.438,2.005.677-.206-.333-.323-.581-.724-1.2a17.442,17.442,0,0,0-1.09-1.6c-.255-.286-.49-.579-.772-.871-.244-.259-.345-.342-.533-.526-.333-.317-.683-.626-1.046-.941a21.049,21.049,0,0,0-4.9-3.215,6.969,6.969,0,0,0-2.766-.673,2.991,2.991,0,0,0-1.317.306,2.3,2.3,0,0,0-.83.762,2.951,2.951,0,0,0-.46,1.354c-.026.328-.007.5.043.5.141.039.206-.741.886-1.572a1.849,1.849,0,0,1,1.634-.6,6.32,6.32,0,0,1,2.283.777,21.047,21.047,0,0,1,4.366,3.319c.325.308.639.623.934.933.13.138.337.366.381.421l.038.075c.044.086.061.147-.058.072l-.117-.038a1.752,1.752,0,0,0-.288.026,1.179,1.179,0,0,0-.383.1,4.318,4.318,0,0,0-.651.3,2.859,2.859,0,0,0-.669.675c-.1.171-.155.264-.155.264s-.051.1-.146.3a7.685,7.685,0,0,0-.155.806,4.8,4.8,0,0,0,.651,2.508,6.483,6.483,0,0,0,2.578,2.505c.293.165.629.286.941.426a1.934,1.934,0,0,0,.506.174,1.572,1.572,0,0,0,.161.036c.131-.008.1.078.089.162.039.025-.12.316-.208.53a1.7,1.7,0,0,1-1.087.857,3.926,3.926,0,0,1-1.652.015,10.82,10.82,0,0,1-3.024-1.061C267.321,315.967,266.43,315.085,266.316,315.171Z" transform="translate(-262.124 -301.897)" fill="#ff6875"/>
                                </g>
                                <path id="Path_419" data-name="Path 419" d="M263.713,298.82c-.124.459.546.921,1.494,1.022s1.825-.194,1.95-.653-.539-.925-1.491-1.02S263.844,298.36,263.713,298.82Z" transform="translate(-261.891 -298.149)" fill="#f9b799" style="mix-blend-mode: screen;isolation: isolate"/>
                              </g>
                            </g>
                          </g>
                        </g>
                      </g>
                    </g>
                  </g>
                </g>
                <g id="Group_217" data-name="Group 217" transform="translate(68.83 61.788)">
                  <path id="Path_420" data-name="Path 420" d="M328.727,311.318" transform="translate(-328.727 -311.318)" fill="none" stroke="#ff6875" stroke-miterlimit="10" stroke-width="2"/>
                </g>
              </g>
            </g>
          </g>
          <g id="Group_249" data-name="Group 249" transform="translate(29.903 37.395)">
            <g id="Group_225" data-name="Group 225" transform="translate(1.003 12.135)">
              <g id="Group_222" data-name="Group 222" transform="translate(0 8.039)">
                <path id="Path_421" data-name="Path 421" d="M289.341,313.325c.61,4.955,7.029,11.835,12.6,11.326s11.622-6.36,11.01-11.318-7.624-6.014-13.2-6.36C294.275,306.63,288.714,308.353,289.341,313.325Z" transform="translate(-289.293 -306.931)" fill="#ffbdc0" opacity="0.4" style="mix-blend-mode: multiply;isolation: isolate"/>
                <g id="Group_221" data-name="Group 221" transform="translate(5.228 3.436)">
                  <path id="Path_422" data-name="Path 422" d="M294.729,311.969c-.023.665.959,1.1,2.195.972s2.251-.776,2.272-1.437-.957-1.1-2.2-.978S294.745,311.307,294.729,311.969Z" transform="translate(-294.729 -310.504)" fill="#f9c584" opacity="0.6" style="mix-blend-mode: screen;isolation: isolate"/>
                </g>
              </g>
              <g id="Group_224" data-name="Group 224" transform="translate(46.052)">
                <path id="Path_423" data-name="Path 423" d="M351.8,298.572a19.884,19.884,0,0,0-3.395.793c-5.314,1.743-11.834,4.526-11.179,9.478s7.986,9.094,13.5,8.186A7.836,7.836,0,0,0,354,315.581a21.234,21.234,0,0,0,1.131-6.44A31.863,31.863,0,0,0,351.8,298.572Z" transform="translate(-337.179 -298.572)" fill="#ffbdc0" opacity="0.4" style="mix-blend-mode: multiply;isolation: isolate"/>
                <g id="Group_223" data-name="Group 223" transform="translate(10.013 2.766)">
                  <path id="Path_424" data-name="Path 424" d="M352.059,302.317c.19.637-.649,1.306-1.878,1.492s-2.373-.182-2.562-.817.651-1.31,1.881-1.5S351.878,301.681,352.059,302.317Z" transform="translate(-347.59 -301.448)" fill="#f9c584" opacity="0.6" style="mix-blend-mode: screen;isolation: isolate"/>
                </g>
              </g>
            </g>
            <g id="Group_235" data-name="Group 235" transform="translate(0 5.685)">
              <g id="Group_232" data-name="Group 232">
                <g id="Group_231" data-name="Group 231">
                  <g id="Group_229" data-name="Group 229">
                    <g id="Group_228" data-name="Group 228">
                      <g id="Group_226" data-name="Group 226">
                        <path id="Path_425" data-name="Path 425" d="M292.268,294.368a8.989,8.989,0,0,0-2.943,3.655c-.333,1.065,1.046,2.724,2.021,3.135a10.888,10.888,0,0,1-2.737-.625c-.388-.155-.392,2.738-.332,2.977.263.939,1.3,1.476,2.17,1.806a4.337,4.337,0,0,1-1.545.341c-.024-.024-.025-.026.009-.009a11.357,11.357,0,0,0,4.567,5.853,13.128,13.128,0,0,0,6.954,2.184c6.542.138,12.412-3.177,12.261-9.548A12.862,12.862,0,0,0,299.9,291.867,11.8,11.8,0,0,0,292.268,294.368Z" transform="translate(-288.249 -291.865)" fill="#5b2914"/>
                        <path id="Path_426" data-name="Path 426" d="M291.717,306.576c.7,5.611,5.471,8.429,11.062,7.725,3.291-.413,6.183-1.289,8.3-4.057,1.861-2.423,2.7-5.7.95-8.509-2.373-3.805-7.012-7.155-11.456-6.592A10.234,10.234,0,0,0,291.717,306.576Z" transform="translate(-288.379 -291.988)" fill="#fff"/>
                      </g>
                      <g id="Group_227" data-name="Group 227" transform="translate(3.723 9.918)">
                        <path id="Path_427" data-name="Path 427" d="M292.723,310.765c-.076-.094-.15-.191-.22-.291a2.466,2.466,0,0,1-.38-.6c-.041.045,2.112,1.761,2.289,1.942a8.654,8.654,0,0,0,4.08,2.076,13.843,13.843,0,0,0,4.958.376,14.2,14.2,0,0,0,1.607-.274,4.905,4.905,0,0,0,.6-.15s.222-.06.6-.157c.189-.044.417-.139.674-.226a5,5,0,0,0,.846-.348,10.7,10.7,0,0,0,3.78-3.405,9.571,9.571,0,0,0,1.254-2.587,6.121,6.121,0,0,0,.2-2.551,9.345,9.345,0,0,0-.881-2.39c.018-.023.178.176.44.546a3.06,3.06,0,0,1,.4.729,4.355,4.355,0,0,1,.344,1.05,6.407,6.407,0,0,1-.078,2.774,9.845,9.845,0,0,1-1.225,2.825,11.188,11.188,0,0,1-3.92,3.779,5.393,5.393,0,0,1-.907.412c-.272.1-.506.206-.709.259-.4.118-.63.184-.63.184a4.592,4.592,0,0,1-.635.14,13.967,13.967,0,0,1-6.86-.35A12,12,0,0,1,292.723,310.765Z" transform="translate(-292.121 -302.178)" fill="#ff6875"/>
                      </g>
                    </g>
                  </g>
                  <g id="Group_230" data-name="Group 230" transform="translate(7.163 4.662)">
                    <path id="Path_428" data-name="Path 428" d="M296.042,306.724a7.66,7.66,0,0,0,9.254,6.053,8.227,8.227,0,0,0,5.817-9.793,7.673,7.673,0,0,0-9.263-6.052A8.227,8.227,0,0,0,296.042,306.724Z" transform="translate(-295.704 -296.713)" fill="#b8c23f"/>
                    <path id="Path_429" data-name="Path 429" d="M300.412,306.357a4.307,4.307,0,0,0,5.206,3.4,4.62,4.62,0,0,0,3.268-5.506,4.311,4.311,0,0,0-5.206-3.4A4.626,4.626,0,0,0,300.412,306.357Z" transform="translate(-295.874 -296.867)" fill="#5b2914"/>
                    <path id="Path_430" data-name="Path 430" d="M303.3,310.667a8.337,8.337,0,0,0,4.7-12.484,8.045,8.045,0,0,1,3.164,4.858,8.227,8.227,0,0,1-5.817,9.793,7.5,7.5,0,0,1-8.147-3.358A7.376,7.376,0,0,0,303.3,310.667Z" transform="translate(-295.756 -296.769)" fill="#8f83ff" opacity="0.3" style="mix-blend-mode: multiply;isolation: isolate"/>
                    <path id="Path_431" data-name="Path 431" d="M295.782,303.122a3.241,3.241,0,0,0,3.914,2.558,3.475,3.475,0,0,0,2.458-4.142,3.243,3.243,0,0,0-3.914-2.558A3.479,3.479,0,0,0,295.782,303.122Z" transform="translate(-295.698 -296.796)" fill="#fff"/>
                    <path id="Path_432" data-name="Path 432" d="M306.65,308.5a2.453,2.453,0,0,0,2.956,1.933,2.63,2.63,0,0,0,1.85-3.129,2.447,2.447,0,0,0-2.951-1.927A2.619,2.619,0,0,0,306.65,308.5Z" transform="translate(-296.115 -297.042)" fill="#bf590c" opacity="0.5" style="mix-blend-mode: screen;isolation: isolate"/>
                  </g>
                </g>
                <path id="Path_433" data-name="Path 433" d="M300.584,297.115a10.227,10.227,0,0,0-8.884,9.167,10.211,10.211,0,0,1,1.609-6.581c.009-.013.019-.026.031-.04.165-.255.342-.5.526-.737.027-.03.05-.054.072-.083.176-.218.364-.432.558-.639.042-.046.089-.085.13-.125.184-.186.372-.367.573-.537.061-.058.132-.107.2-.162.183-.15.364-.3.556-.435.093-.068.19-.121.288-.185.174-.121.354-.236.533-.345.119-.066.249-.123.375-.19.167-.088.332-.179.5-.258s.326-.128.482-.189.293-.124.453-.176c.192-.065.4-.119.609-.175.125-.033.24-.075.363-.1.337-.076.676-.137,1.023-.181,4.066-.514,8.775,2.394,11.322,6.165A14.689,14.689,0,0,0,300.584,297.115Z" transform="translate(-288.38 -291.988)" fill="#8f83ff" opacity="0.3" style="mix-blend-mode: multiply;isolation: isolate"/>
              </g>
              <g id="Group_233" data-name="Group 233" transform="translate(4.918 20.357)">
                <path id="Path_434" data-name="Path 434" d="M293.425,315.695c.288.176,1.434-.937,1.434-.937s.2-.386.358-.79.278-.825.139-.916-.5.15-.823.4-.6.526-.6.526S293.141,315.521,293.425,315.695Z" transform="translate(-293.363 -313.032)" fill="#5b2914"/>
              </g>
              <g id="Group_234" data-name="Group 234" transform="translate(2.669 19.149)">
                <path id="Path_435" data-name="Path 435" d="M291.026,312.771c.064.335,1.544.239,1.544.239s.081-.041.2-.117.286-.184.437-.3c.31-.227.589-.494.522-.65s-.454-.179-.81-.167c-.179,0-.35.016-.477.03s-.211.021-.211.021S290.97,312.434,291.026,312.771Z" transform="translate(-291.024 -311.776)" fill="#5b2914"/>
              </g>
            </g>
            <g id="Group_247" data-name="Group 247" transform="translate(7.644)">
              <g id="Group_236" data-name="Group 236">
                <path id="Path_436" data-name="Path 436" d="M306.7,290.363a7.255,7.255,0,0,0-2.6-.564,4.93,4.93,0,0,0-.887.008l-.336.016a1.7,1.7,0,0,0-.333.044l-.865.165a12.14,12.14,0,0,0-2.49.913,9.9,9.9,0,0,0-2.183,1.44,4.924,4.924,0,0,0-.612.6c-.136.153-.209.247-.194.256.036.034.364-.3.932-.711a11.236,11.236,0,0,1,2.215-1.271,12.456,12.456,0,0,1,2.43-.784c.348-.054.633-.1.833-.13a2.149,2.149,0,0,1,.315-.031s.117-.01.319-.03a5.222,5.222,0,0,1,.833-.031,7.033,7.033,0,0,1,2.477.433A6.41,6.41,0,0,1,308.666,292a7.423,7.423,0,0,0,.8.824,4.388,4.388,0,0,0-.649-.955A6.13,6.13,0,0,0,306.7,290.363Z" transform="translate(-296.198 -286.1)" fill="#ff6875" opacity="0.6" style="mix-blend-mode: multiply;isolation: isolate"/>
                <path id="Path_437" data-name="Path 437" d="M339.7,285.977a8.966,8.966,0,0,0-1.722.038,7.834,7.834,0,0,0-.78.132,7.191,7.191,0,0,0-.748.263,5.232,5.232,0,0,0-1.475.926,4.288,4.288,0,0,0-1,1.415,2.068,2.068,0,0,0-.2.751,3.845,3.845,0,0,0,.372-.668,4.591,4.591,0,0,1,1.045-1.238,5.264,5.264,0,0,1,1.418-.772c.416-.141.706-.209.706-.209s.283-.078.723-.159a9.643,9.643,0,0,1,1.641-.137c1.213-.006,2.405.286,2.421.218A6.617,6.617,0,0,0,339.7,285.977Z" transform="translate(-297.637 -285.953)" fill="#ff6875" opacity="0.6" style="mix-blend-mode: multiply;isolation: isolate"/>
              </g>
              <g id="Group_246" data-name="Group 246" transform="translate(35.151 0.503)">
                <g id="Group_243" data-name="Group 243">
                  <g id="Group_242" data-name="Group 242">
                    <g id="Group_240" data-name="Group 240">
                      <g id="Group_239" data-name="Group 239">
                        <g id="Group_237" data-name="Group 237" transform="translate(0.193)">
                          <path id="Path_438" data-name="Path 438" d="M347.41,287.608a7.985,7.985,0,0,1,3.024,2.79c.462.913-.307,2.7-.994,3.261a8.131,8.131,0,0,0,2.038-1.094c.275-.218.836,2.431.828,2.666a2.9,2.9,0,0,1-1.368,2.069,3.02,3.02,0,0,0,1.286.019c.016-.025.013-.026-.007,0a12.13,12.13,0,0,1-.8,3.424,11.129,11.129,0,0,1-1.689,2.808,9.989,9.989,0,0,1-5.078,3.33c-5.137,1.38-10.4-.542-11.5-6.413-.894-4.79,1.177-11.958,7.759-13.69A8.523,8.523,0,0,1,347.41,287.608Z" transform="translate(-332.95 -286.476)" fill="#5b2914"/>
                          <path id="Path_439" data-name="Path 439" d="M350.258,298.688c.515,5.277-2.71,8.773-7.259,9.2-2.679.246-5.129,0-7.335-2.137a7.724,7.724,0,0,1-2.376-7.617c1.15-3.942,4.178-7.9,7.791-8.232C345.634,289.476,349.741,293.412,350.258,298.688Z" transform="translate(-332.953 -286.606)" fill="#fff"/>
                        </g>
                        <g id="Group_238" data-name="Group 238" transform="translate(0 11.7)">
                          <path id="Path_440" data-name="Path 440" d="M350.217,302.805c.042-.1.08-.2.117-.31a2.262,2.262,0,0,0,.185-.622c.04.033-1.33,2.02-1.433,2.217a7.051,7.051,0,0,1-2.827,2.683,9.591,9.591,0,0,1-5.17,1.347,3.067,3.067,0,0,1-.5-.024l-.506-.029c-.161,0-.355-.045-.58-.076a3.451,3.451,0,0,1-.731-.159,8.77,8.77,0,0,1-3.635-2.4,9.182,9.182,0,0,1-1.487-2.126A6.689,6.689,0,0,1,333,301a9.649,9.649,0,0,1,.243-2.358,2.047,2.047,0,0,0-.246.582,3.278,3.278,0,0,0-.179.747,4.78,4.78,0,0,0-.07,1.03,6.935,6.935,0,0,0,.589,2.529,9.922,9.922,0,0,0,1.509,2.356,9.393,9.393,0,0,0,3.822,2.717,4.02,4.02,0,0,0,.789.2c.234.038.443.093.611.1.338.033.531.048.531.048a3.544,3.544,0,0,0,.532.007,9.761,9.761,0,0,0,1.384-.111,10.112,10.112,0,0,0,3.961-1.523A10.214,10.214,0,0,0,350.217,302.805Z" transform="translate(-332.749 -298.642)" fill="#ff6875"/>
                        </g>
                      </g>
                    </g>
                    <g id="Group_241" data-name="Group 241" transform="translate(2.037 4.719)">
                      <path id="Path_441" data-name="Path 441" d="M336.2,302.158c1.491,3.883,5.389,5.653,8.7,3.944s4.8-6.237,3.309-10.122-5.388-5.654-8.7-3.946S334.71,298.274,336.2,302.158Z" transform="translate(-334.896 -291.383)" fill="#b8c23f"/>
                      <path id="Path_442" data-name="Path 442" d="M339.243,301.092c.84,2.188,3.026,3.179,4.894,2.22A4.606,4.606,0,0,0,346,297.619c-.838-2.183-3.031-3.178-4.9-2.22A4.609,4.609,0,0,0,339.243,301.092Z" transform="translate(-335.023 -291.523)" fill="#5b2914"/>
                      <path id="Path_443" data-name="Path 443" d="M342.919,304.486c3.315-1.707,4.8-6.239,3.306-10.122a7.809,7.809,0,0,0-1.355-2.294,7.234,7.234,0,0,1,3.414,3.935c1.491,3.885.007,8.417-3.309,10.122a5.928,5.928,0,0,1-7.342-1.646A5.705,5.705,0,0,0,342.919,304.486Z" transform="translate(-334.973 -291.409)" fill="#8f83ff" opacity="0.3" style="mix-blend-mode: multiply;isolation: isolate"/>
                      <path id="Path_444" data-name="Path 444" d="M335.015,298.976a2.662,2.662,0,0,0,3.535,1.958,3.459,3.459,0,0,0,1.743-4.154,2.666,2.666,0,0,0-3.538-1.957A3.467,3.467,0,0,0,335.015,298.976Z" transform="translate(-334.867 -291.507)" fill="#fff"/>
                      <path id="Path_445" data-name="Path 445" d="M344.517,303.12a2.01,2.01,0,0,0,2.776,1.259,2.615,2.615,0,0,0,1.06-3.228,2.014,2.014,0,0,0-2.778-1.262A2.619,2.619,0,0,0,344.517,303.12Z" transform="translate(-335.23 -291.701)" fill="#bf590c" opacity="0.5" style="mix-blend-mode: screen;isolation: isolate"/>
                    </g>
                  </g>
                  <path id="Path_446" data-name="Path 446" d="M341.461,291.709c3.932-.365,7.526,2.522,8.769,6.708a10.529,10.529,0,0,0-2.528-5.729c-.012-.01-.02-.018-.031-.028-.183-.2-.367-.4-.559-.577a.9.9,0,0,1-.07-.063c-.184-.164-.374-.325-.566-.478-.042-.029-.083-.061-.124-.09-.181-.135-.364-.263-.554-.382-.062-.04-.125-.072-.189-.112-.171-.1-.345-.2-.52-.29-.091-.046-.177-.079-.264-.117-.16-.075-.325-.148-.489-.212-.108-.041-.218-.07-.328-.1-.155-.052-.3-.1-.446-.142s-.28-.054-.415-.08-.258-.059-.39-.075c-.17-.026-.343-.033-.515-.046-.108,0-.206-.024-.308-.024a7.25,7.25,0,0,0-.842.03c-3.307.3-6.474,3.868-7.76,7.814C335.059,294.5,338.421,291.991,341.461,291.709Z" transform="translate(-332.771 -286.606)" fill="#8f83ff" opacity="0.3" style="mix-blend-mode: multiply;isolation: isolate"/>
                </g>
                <g id="Group_244" data-name="Group 244" transform="translate(15.758 18.034)">
                  <path id="Path_447" data-name="Path 447" d="M351.187,307.32c-.192.216-1.309-.584-1.309-.584s-.23-.316-.434-.657-.379-.7-.283-.812.421.038.729.21.574.368.574.368S351.38,307.107,351.187,307.32Z" transform="translate(-349.135 -305.228)" fill="#5b2914"/>
                </g>
                <g id="Group_245" data-name="Group 245" transform="translate(16.793 16.415)">
                  <path id="Path_448" data-name="Path 448" d="M352.5,304.18c.015.317-1.171.513-1.171.513a1.382,1.382,0,0,1-.185-.07c-.111-.049-.259-.112-.4-.187-.289-.152-.559-.339-.533-.493s.319-.254.6-.313c.141-.03.281-.05.383-.063s.171-.021.171-.021S352.485,303.858,352.5,304.18Z" transform="translate(-350.211 -303.545)" fill="#5b2914"/>
                </g>
              </g>
            </g>
            <g id="Group_248" data-name="Group 248" transform="translate(32.251 21.212)">
              <path id="Path_449" data-name="Path 449" d="M333.128,310.81s-.675,1.47-3.2,1.794-6.677-1.36-7.582.062,3.888,5.837,7.129,5.837S335.226,311.346,333.128,310.81Z" transform="translate(-321.802 -308.117)" fill="#ffbdc0" opacity="0.5" style="mix-blend-mode: multiply;isolation: isolate"/>
              <path id="Path_450" data-name="Path 450" d="M332.646,309.06a4.685,4.685,0,0,1,1.231,1.174,2.006,2.006,0,0,1,.288.553,1.457,1.457,0,0,1,.077.23s.012.089.025.248a2.218,2.218,0,0,1-.038.635,4.236,4.236,0,0,1-.77,1.548c-.744.942-1.648,1.658-1.74,1.573s.629-.992,1.162-1.949a3.753,3.753,0,0,0,.459-1.311,1.891,1.891,0,0,0-.046-.537.528.528,0,0,0-.038-.142,1.205,1.205,0,0,0-.144-.38,4.384,4.384,0,0,0-.9-1.11c-.8-.764-1.735-1.448-1.655-1.569A5.349,5.349,0,0,1,332.646,309.06Zm-7.534,4.407c0,.138.351.26.642.413a4.109,4.109,0,0,1,.519.337,2.967,2.967,0,0,1,.539.238c.26.157.5.422.635.375s.1-.456-.126-.84a2.412,2.412,0,0,0-.592-.636,2.726,2.726,0,0,0-.828-.148C325.485,313.212,325.111,313.339,325.112,313.468Zm-3.319-.62a1.762,1.762,0,0,0,.172.943c.3.617.831.92.911.844.117-.091-.21-.589-.255-1.06a1.125,1.125,0,0,1,.057-.575,2.4,2.4,0,0,1,.1-.246s.027-.108.089-.284.174-.42.286-.679c.245-.51.428-1.083.3-1.143s-.486.351-.878.766a5.6,5.6,0,0,0-.512.644,3.291,3.291,0,0,0-.2.356s-.01.043-.027.115A1.84,1.84,0,0,0,321.794,312.847Z" transform="translate(-321.785 -308.01)" fill="#ff6875"/>
              <path id="Path_451" data-name="Path 451" d="M326.536,311.057c-.153.4.363.879,1.153,1.056s1.555-.016,1.706-.423-.369-.881-1.159-1.056S326.682,310.651,326.536,311.057Z" transform="translate(-321.966 -308.108)" fill="#f9c584" opacity="0.6" style="mix-blend-mode: screen;isolation: isolate"/>
            </g>
          </g>
          <g id="Group_252" data-name="Group 252" transform="translate(32.612 25.902)">
            <path id="Path_452" data-name="Path 452" d="M296.836,281.955c.341,1.563-3.258,4.707-5.084,3.1-2.3-2.026,1.778-3.929,3.546-3.911C296.275,281.155,296.735,281.483,296.836,281.955Zm39.305-6.246c.522,1.516,5.137,2.934,6.155.835,1.33-2.745-3.572-2.854-5.1-2.224C336.238,274.715,335.974,275.217,336.142,275.709Z" transform="translate(-291.066 -274.003)" fill="#c87568"/>
            <g id="Group_251" data-name="Group 251" transform="translate(0.003 0.897)" opacity="0.2" style="mix-blend-mode: multiply;isolation: isolate">
              <g id="Group_250" data-name="Group 250">
                <path id="Path_453" data-name="Path 453" d="M296.779,282.084c-.65,1.6-3.429,3.608-4.963,2.258a2.034,2.034,0,0,1-.6-.816,1.446,1.446,0,0,0,.535,1.838c1.825,1.608,5.425-1.536,5.084-3.1A.811.811,0,0,0,296.779,282.084Z" transform="translate(-291.069 -275.21)" fill="#c87568"/>
                <path id="Path_454" data-name="Path 454" d="M344.151,275.557c-.967,2-5.2.806-6.043-.621a.8.8,0,0,0-.172.809c.522,1.516,5.137,2.934,6.155.835a1.629,1.629,0,0,0,.155-1.274A1.841,1.841,0,0,1,344.151,275.557Z" transform="translate(-292.863 -274.936)" fill="#c87568"/>
              </g>
            </g>
          </g>
          <g id="Group_253" data-name="Group 253" transform="translate(64.228 67.049)">
            <path id="Path_455" data-name="Path 455" d="M334.654,316.789c.086.011.084.511.028,1.271-.068.372-.135.815-.254,1.278a8.869,8.869,0,0,1-.531,1.422,8.057,8.057,0,0,1-.786,1.335,6.537,6.537,0,0,1-.973.991c-.163.127-.309.251-.449.346l-.388.214-.343.18a2.913,2.913,0,0,1-.371.107,3.7,3.7,0,0,1-1,.16,5.187,5.187,0,0,1-1.406-.117,6.17,6.17,0,0,1-1.45-.6,6.232,6.232,0,0,1-2.78-2.921c.16-.157,1.436,1.443,3.174,2.122a5.545,5.545,0,0,0,1.259.375,4.271,4.271,0,0,0,1.1-.011,2.773,2.773,0,0,0,.741-.183,1.347,1.347,0,0,0,.27-.1l.265-.119.312-.135c.113-.066.235-.157.372-.246a5.677,5.677,0,0,0,.87-.734,7.833,7.833,0,0,0,.8-1.089,9.415,9.415,0,0,0,.648-1.229c.173-.413.3-.815.442-1.154C334.4,317.254,334.567,316.778,334.654,316.789Z" transform="translate(-323.942 -316.789)" fill="#ff6875"/>
          </g>
        </g>
        <g id="Group_271" data-name="Group 271" transform="translate(15.94 15.195)">
          <g id="Group_264" data-name="Group 264" transform="translate(23.836)">
            <g id="Group_263" data-name="Group 263">
              <g id="Group_262" data-name="Group 262">
                <g id="Group_261" data-name="Group 261">
                  <path id="Path_456" data-name="Path 456" d="M326.594,275.565c6.359-3.582,12.7-10.593,11.117-18.9a29.884,29.884,0,0,0-11.53-6.642c-12.5-4.117-22.728-3.285-29.874-1.4-1.482,2.493-2.8,6.482.245,10.493,2.95,3.887,6.867,1.982,10.874,3.353,5.209,1.783,6,10.688-1.2,8.813-3.6-.939-2.848-6.276.543-6a4.04,4.04,0,0,0-5.842,3.821c-.278,8.791,11.843,11.208,17.892,9.006-.077.03-.15.06-.218.092-2.359,1.107.62,4.026,2.453,3.678-1.627-.5-.836-2.345,0-3.329C322.362,277.013,324.884,276.529,326.594,275.565Z" transform="translate(-294.709 -236.881)" fill="#ffbdc0" opacity="0.4" style="mix-blend-mode: multiply;isolation: isolate"/>
                  <path id="Path_457" data-name="Path 457" d="M319.039,276.257c-2.359,1.107.62,4.026,2.452,3.679-1.627-.5-.834-2.346,0-3.328,1.311-1.55,3.833-2.034,5.545-3,6.416-3.616,12.832-10.719,11.084-19.125-.779-3.737-9.295-11.767-13.619-10.633,3.7-.972,1.654-5.379-.591-7.377.386,2.886-.83,3.241-2.569,3.767-3.253.986-8.367-.526-11.73-.33-3.839.225-8.037,1.394-10.918,4.2-.011.01-6.672,6.5-1.7,13.055,2.952,3.887,6.869,1.982,10.874,3.352,5.21,1.784,6,10.69-1.2,8.815-3.6-.939-2.846-6.279.543-6a4.042,4.042,0,0,0-5.842,3.822c-.277,8.79,11.844,11.207,17.894,9.005C319.18,276.194,319.107,276.225,319.039,276.257Z" transform="translate(-294.726 -236.475)" fill="#c87568"/>
                  <path id="Path_458" data-name="Path 458" d="M308.017,260.581c-.2-1.3-.288-2.844-.251-2.394a10.078,10.078,0,0,1,.589-4.287,17.892,17.892,0,0,1,4.748-7.637,19.409,19.409,0,0,1,8.091-4.635,17.838,17.838,0,0,1,5.327-.5,7.954,7.954,0,0,0-2.613-4.658c.386,2.886-.83,3.241-2.569,3.767-3.253.986-8.367-.526-11.73-.33-3.839.225-8.037,1.394-10.918,4.2-.011.01-6.672,6.5-1.7,13.055,2.952,3.887,6.869,1.982,10.874,3.352C307.917,260.539,307.966,260.561,308.017,260.581Z" transform="translate(-294.726 -236.475)" fill="#c87568" opacity="0.2" style="mix-blend-mode: multiply;isolation: isolate"/>
                  <path id="Path_459" data-name="Path 459" d="M327.281,274.664a27.445,27.445,0,0,0,5.239-3.852,12.914,12.914,0,0,1-2.84,1.233,21.2,21.2,0,0,1-7.15,1.086,15.066,15.066,0,0,1-4.395-.658c-2.188-.838-4.569-1.746-6.133-3.63-.037-.045-.07-.084-.1-.127-.589,1.491-2.176,2.4-4.989,1.673-3.6-.939-2.846-6.279.543-6a4.042,4.042,0,0,0-5.842,3.822c-.277,8.79,11.844,11.207,17.894,9.005-.078.029-.151.06-.218.092-2.359,1.107.62,4.026,2.452,3.679-1.627-.5-.834-2.346,0-3.328C323.047,276.113,325.569,275.629,327.281,274.664Z" transform="translate(-294.973 -237.53)" fill="#c87568" opacity="0.2" style="mix-blend-mode: multiply;isolation: isolate"/>
                  <g id="Group_260" data-name="Group 260" transform="translate(6.757 5.924)">
                    <g id="Group_258" data-name="Group 258">
                      <g id="Group_255" data-name="Group 255" transform="translate(1.591 14.132)">
                        <path id="Path_460" data-name="Path 460" d="M312.345,257.333a2.676,2.676,0,0,1,.751.27,7.49,7.49,0,0,1,1.674,1.116,8.378,8.378,0,0,1,2.638,4.823,7.347,7.347,0,0,1-1.028,5.269,6.3,6.3,0,0,1-1.357,1.464,4.885,4.885,0,0,1-.66.459,4.68,4.68,0,0,1-.736.375,8.04,8.04,0,0,1-2.142.612,7.39,7.39,0,0,1-3.2-.126,7.569,7.569,0,0,1-2.988-1.636,6.017,6.017,0,0,1-1.741-2.509,2.536,2.536,0,0,1,.361-2.485,3.271,3.271,0,0,1,1.813-.992,2.391,2.391,0,0,1,.816-.088,5.317,5.317,0,0,1-.749.239,3.06,3.06,0,0,0-1.551,1.007,2.255,2.255,0,0,0-.155,2.2,5.8,5.8,0,0,0,1.72,2.245,7,7,0,0,0,2.732,1.4A6.342,6.342,0,0,0,311.3,271a6.941,6.941,0,0,0,1.847-.57,3.906,3.906,0,0,0,.622-.336,4.143,4.143,0,0,0,.578-.383,5.545,5.545,0,0,0,1.23-1.258,6.953,6.953,0,0,0,1.133-4.85,8.124,8.124,0,0,0-2.236-4.686A12.7,12.7,0,0,0,312.345,257.333Z" transform="translate(-303.389 -257.33)" fill="#963e35"/>
                      </g>
                      <g id="Group_256" data-name="Group 256" transform="translate(0 3.73)">
                        <path id="Path_461" data-name="Path 461" d="M323.356,264.948c-.089-.014.157-.933.187-2.321a14.266,14.266,0,0,0-.887-5,16.438,16.438,0,0,0-2.56-4.593,17.1,17.1,0,0,0-1.207-1.341l-.488-.489-.517-.465a15.264,15.264,0,0,0-1.455-1.152c-.336-.2-.685-.451-1.081-.67l-1.285-.631q-.736-.245-1.5-.5c-.531-.137-1.083-.249-1.63-.377a39.265,39.265,0,0,0-6.285-.549c-1.74-.039-2.905-.007-2.909-.074a3.129,3.129,0,0,1,.793-.111c.509-.049,1.236-.1,2.111-.126a35.171,35.171,0,0,1,6.438.311c.577.113,1.159.214,1.721.343l1.622.493,1.421.649c.432.225.807.472,1.171.684A16.159,16.159,0,0,1,318.6,250.2l.562.482.5.524a17.144,17.144,0,0,1,1.216,1.436,16.12,16.12,0,0,1,2.459,4.829,13.258,13.258,0,0,1,.594,5.166,8.744,8.744,0,0,1-.327,1.688C323.476,264.729,323.39,264.955,323.356,264.948Z" transform="translate(-301.735 -246.513)" fill="#963e35"/>
                      </g>
                      <g id="Group_257" data-name="Group 257" transform="translate(8.172)">
                        <path id="Path_462" data-name="Path 462" d="M323.154,245.149c-.1.1-1.507-.662-3.074-1.113a18.361,18.361,0,0,0-2.2-.444l-1.016-.13-1.019-.091a20.334,20.334,0,0,0-2.268-.053c-1.66.089-3.285.467-3.342.352a10.02,10.02,0,0,1,3.263-.912,20.29,20.29,0,0,1,3.5-.084l1.074.2a16.138,16.138,0,0,1,2.278.64A8.306,8.306,0,0,1,323.154,245.149Z" transform="translate(-310.233 -242.635)" fill="#963e35"/>
                      </g>
                    </g>
                    <g id="Group_259" data-name="Group 259" transform="translate(16.875 1.437)">
                      <path id="Path_463" data-name="Path 463" d="M329.924,265.9c.053-.278.069-.439.043-.444s-.1.141-.2.4a11.352,11.352,0,0,1-2.347,3.911,22.052,22.052,0,0,1-2.612,2.275l-1.267.98s-.5.411-1.212,1.067c-.353.336-.759.732-1.167,1.179a7.231,7.231,0,0,0-1.135,1.581,6.469,6.469,0,0,0-.691,1.819,1.82,1.82,0,0,0,.365,1.7,1.591,1.591,0,0,0,1.157.375c.288-.022.446-.046.444-.073s-.163-.058-.434-.086a1.541,1.541,0,0,1-.945-.431,1.509,1.509,0,0,1-.153-1.387,6.29,6.29,0,0,1,.743-1.631,6.735,6.735,0,0,1,1.119-1.4c.421-.419.831-.786,1.186-1.094.722-.61,1.224-1,1.224-1l1.225-1.026a20.816,20.816,0,0,0,2.573-2.474,9.9,9.9,0,0,0,1.777-3.1A6.493,6.493,0,0,0,329.924,265.9Z" transform="translate(-319.282 -244.946)" fill="#963e35"/>
                      <path id="Path_464" data-name="Path 464" d="M335.964,258.172a13.734,13.734,0,0,0-.25-2.074c-.106-.494-.167-.775-.167-.775s-.085-.275-.236-.756a14.194,14.194,0,0,0-.791-1.925,15.466,15.466,0,0,0-3.848-4.926,15.774,15.774,0,0,0-5.43-3.012,13.274,13.274,0,0,0-1.987-.483,2.98,2.98,0,0,0-.772-.082c-.013.074,1.1.27,2.656.857a16.243,16.243,0,0,1,5.161,3.143,15.062,15.062,0,0,1,3.557,4.82,13.616,13.616,0,0,1,.712,1.845c.132.458.21.72.21.72s.062.266.172.731a13.484,13.484,0,0,1-.64,7.867,14.73,14.73,0,0,1-3.391,5c-1.2,1.161-2.142,1.79-2.1,1.852a2.949,2.949,0,0,0,.675-.386,14.049,14.049,0,0,0,1.633-1.24,14.379,14.379,0,0,0,3.7-5.008A13.569,13.569,0,0,0,335.964,258.172Z" transform="translate(-319.405 -244.129)" fill="#963e35"/>
                    </g>
                  </g>
                </g>
                <path id="Path_465" data-name="Path 465" d="M329.518,250.647c-.477.388-1.676.061-2.679-.732s-1.428-1.747-.952-2.135,1.678-.062,2.679.73S329.995,250.259,329.518,250.647Z" transform="translate(-295.896 -236.902)" fill="#c87568" style="mix-blend-mode: screen;isolation: isolate"/>
              </g>
            </g>
          </g>
          <g id="Group_270" data-name="Group 270" transform="translate(0 18.781)">
            <path id="Path_466" data-name="Path 466" d="M294.728,257.615c.561-.039-.141,11.691-7.185,18.453s-10.564,21.552-7.466,25.073,5.634.564,4.226-1.126c0,0,4.368,2.252-.563,5.353s-14.088-3.241-12.818-11.269S270.216,259.306,294.728,257.615Z" transform="translate(-269.958 -256.066)" fill="#ffbdc0" opacity="0.4" style="mix-blend-mode: multiply;isolation: isolate"/>
            <path id="Path_467" data-name="Path 467" d="M293.848,256c.562-.039-.14,11.691-7.184,18.452S276.1,296.008,279.2,299.529s5.634.565,4.226-1.126c0,0,4.367,2.252-.564,5.352s-14.087-3.239-12.818-11.268S269.337,257.694,293.848,256Z" transform="translate(-269.924 -256.004)" fill="#c87568"/>
            <path id="Path_468" data-name="Path 468" d="M279.558,266.37h.282a12.473,12.473,0,0,1,9.826,4.728c4.444-6.689,4.877-15.127,4.4-15.094-9.666.666-15.2,5.237-18.454,11.016A12.546,12.546,0,0,1,279.558,266.37Z" transform="translate(-270.142 -256.004)" fill="#c87568" opacity="0.2" style="mix-blend-mode: multiply;isolation: isolate"/>
            <path id="Path_469" data-name="Path 469" d="M283.425,299.674c1.408,1.691-1.128,4.648-4.226,1.126-1.2-1.361-1.4-4.406-.8-8.02a12.639,12.639,0,0,1-7.914-3.6c-.139,1.829-.255,3.405-.439,4.575-1.268,8.029,7.888,14.369,12.818,11.268S283.425,299.674,283.425,299.674Z" transform="translate(-269.924 -257.275)" fill="#c87568" opacity="0.2" style="mix-blend-mode: multiply;isolation: isolate"/>
            <g id="Group_269" data-name="Group 269" transform="translate(1.201 1.126)">
              <g id="Group_265" data-name="Group 265" transform="translate(5.463 25.777)">
                <path id="Path_470" data-name="Path 470" d="M278.76,283.979c.136.029-.6,2.987-.978,5.969-.044.373-.089.746-.131,1.112-.021.369-.04.731-.061,1.081a15.332,15.332,0,0,0,0,1.906,8.008,8.008,0,0,0,.118,1.337c.045.319.07.5.07.5a5.777,5.777,0,0,0,.139.906c.063.277.14.61.229.982a4.744,4.744,0,0,0,.384,1.167,6.806,6.806,0,0,0,1.661,2.274,2.535,2.535,0,0,0,2.447.617l.013,0,.008,0a2.061,2.061,0,0,0,.963-.516,1.489,1.489,0,0,0,.378-.76,6.812,6.812,0,0,0-.027-.792c.015-.007.053.056.112.19a1.4,1.4,0,0,1,.113.62,1.636,1.636,0,0,1-.355.933,2.293,2.293,0,0,1-1.094.7l.021-.007a2.662,2.662,0,0,1-1.476.139,3.553,3.553,0,0,1-1.446-.684,7.234,7.234,0,0,1-1.931-2.407,12.433,12.433,0,0,1-.927-3.237s-.019-.193-.058-.53a8.466,8.466,0,0,1-.075-1.4,15.353,15.353,0,0,1,.074-1.971c.037-.359.063-.731.11-1.105s.122-.749.185-1.126c.255-1.51.641-2.982.941-4.081A9.576,9.576,0,0,1,278.76,283.979Z" transform="translate(-276.853 -283.979)" fill="#963e35"/>
              </g>
              <g id="Group_266" data-name="Group 266" transform="translate(5.105 4.787)">
                <path id="Path_471" data-name="Path 471" d="M287.761,262.154a46.659,46.659,0,0,1-2.684,4.73c-.728,1.147-1.571,2.221-2.158,3.058l-1,1.379-.288.366c-.183.238-.446.567-.768.95A26.469,26.469,0,0,0,278.7,275.6a17.142,17.142,0,0,0-1.637,3.276,13.727,13.727,0,0,1-.567,1.589,5.482,5.482,0,0,1,.271-1.683,15.166,15.166,0,0,1,1.448-3.468,25.115,25.115,0,0,1,2.074-3.136c.316-.406.569-.744.739-.983l.272-.374s.417-.53,1.04-1.325,1.493-1.831,2.275-2.931A48.06,48.06,0,0,1,287.761,262.154Z" transform="translate(-276.481 -262.153)" fill="#963e35"/>
              </g>
              <g id="Group_267" data-name="Group 267" transform="translate(9.62)">
                <path id="Path_472" data-name="Path 472" d="M281.179,281.121a11.318,11.318,0,0,1,1.118-1.912c.413-.518.866-1.157,1.417-1.778s1.145-1.28,1.764-1.908c1.236-1.264,2.433-2.535,3.276-3.531.4-.508.712-.949.941-1.25.113-.152.2-.27.263-.352a.948.948,0,0,0,.081-.13l.3-.5a13.478,13.478,0,0,0,.772-1.346c.259-.6.564-1.29.89-2.036a8.562,8.562,0,0,0,.439-1.175c.133-.407.27-.821.4-1.236a23.46,23.46,0,0,0,.693-2.468c.2-.794.4-1.535.511-2.184a12.917,12.917,0,0,1,.51-2.139,12.96,12.96,0,0,1-.2,2.194c-.066.659-.219,1.416-.382,2.227a21.726,21.726,0,0,1-.587,2.527c-.122.427-.243.853-.364,1.272a8.725,8.725,0,0,1-.4,1.215c-.31.775-.6,1.5-.845,2.119a13.648,13.648,0,0,1-.768,1.436c-.2.343-.309.539-.309.539a.74.74,0,0,1-.09.135l-.282.36c-.246.3-.582.759-1.015,1.269-.9,1-2.157,2.249-3.436,3.454-.643.6-1.25,1.227-1.832,1.81s-1.054,1.183-1.5,1.667A15.332,15.332,0,0,1,281.179,281.121Z" transform="translate(-281.176 -257.175)" fill="#963e35"/>
              </g>
              <g id="Group_268" data-name="Group 268" transform="translate(0 30.849)">
                <path id="Path_473" data-name="Path 473" d="M272.2,289.253c.159.015-.77,3.674-.448,7.322a10.535,10.535,0,0,0,1.444,4.674,4.591,4.591,0,0,0,.514.743c.172.209.308.4.441.54.277.272.436.426.436.426a3.561,3.561,0,0,0,.442.415,9.311,9.311,0,0,0,1.3.943,6.138,6.138,0,0,0,4.626.833A4.639,4.639,0,0,0,283.223,304a3.037,3.037,0,0,0,.914-1.97,8.5,8.5,0,0,0-.382-2.215,2.09,2.09,0,0,1,.315.56,2.7,2.7,0,0,1,.245.7,4.39,4.39,0,0,1,.1.451c.009.163.017.336.026.516a3.347,3.347,0,0,1-.9,2.265,5.066,5.066,0,0,1-2.45,1.389,6.729,6.729,0,0,1-5.132-.752,9.825,9.825,0,0,1-1.43-.975,4.432,4.432,0,0,1-.494-.44l-.462-.477c-.143-.156-.288-.371-.467-.6a5.241,5.241,0,0,1-.539-.827,10.99,10.99,0,0,1-1.375-5.008,21.449,21.449,0,0,1,.42-5.115A11.478,11.478,0,0,1,272.2,289.253Z" transform="translate(-271.173 -289.253)" fill="#963e35"/>
              </g>
            </g>
            <path id="Path_474" data-name="Path 474" d="M286.992,272.691c.215.575-.476,1.609-1.546,2.305s-2.11.8-2.327.223.476-1.61,1.545-2.308S286.778,272.114,286.992,272.691Z" transform="translate(-270.428 -256.629)" fill="#c87568" style="mix-blend-mode: screen;isolation: isolate"/>
          </g>
        </g>
        <g id="Group_277" data-name="Group 277" transform="translate(10.424)">
          <g id="Group_272" data-name="Group 272" transform="translate(0 23.174)">
            <path id="Path_475" data-name="Path 475" d="M305.054,244.888c.08-.04.163-.076.243-.116a92.053,92.053,0,0,0-9.556.66s-18.172.211-26.833,17.325-2.748,31.9-2.748,31.9l4.226,1.058s.141-19.721,13.521-33.384C289.712,256.409,297.582,248.715,305.054,244.888Z" transform="translate(-264.189 -244.772)" fill="#c22367"/>
            <path id="Path_476" data-name="Path 476" d="M296.014,245.432s-15.514.19-24.7,13.725a29.223,29.223,0,0,0,9.926,6.555,40.816,40.816,0,0,1,2.946-3.378c5.8-5.926,13.674-13.619,21.147-17.446.08-.04.163-.076.243-.116A92.053,92.053,0,0,0,296.014,245.432Z" transform="translate(-264.461 -244.772)" fill="#8f83ff" opacity="0.3" style="mix-blend-mode: multiply;isolation: isolate"/>
            <path id="Path_477" data-name="Path 477" d="M296.17,245.432a33.138,33.138,0,0,0-20.777,9.034c.071,0,.14-.01.212-.01a7.737,7.737,0,0,1,7.462,5.68c.094.686.185,1.372.278,2.058-.061.462-.1.932-.168,1.4.379-.423.758-.847,1.161-1.26,5.8-5.926,13.674-13.619,21.147-17.446.08-.04.163-.076.243-.116A92.053,92.053,0,0,0,296.17,245.432Z" transform="translate(-264.618 -244.772)" fill="#8f83ff" opacity="0.3" style="mix-blend-mode: multiply;isolation: isolate"/>
            <path id="Path_478" data-name="Path 478" d="M269.486,262.56c-.159.291-.321.576-.473.878a44.564,44.564,0,0,0-2.094,4.811,47.059,47.059,0,0,0,8.947,6.553,46.866,46.866,0,0,1,3.357-5.882A32.358,32.358,0,0,1,269.486,262.56Z" transform="translate(-264.293 -245.453)" fill="#8f83ff" opacity="0.3" style="mix-blend-mode: multiply;isolation: isolate"/>
            <path id="Path_479" data-name="Path 479" d="M264.248,285.988a35.022,35.022,0,0,0,1.915,10.252l4.226,1.058a47.79,47.79,0,0,1,.819-7.338A61.678,61.678,0,0,1,264.248,285.988Z" transform="translate(-264.191 -246.351)" fill="#8f83ff" opacity="0.3" style="mix-blend-mode: multiply;isolation: isolate"/>
          </g>
          <g id="Group_276" data-name="Group 276" transform="translate(14.472)">
            <g id="Group_275" data-name="Group 275">
              <g id="Group_274" data-name="Group 274">
                <path id="Path_480" data-name="Path 480" d="M308.1,246.2s15.524-.926,16.522-4.438c1.247-4.382-8.827-21.157-12.846-21.087-5.244.089-7.351,13.153-6.94,19.846a4.349,4.349,0,0,0-6.159,2.249s-14.223-9.406-18.261-6.792,3.068,23.345,9.578,22.994,11.269-10.2,11.269-10.2S305.638,249.785,308.1,246.2Z" transform="translate(-279.238 -220.675)" fill="#c22367"/>
                <path id="Path_481" data-name="Path 481" d="M289.414,259.035a3.657,3.657,0,0,1-.508-.11c-.027-.007-.05-.014-.072-.021a3.949,3.949,0,0,1-.5-.19c-.027-.011-.056-.024-.083-.038a5.225,5.225,0,0,1-.49-.264c-.026-.015-.054-.035-.084-.052-.161-.1-.325-.215-.486-.338l-.072-.057c-.167-.13-.336-.268-.5-.416a.388.388,0,0,0-.045-.043c-.166-.157-.337-.321-.5-.5l-.013-.012c-.17-.178-.338-.365-.5-.561-.017-.021-.037-.041-.054-.062-.157-.187-.312-.385-.465-.59-.026-.031-.051-.062-.076-.089-.149-.206-.3-.413-.449-.628-.022-.037-.047-.072-.074-.112-.148-.214-.293-.438-.436-.667-.023-.036-.048-.07-.069-.109q-.219-.349-.432-.715c-.017-.034-.034-.063-.051-.093-.146-.254-.288-.512-.431-.776a.13.13,0,0,0-.021-.045q-.444-.837-.844-1.719a.355.355,0,0,0-.029-.057c-.129-.286-.254-.572-.376-.863-.013-.027-.023-.055-.035-.083-.117-.285-.237-.573-.351-.864l-.034-.088c-.112-.293-.223-.583-.327-.877a.427.427,0,0,1-.026-.068c-.11-.3-.212-.6-.313-.907a.136.136,0,0,0-.007-.025,33.174,33.174,0,0,1-.992-3.718l0,0c-.06-.3-.114-.592-.161-.881v0c-.388-2.322-.363-4.308.211-5.477.536,2.445,3.151,6.478,3.87,9.057.856,3.079,2.608,4.443,6.257,3.605s6.893-2.256,5.144-2.843-6.257-1.539-6.1-3.4,6.59.322,8.036-.5c.333-.188.224-.619-.133-1.164h0c.137.083.261.159.384.236.015.01.034.018.047.029.114.068.222.136.32.2.023.014.042.029.062.04.1.058.183.114.266.168.024.013.044.028.065.041.077.048.151.092.214.135l.065.04c.058.038.113.072.161.1.019.013.04.025.057.037.042.025.084.055.112.074l.021.012.114.073c.062-.129.123-.25.185-.37.045-.081.089-.156.132-.232.022-.03.039-.065.062-.1.057-.094.116-.187.179-.275l.013-.016c.064-.094.134-.183.2-.267v0c1.043,2.042,2.837,4.649,4.729,3.334,1.423-.994.89-2.9-.038-4.6a4.665,4.665,0,0,1,.7.278c-.021-.36-.035-.741-.043-1.133,0-.034,0-.064,0-.1-.006-.389,0-.793,0-1.211,0-.034,0-.068,0-.1.012-.427.028-.862.051-1.308a.548.548,0,0,0,.007-.064c.027-.461.059-.93.1-1.409h0c.551,1.6,1.143,2.931,1.656,3.188,1.454.729,1.69-4.423,3.684-4.736s-1.526,7.455.72,7.288c1.58-.12,2.562-2.1,3.487-3.15,1.12-1.27,2.187-1.61,3.422-2.565,2.775-2.147.91-4.34-.957-6.886a9.352,9.352,0,0,1-1.754-5.474c4.547,4.677,10.374,15.507,9.41,18.9s-15.568,4.377-16.477,4.435c-.027,0-.045,0-.045,0-2.462,3.585-6.837,2.574-6.837,2.574s-4.757,9.85-11.269,10.2a2.9,2.9,0,0,1-.532-.021Z" transform="translate(-279.238 -220.762)" fill="#8f83ff" opacity="0.3" style="mix-blend-mode: multiply;isolation: isolate"/>
                <path id="Path_482" data-name="Path 482" d="M321.929,238.086c1.26.485,2.249,3.975,2.612,5.019-2.657,2.946-16.116,3.752-16.116,3.752S316.224,235.9,321.929,238.086ZM301.588,249.43s-8.041.813-11.72,3.7c-1.953,1.529-3.492,3.994-.44,6.421a3.205,3.205,0,0,0,.892.082C296.83,259.279,301.588,249.43,301.588,249.43Z" transform="translate(-279.562 -221.331)" fill="#8f83ff" opacity="0.3" style="mix-blend-mode: multiply;isolation: isolate"/>
                <g id="Group_273" data-name="Group 273" transform="translate(8.156 16.466)" opacity="0.3" style="mix-blend-mode: multiply;isolation: isolate">
                  <path id="Path_483" data-name="Path 483" d="M299.069,250.277c-1.925,2.942-5.416,7.191-9.652,7.419a3.2,3.2,0,0,1-.892-.082,5.978,5.978,0,0,1-.806-.766,5.076,5.076,0,0,1,2.15-3.244C292.232,251.751,296.391,250.754,299.069,250.277Z" transform="translate(-287.718 -238.274)" fill="#8f83ff" style="mix-blend-mode: multiply;isolation: isolate"/>
                  <path id="Path_484" data-name="Path 484" d="M311.494,244.183c2.721-3.089,7.51-7.57,11.346-6.1a3.7,3.7,0,0,1,1.484,1.939c.087.268.163.5.219.669C322.7,242.746,315.632,243.755,311.494,244.183Z" transform="translate(-288.629 -237.796)" fill="#8f83ff" style="mix-blend-mode: multiply;isolation: isolate"/>
                </g>
                <path id="Path_485" data-name="Path 485" d="M297.2,246.265c.742-.19,1.2-.422,1.231-.368a3.115,3.115,0,0,1-1.148.627,8.174,8.174,0,0,1-2.869.439,8.8,8.8,0,0,1-2.919-.562,7.326,7.326,0,0,1-.911-.437l-.336-.2s-.026-.019-.085-.055-.126-.1-.227-.186l-.348-.29-.4-.44a5.668,5.668,0,0,1-.414-.571,2.243,2.243,0,0,1-.185-.339c-.081-.169-.164-.339-.248-.515l-.037-.075c-.01-.026-.039-.059,0-.069l.135-.094.262-.188a3.248,3.248,0,0,1,.4-.2,2.747,2.747,0,0,1,.826-.172,6.8,6.8,0,0,1,2.9.688,5.467,5.467,0,0,1,1.2.6,5.642,5.642,0,0,1-1.283-.354,7.136,7.136,0,0,0-2.76-.454,2.341,2.341,0,0,0-.676.178c-.092.05-.223.123-.274.155-.014.021-.067.039-.046.06l.022.03.071.137a1.6,1.6,0,0,0,.173.287,5.528,5.528,0,0,0,.381.481c.132.136.256.258.365.365.122.092.23.177.316.244s.16.121.2.157.08.045.08.045l.293.187a6.314,6.314,0,0,0,.813.435,8.739,8.739,0,0,0,2.715.665A8.958,8.958,0,0,0,297.2,246.265ZM310.313,233.3a1,1,0,0,0-.444.185,2.44,2.44,0,0,0-.573.608,7.024,7.024,0,0,0-1.059,2.705,2.989,2.989,0,0,0-.027,1.33c.048,0,.07-.522.279-1.261a7.378,7.378,0,0,1,1.183-2.465,2.079,2.079,0,0,1,.489-.467.486.486,0,0,1,.233-.086.142.142,0,0,1,.138.05,1.043,1.043,0,0,1,.225.468,4.022,4.022,0,0,1,.089.581,8.338,8.338,0,0,1,.032.917c0,.222-.009.347-.009.347s-.009.12-.021.334a7.853,7.853,0,0,1-.146.886,9.857,9.857,0,0,1-.989,2.552,7.737,7.737,0,0,1-1.681,2.121c-.564.483-1.032.67-1.011.726a2.425,2.425,0,0,0,1.169-.507,7.234,7.234,0,0,0,1.93-2.072,9.993,9.993,0,0,0,1.178-2.639,8.209,8.209,0,0,0,.2-.964c.022-.243.038-.382.038-.382a9.873,9.873,0,0,0-.074-1.369,5.745,5.745,0,0,0-.141-.68,1.573,1.573,0,0,0-.46-.766A.7.7,0,0,0,310.313,233.3Zm-6.331,6.98c-.4-.117-.664-.109-.67-.073-.008.057.244.138.581.319a3.815,3.815,0,0,1,1.083.863,5,5,0,0,1,.755,1.167c.074.177.133.324.177.427s.056.164.056.164.02.059.062.163a2.519,2.519,0,0,1,.154.441,6.588,6.588,0,0,1,.286,1.39,7.959,7.959,0,0,1,0,1.433c-.04.389-.081.655-.035.675s.166-.222.29-.614a5.687,5.687,0,0,0,.216-1.5,6.7,6.7,0,0,0-.16-1.534,3.565,3.565,0,0,0-.137-.5c-.038-.12-.058-.188-.058-.188s-.024-.067-.076-.181-.139-.27-.236-.463a5.3,5.3,0,0,0-.967-1.227A3.454,3.454,0,0,0,303.982,240.277Zm-4.861,4.288c.109.409.214.82.294,1.128l.141.514s.081.2.2.5a9.6,9.6,0,0,0,.523,1.089,4.377,4.377,0,0,0,.709.989c.23.239.418.352.445.322s-.093-.212-.244-.483a6.613,6.613,0,0,1-.491-1.031c-.154-.381-.275-.782-.364-1.084s-.148-.5-.148-.5-.076-.2-.189-.5-.267-.7-.43-1.094a4.389,4.389,0,0,0-.845-1.507A9.148,9.148,0,0,0,299.121,244.565Zm20.446-13.937-1.981-1.859c-.706-.683-1.4-1.382-1.876-1.945a6.714,6.714,0,0,0-.828-.925,4.324,4.324,0,0,0,.628,1.09,21.363,21.363,0,0,0,1.753,2.123c.68.727,1.374,1.433,1.888,1.968l.844.894s.347.348.845.889a16.2,16.2,0,0,1,1.643,2.13,10.668,10.668,0,0,1,1.092,2.455,6.671,6.671,0,0,0,.334,1.2,4.017,4.017,0,0,0-.083-1.255,9.477,9.477,0,0,0-.941-2.637,15.449,15.449,0,0,0-1.6-2.3c-.487-.583-.83-.953-.83-.953S320.1,231.152,319.566,230.629Zm-37.346,12.48a19.64,19.64,0,0,1,.71,2.6c.184.965.324,1.936.428,2.671s.17,1.223.17,1.223.086.493.246,1.232a19.842,19.842,0,0,0,.749,2.678,12.7,12.7,0,0,0,1.237,2.5,4.488,4.488,0,0,0,.792.979,5.874,5.874,0,0,0-.569-1.113,15.078,15.078,0,0,1-1.014-2.505,22.909,22.909,0,0,1-.593-2.635c-.123-.728-.192-1.219-.192-1.219s-.089-.488-.222-1.218-.327-1.713-.576-2.684a15.31,15.31,0,0,0-.926-2.6,4.392,4.392,0,0,0-.636-1.08A5.9,5.9,0,0,0,282.22,243.108Z" transform="translate(-279.336 -220.875)" fill="#8f83ff" opacity="0.5" style="mix-blend-mode: multiply;isolation: isolate"/>
              </g>
            </g>
            <path id="Path_486" data-name="Path 486" d="M312.979,223.022c.562.318.485,1.519-.174,2.684s-1.645,1.85-2.208,1.533-.485-1.52.173-2.681S312.418,222.706,312.979,223.022Z" transform="translate(-280.424 -220.762)" fill="#c22367" opacity="0.5" style="mix-blend-mode: screen;isolation: isolate"/>
            <path id="Path_487" data-name="Path 487" d="M289.028,247.775c-.347.541-1.543.4-2.669-.325s-1.755-1.746-1.408-2.29,1.546-.4,2.67.321S289.378,247.23,289.028,247.775Z" transform="translate(-279.453 -221.6)" fill="#c22367" opacity="0.5" style="mix-blend-mode: screen;isolation: isolate"/>
          </g>
        </g>
      </g>
    </g>
  </g>
</svg>
