<svg xmlns="http://www.w3.org/2000/svg" width="110.997" height="101.036" viewBox="0 0 110.997 101.036">
  <g id="Group_831" data-name="Group 831" transform="translate(0.627 0.627)">
    <g id="Group_830" data-name="Group 830">
      <g id="Group_813" data-name="Group 813" transform="translate(0)">
        <g id="Group_812" data-name="Group 812">
          <path id="Path_1140" data-name="Path 1140" d="M399.717,182.855,416.642,236.6l1.835,5.824-50.562,15.922-1.82.575a4.018,4.018,0,0,1-5.039-2.627l-16.347-51.9a4.014,4.014,0,0,1,2.621-5.035Z" transform="translate(-343.503 -182.855)" fill="#4bb9bf" stroke="#717171" stroke-width="1"/>
          <path id="Path_1141" data-name="Path 1141" d="M383.639,220.628c-1.779,2.8,1.222,10.383,4.4,11.689s20.3-3.464,22.128-6.823-.878-11.442-4.353-12.5C402.033,211.839,385.838,217.164,383.639,220.628Z" transform="translate(-357.057 -193.385)" fill="#087075" stroke="#717171" stroke-width="1"/>
          <path id="Rectangle_38" data-name="Rectangle 38" d="M6.189,0h4.726a0,0,0,0,1,0,0V62.446a0,0,0,0,1,0,0H6.189A6.189,6.189,0,0,1,0,56.257V6.189A6.189,6.189,0,0,1,6.189,0Z" transform="translate(0 17.707) rotate(-17.483)" fill="#4bb9bf" stroke="#717171" stroke-width="1"/>
          <path id="Rectangle_39" data-name="Rectangle 39" d="M6.189,0h4.726a0,0,0,0,1,0,0V62.446a0,0,0,0,1,0,0H6.189A6.189,6.189,0,0,1,0,56.257V6.189A6.189,6.189,0,0,1,6.189,0Z" transform="translate(0 17.707) rotate(-17.483)" fill="#2c1c3d" stroke="#717171" stroke-width="1" opacity="0.2" style="mix-blend-mode: multiply;isolation: isolate"/>
          <rect id="Rectangle_40" data-name="Rectangle 40" width="10.915" height="14.485" transform="translate(11.69 54.823) rotate(-17.482)" fill="#2c1c3d" stroke="#717171" stroke-width="1" opacity="0.2" style="mix-blend-mode: multiply;isolation: isolate"/>
          <rect id="Rectangle_41" data-name="Rectangle 41" width="10.915" height="6.374" transform="translate(8.33 44.154) rotate(-17.483)" fill="#2c1c3d" stroke="#717171" stroke-width="1" opacity="0.2" style="mix-blend-mode: multiply;isolation: isolate"/>
        </g>
        <path id="Path_1142" data-name="Path 1142" d="M417.19,250.934a6.591,6.591,0,1,0-4.307,8.266A6.591,6.591,0,0,0,417.19,250.934Z" transform="translate(-364.504 -205.149)" fill="#ffb032" stroke="#717171" stroke-width="1"/>
      </g>
      <path id="Path_1143" data-name="Path 1143" d="M428.989,265.7l1.835,5.824-45.8,14.424-5.349-17.283S405.387,278.722,428.989,265.7Z" transform="translate(-355.849 -211.954)" fill="#2c1c3d" stroke="#717171" stroke-width="1" opacity="0.2" style="mix-blend-mode: multiply;isolation: isolate"/>
      <path id="Path_1144" data-name="Path 1144" d="M370.538,198.391l8-2.52,3.3,11.555-4.6-1.353-3.314,3.517Z" transform="translate(-352.641 -187.427)" fill="#ffb032" stroke="#717171" stroke-width="1"/>
    </g>
    <g id="bag" transform="translate(15.031 9.208)">
      <path id="Path_1111" data-name="Path 1111" d="M128.926,189.893a10.914,10.914,0,0,1,11.03-8.046c5.753,0,19.148,5.275,23.361,27.377,3.848,20.19-10.969,38.631-10.969,38.631l-1.687-7.489s8.954-19.7,6.244-32.311c-3.8-17.679-18.613-23.768-18.325-12.838" transform="translate(-70.666 -171.806)" fill="#319ca2" stroke="rgba(0,0,0,0.36)" stroke-width="1"/>
      <path id="Path_1112" data-name="Path 1112" d="M168,212.194l6.07-1.779a2.166,2.166,0,0,0,1.47-2.688h0a2.167,2.167,0,0,0-2.688-1.47l-6.07,1.779a2.167,2.167,0,0,0-1.47,2.688h0A2.166,2.166,0,0,0,168,212.194Z" transform="translate(-83.417 -180.35)" fill="#ff882f" stroke="rgba(0,0,0,0.36)" stroke-width="1"/>
      <path id="Path_1113" data-name="Path 1113" d="M171.565,225.373l6.217-1.161a2.166,2.166,0,0,0,1.731-2.527h0a2.166,2.166,0,0,0-2.527-1.731l-6.217,1.161a2.167,2.167,0,0,0-1.731,2.527h0A2.166,2.166,0,0,0,171.565,225.373Z" transform="translate(-84.743 -185.178)" fill="#ff882f" stroke="rgba(0,0,0,0.36)" stroke-width="1"/>
      <path id="Path_1114" data-name="Path 1114" d="M76.491,189.893a10.914,10.914,0,0,0-11.03-8.046c-5.753,0-19.148,5.275-23.361,27.377-3.848,20.19,10.969,38.631,10.969,38.631l1.687-7.489s-8.954-19.7-6.245-32.311c3.8-17.679,18.613-23.768,18.325-12.838" transform="translate(-39.942 -171.806)" fill="#319ca2" stroke="rgba(0,0,0,0.36)" stroke-width="1"/>
      <path id="Path_1115" data-name="Path 1115" d="M121.282,186.1l-4.645-1.641s-.045-7.084-2.945-11.126a5.935,5.935,0,0,0-5.482-2.744,6.553,6.553,0,0,0-5.274,3.464c-2.79,4.574-2.53,12.047-2.53,12.047l-4.95-1.641A27.643,27.643,0,0,1,96.91,175.5c1.486-4.2,4.483-8.433,10.516-9.063,6.286-.662,9.718,3.322,11.6,7.876A35.409,35.409,0,0,1,121.282,186.1Z" transform="translate(-58.908 -166.369)" fill="#4bb9bf" stroke="rgba(0,0,0,0.36)" stroke-width="1"/>
      <path id="Path_1116" data-name="Path 1116" d="M102.936,178.21c-2.79,4.574-2.53,12.047-2.53,12.047l-4.95-1.641a27.643,27.643,0,0,1,1.453-8.952C98.6,179.17,100.666,178.638,102.936,178.21Z" transform="translate(-58.908 -170.528)" fill="#2c1c3d" stroke="rgba(0,0,0,0.36)" stroke-width="1" opacity="0.2" style="mix-blend-mode: multiply;isolation: isolate"/>
      <path id="Path_1117" data-name="Path 1117" d="M131.158,189.867l-4.645-1.641s-.045-7.084-2.945-11.126a24.412,24.412,0,0,1,5.333.986A35.409,35.409,0,0,1,131.158,189.867Z" transform="translate(-68.784 -170.138)" fill="#2c1c3d" stroke="rgba(0,0,0,0.36)" stroke-width="1" opacity="0.2" style="mix-blend-mode: multiply;isolation: isolate"/>
      <path id="Path_1118" data-name="Path 1118" d="M65.7,260.181s-9.939-1.025-12.417-5.43-.532-38.2,10.049-55.272a40.3,40.3,0,0,1,15.881-14.253,39.055,39.055,0,0,1,7.973-3.068c8.4-2.2,16.3-.947,19.851,4.84C114.353,198.915,65.7,260.181,65.7,260.181Z" transform="translate(-43.759 -171.557)" fill="#5bc6cc" stroke="rgba(0,0,0,0.36)" stroke-width="1"/>
      <path id="Path_1119" data-name="Path 1119" d="M91.7,182.71c-15.887,7.85-23.147,33.507-23.147,33.507H65.168a63.275,63.275,0,0,1,18.56-30.438A39.055,39.055,0,0,1,91.7,182.71Z" transform="translate(-48.27 -172.109)" fill="#2c1c3d" stroke="rgba(0,0,0,0.36)" stroke-width="1" opacity="0.2" style="mix-blend-mode: multiply;isolation: isolate"/>
      <path id="Path_1120" data-name="Path 1120" d="M102.009,181.548c34.88-3.3,38.725,73.06,36.769,76.409s-63.348,6.55-66.368,2.33S71.719,184.416,102.009,181.548Z" transform="translate(-50.466 -171.664)" fill="#7ccfd4" stroke="rgba(0,0,0,0.36)" stroke-width="1"/>
      <path id="Path_1121" data-name="Path 1121" d="M60.454,277.552c-6.332,2.446-13.091-.863-14.674-6.9a11.834,11.834,0,0,1-.3-1.687c-.655-6.319,2.588-16.3,4.411-17.3,2-1.09,10.419-1.44,11.71,1.006,0,0-1.187,9.841-1.343,18.119A56.252,56.252,0,0,0,60.454,277.552Z" transform="translate(-41.324 -196.039)" fill="#4bb9bf" stroke="rgba(0,0,0,0.36)" stroke-width="1"/>
      <path id="Path_1122" data-name="Path 1122" d="M60.5,287.369c-6.332,2.446-13.091-.863-14.674-6.9a11.834,11.834,0,0,1-.3-1.687,14.668,14.668,0,0,0,14.778,1.829A56.252,56.252,0,0,0,60.5,287.369Z" transform="translate(-41.371 -205.855)" fill="#2c1c3d" stroke="rgba(0,0,0,0.36)" stroke-width="1" opacity="0.2" style="mix-blend-mode: multiply;isolation: isolate"/>
      <path id="Path_1123" data-name="Path 1123" d="M62.629,251.835s-5.992,7.335-9.109,8.917-8.413-2.3-2.6-9.924C56.3,246.226,62.912,249.276,62.629,251.835Z" transform="translate(-42.35 -195.201)" fill="#19949b" stroke="rgba(0,0,0,0.36)" stroke-width="1"/>
      <path id="Path_1124" data-name="Path 1124" d="M135.249,276.137v.006c0,2.744-.3,5-1.083,5.858-2.465,2.7-36.251,2.322-38.009.7-.74-.675-1.135-4.2-1.233-8.174-.143-5.508.3-11.9,1.233-12.767,2.815-2.647,35.012-2.7,36.6-.921C133.841,262.06,135.249,270.221,135.249,276.137Z" transform="translate(-58.713 -199.126)" fill="#4bb9bf" stroke="rgba(0,0,0,0.36)" stroke-width="1"/>
      <path id="Path_1125" data-name="Path 1125" d="M135.263,284.215c0,2.744-.3,5-1.083,5.858-2.465,2.7-36.251,2.322-38.009.7-.74-.675-1.135-4.2-1.233-8.174C101.646,285.571,118.305,291.293,135.263,284.215Z" transform="translate(-58.727 -207.197)" fill="#2c1c3d" stroke="rgba(0,0,0,0.36)" stroke-width="1" opacity="0.2" style="mix-blend-mode: multiply;isolation: isolate"/>
      <path id="Path_1126" data-name="Path 1126" d="M53.3,267.072c0,1.8-.976,3.266-2.179,3.266s-2.178-1.462-2.178-3.266.976-3.266,2.178-3.266S53.3,265.268,53.3,267.072Z" transform="translate(-42.569 -200.595)" fill="#ffb032" stroke="rgba(0,0,0,0.36)" stroke-width="1"/>
      <path id="Path_1127" data-name="Path 1127" d="M96.834,260.469s12.98,8.044,19.874,8.2,16.728-9.116,16.728-9.116A43.427,43.427,0,0,0,96.834,260.469Z" transform="translate(-59.393 -197.835)" fill="#19949b" stroke="rgba(0,0,0,0.36)" stroke-width="1"/>
      <path id="Path_1128" data-name="Path 1128" d="M128.871,273.9a3.057,3.057,0,1,0-3.057,3.057A3.057,3.057,0,0,0,128.871,273.9Z" transform="translate(-68.499 -203.067)" fill="#ffb032" stroke="rgba(0,0,0,0.36)" stroke-width="1"/>
      <path id="Path_1129" data-name="Path 1129" d="M50.749,212.194l-6.07-1.779a2.165,2.165,0,0,1-1.469-2.688h0a2.166,2.166,0,0,1,2.688-1.47l6.07,1.779a2.167,2.167,0,0,1,1.469,2.688h0A2.166,2.166,0,0,1,50.749,212.194Z" transform="translate(-40.526 -180.35)" fill="#ff882f" stroke="rgba(0,0,0,0.36)" stroke-width="1"/>
      <path id="Path_1130" data-name="Path 1130" d="M47.106,225.373l-6.217-1.161a2.167,2.167,0,0,1-1.732-2.527h0a2.166,2.166,0,0,1,2.527-1.731l6.217,1.161a2.166,2.166,0,0,1,1.731,2.527h0A2.166,2.166,0,0,1,47.106,225.373Z" transform="translate(-39.12 -185.178)" fill="#ff882f" stroke="rgba(0,0,0,0.36)" stroke-width="1"/>
      <path id="Path_1131" data-name="Path 1131" d="M111.357,200.247c-.415,1.439-.514,6.04.385,6.637s12.984.326,14-.813.516-6-.385-6.637S111.9,198.377,111.357,200.247Z" transform="translate(-64.387 -177.794)" fill="#fff" stroke="rgba(0,0,0,0.36)" stroke-width="1"/>
      <circle id="Ellipse_38" data-name="Ellipse 38" cx="2.607" cy="2.607" r="2.607" transform="translate(16.07 41.501)" fill="#fff" stroke="rgba(0,0,0,0.36)" stroke-width="1"/>
    </g>
  </g>
</svg>
