<svg xmlns="http://www.w3.org/2000/svg" xmlns:xlink="http://www.w3.org/1999/xlink" width="153.827" height="215.578" viewBox="0 0 153.827 215.578">
  <defs>
    <linearGradient id="linear-gradient" x1="0.064" y1="0.193" x2="1.027" y2="0.38" gradientUnits="objectBoundingBox">
      <stop offset="0.188" stop-color="#fc7698"/>
      <stop offset="0.823" stop-color="#a629c2"/>
    </linearGradient>
  </defs>
  <g id="Vertical" transform="translate(-225 -46)">
    <path id="Path_39690" data-name="Path 39690" d="M225,122.914a76.914,76.914,0,1,1,76.914,76.914A76.9,76.9,0,0,1,225,122.914Z" fill="#4bb9bf"/>
    <path id="Path_39691" data-name="Path 39691" d="M404.423,93.653a76.736,76.736,0,0,0-7.693-13.025c-39.868-5.867-64.885-21.991-75.53-30.33A76.976,76.976,0,0,0,270.133,84.17C288.1,89.41,339.1,101.549,404.423,93.653Z" transform="translate(-32.735 -3.118)" fill="#a629c2"/>
    <path id="Path_39692" data-name="Path 39692" d="M469.488,46a78.752,78.752,0,0,0-13.449,1.181c10.645,8.339,35.661,24.463,75.53,30.33A76.8,76.8,0,0,0,469.488,46Z" transform="translate(-167.575)" fill="#fc6d91"/>
    <path id="Path_39693" data-name="Path 39693" d="M313.994,472.038a76.441,76.441,0,0,0,34.241-8.044c-56.454-12.914-89.975-31.308-106.579-42.691A76.93,76.93,0,0,0,313.994,472.038Z" transform="translate(-12.081 -272.211)" fill="#fc6d91"/>
    <path id="Path_39694" data-name="Path 39694" d="M379.121,383.441c-72.8,8.671-125.324-1.089-149.621-7.472a75.929,75.929,0,0,0,3.339,12.453c16.6,11.383,50.126,29.777,106.579,42.691A77.026,77.026,0,0,0,379.121,383.441Z" transform="translate(-3.264 -239.329)" fill="#a629c2"/>
    <path id="Path_39695" data-name="Path 39695" d="M399.238,215.469a76.578,76.578,0,0,0-7.14-32.378c-65.328,7.9-116.32-4.243-134.29-9.483a75,75,0,0,0-4.668,8.228c14.741,10.682,59.848,37.562,145.636,42.082A79.647,79.647,0,0,0,399.238,215.469Z" transform="translate(-20.411 -92.556)" fill="#4bb9bf"/>
    <path id="Path_39696" data-name="Path 39696" d="M375.857,258.393a76.79,76.79,0,0,0,2.509-12.748c-85.787-4.52-130.9-31.4-145.636-42.082A76.66,76.66,0,0,0,225,237.2a78.152,78.152,0,0,0,1.236,13.726C250.533,257.3,303.057,267.064,375.857,258.393Z" transform="translate(0 -114.282)" fill="#fc6d91"/>
    <path id="Path_39697" data-name="Path 39697" d="M406.154,330.759c-3.118-7.675-10.461-11.66-18.578-12.084a12.81,12.81,0,0,0-11.66,5.867c1.734-1.2,5.055-1.328,5.055-1.328-4.354,2.97-5.221,9.833-5.221,9.833a1.8,1.8,0,0,0-2.417-1.07c-.959.424-.35,2.066-.35,2.066-3.063,4.28-.166,6.992,1,7.988,1.4,1.218,2.638,1.513,1.642,2.38-1.476,1-5.922-3.671-6.66-4.889-.719-1.2-3.321-5.166-4.317-6.641a30.091,30.091,0,0,1-2.159-4.446c3.524-1.845,4.151-4.354,3.8-5.184-.351-.812-1.4-.517-1.4-.517.424-.775.627-2.675-.406-3.155s-1.734,1.291-1.734,1.291c0-1.255-.517-2.362-1.679-2.546-1.162-.166-1.089,2.509-1,3.413s-.092,2.343-.609,2.472-1.07,0-1.458-.959c-.388-.941-1.513-1.771-2.214-.646-.683,1.125.96,3.192,2.085,4.188a3.144,3.144,0,0,1,1.033,2.38c.683,13.726,8.081,21.493,8.339,22.582.258,1.07.037,2.8-3.376,9.114a37.253,37.253,0,0,0-3.929,15.663c-.037,2.029,1.734.793,2.546,1.476.83.683,1.863,8.671,2.029,9.28.185.609.443,2.767,1.089,1.605s3.616-1.605,3.616-1.605c-.2,1.919.7,4.778,1.568,7.306a76.26,76.26,0,0,0,8.118-2.73,40.118,40.118,0,0,1-1.7-4.391,2.124,2.124,0,0,1,1.347-.092c.609.221,2.029,1,1.863-.516a51.885,51.885,0,0,1,.388-9.077,5.983,5.983,0,0,1,.978-.3c.609-.129.092-1.254-.369-2.288a31.616,31.616,0,0,1-2.177-16.2c1.181,1.033,4.409,6.826,4.852,7.693.424.867.775,2.1-.664,2.768-1.421.646-1.716,1.587-1.421,2.583.314,1,1.605.388,2.546.092.959-.313,1.162.517,1.255,1.255.092.72-.259,2.841,1.255,2.971s1.384-3.063,1.384-3.063c.221.812.941,2.675,2.638,2.417,1.679-.258.2-3.45.2-3.45.83.941,1.7,1.421,2.472.2.775-1.2-3.247-3.671-3.837-4.188a3.1,3.1,0,0,1-1.734-2.675,69.977,69.977,0,0,0-6.125-15.239c-.959-1.476.037-1.476.037-1.476,1.771,1.088,9.8,4.63,16.456,1.7C405.195,347.658,409.254,338.452,406.154,330.759ZM347.856,322c-.775,0-1.956,2.122-2.417,2.159-.48.055-.9-.9-.959-2.288-.037-1.384.7-3.026-.683-3.173-1.384-.166-1.568,2.306-1.568,2.306-.3-.683-.59-1.845-1.808-1.42-1.2.443-.424,2.86-.424,2.86-.609-.221-1.125.2-1.255,1.07-.166,2.066,3.487,4.76,3.487,4.76a9.252,9.252,0,0,1-1.587,3.45,37.461,37.461,0,0,0-3.93,6.642c-.775,1.992-3.764,4.372-5.442,5.572-1.679,1.218-2.509.867-2.73.351-.2-.516.664-.867.664-.867a7.365,7.365,0,0,0,3.93-6,3.923,3.923,0,0,0-1.31-2.989,1.479,1.479,0,0,0-.646-2.232c-1.255-.664-2.325.9-2.325.9a18.288,18.288,0,0,0-4.889-9.686,9.007,9.007,0,0,1,4.538.923c-6.7-9.427-20.939-5.627-26.732.941a16.2,16.2,0,0,0-4.188,13.468c-3.708.055-3.155,3.247-3.155,3.247-7.472,8.634,3.413,17.526,6.181,20.847a12.471,12.471,0,0,1,2.9,6.826c7.822-7.472.646-15.534-2.472-18.394-3.1-2.841-3.524-5.442-3.524-5.442,1.937,1.033,2.841-.258,2.841-.258,8.413,11.051,22.582,2.9,22.582,2.9-2.97,5.664-7.084,19.131-7.084,19.131-3.93,2.029-5.258,3.45-5.092,4.483s2.546.129,2.546.129c-.387.738-1.642,2.859-.387,3.505s3.063-2.454,3.063-2.454c0,1.421-.166,3.192,1.384,3.192,1.568,0,1.771-4.28,1.771-4.28,1.291.35,2.638,1.605,3.063.129.443-1.476-2.159-4.059-2.159-4.059-.074-1.476,5.018-9.077,5.018-9.077.867,2.159.516,6.826-.775,12.361-1.291,5.516-.867,14.077-.867,15.46s4.059-.7,4.059-.7a15.49,15.49,0,0,1-2.38,6.771,74.408,74.408,0,0,0,8.431,2.4,81.344,81.344,0,0,0,2.417-9.889c1.07-.129,6.291-.258,7.675-.313,1.384-.037,3.026.055,3.893-.646.867-.683-.129-6.088-1.384-11.18S340.771,359,339.9,357.141c-.867-1.845-2.712-5.424-2.712-5.424,8.579-9.686,8.892-24.279,8.892-24.279,1-1.033,3.192-2.583,3.1-3.8C349.11,322.438,348.631,322,347.856,322Z" transform="translate(-48.488 -197.514)" fill="#fff"/>
    <path id="Path_39698" data-name="Path 39698" d="M487.253,229.206h-2.509a6.72,6.72,0,0,1-5.959-4.335l-.775-2.38c-.775-2.38-2.029-2.38-2.8,0l-.775,2.38a6.72,6.72,0,0,1-5.959,4.335h-2.509c-2.509,0-2.9,1.2-.867,2.675l2.029,1.458a6.728,6.728,0,0,1,2.269,7.01l-.775,2.38c-.775,2.4.258,3.136,2.288,1.661l2.011-1.476a6.774,6.774,0,0,1,7.38,0l2.011,1.476c2.029,1.476,3.063.738,2.288-1.661l-.775-2.38a6.729,6.729,0,0,1,2.269-7.01l2.029-1.458C490.15,230.406,489.762,229.206,487.253,229.206Z" transform="translate(-173.2 -126.716)" fill="#fff"/>
    <path id="Path_39699" data-name="Path 39699" d="M381.745,200.722h-1.66a4.46,4.46,0,0,1-3.967-2.878l-.517-1.587c-.516-1.587-1.365-1.587-1.882,0l-.517,1.587a4.459,4.459,0,0,1-3.967,2.878h-1.679c-1.661,0-1.919.812-.572,1.79l1.347.978a4.461,4.461,0,0,1,1.513,4.668l-.517,1.587c-.5,1.587.185,2.085,1.531,1.107l1.347-.978a4.471,4.471,0,0,1,4.907,0l1.347.978c1.347.978,2.029.48,1.513-1.107l-.517-1.587a4.5,4.5,0,0,1,1.531-4.668l1.347-.978C383.682,201.533,383.424,200.722,381.745,200.722Z" transform="translate(-102.357 -108.12)" fill="#fff"/>
    <path id="Path_39700" data-name="Path 39700" d="M590.746,183.559h-1.439a3.838,3.838,0,0,1-3.413-2.491l-.443-1.365c-.443-1.365-1.162-1.365-1.605,0l-.443,1.365a3.883,3.883,0,0,1-3.431,2.491h-1.42c-1.439,0-1.661.683-.5,1.531l1.144.83a3.853,3.853,0,0,1,1.31,4.022l-.443,1.365c-.443,1.365.148,1.79,1.31.959l1.163-.849a3.823,3.823,0,0,1,4.225,0l1.162.849c1.162.83,1.734.406,1.291-.959l-.443-1.365a3.853,3.853,0,0,1,1.31-4.022l1.162-.83C592.406,184.242,592.185,183.559,590.746,183.559Z" transform="translate(-255.532 -96.234)" fill="#fff"/>
    <path id="Path_39701" data-name="Path 39701" d="M446.141,117.821l1.31.959c1.328.959,1.992.461,1.476-1.088l-.5-1.55a4.378,4.378,0,0,1,1.476-4.557l1.328-.959c1.31-.96,1.07-1.734-.572-1.734h-1.623a4.338,4.338,0,0,1-3.875-2.823l-.516-1.55c-.5-1.55-1.328-1.55-1.826,0l-.5,1.55a4.383,4.383,0,0,1-3.893,2.823h-1.623c-1.623,0-1.882.775-.572,1.734l1.328.959a4.378,4.378,0,0,1,1.476,4.557l-.5,1.55c-.5,1.55.166,2.048,1.476,1.088l1.328-.959A4.356,4.356,0,0,1,446.141,117.821Z" transform="translate(-152.604 -41.601)" fill="#fff"/>
    <path id="Path_39702" data-name="Path 39702" d="M717.381,259.25H716.5a2.331,2.331,0,0,1-2.085-1.531l-.277-.83c-.277-.849-.72-.849-1,0l-.277.83a2.331,2.331,0,0,1-2.085,1.531h-.886c-.885,0-1.033.424-.314.941l.72.517a2.37,2.37,0,0,1,.793,2.472l-.258.83c-.277.849.074,1.107.793.59l.72-.517a2.347,2.347,0,0,1,2.583,0l.719.517c.719.516,1.07.258.812-.59l-.277-.83a2.369,2.369,0,0,1,.793-2.472l.719-.517C718.414,259.675,718.267,259.25,717.381,259.25Z" transform="translate(-351.136 -152.498)" fill="#fff"/>
    <path id="Path_39703" data-name="Path 39703" d="M330.36,280.75H329.4a2.537,2.537,0,0,1-2.251-1.642l-.3-.9c-.3-.9-.775-.9-1.07,0l-.295.9a2.542,2.542,0,0,1-2.269,1.642h-.941c-.959,0-1.107.461-.332,1.015l.775.572a2.548,2.548,0,0,1,.849,2.657l-.277.9c-.3.9.092,1.181.849.627l.775-.553a2.506,2.506,0,0,1,2.8,0l.756.553c.775.553,1.162.277.867-.627l-.3-.9a2.523,2.523,0,0,1,.867-2.657l.775-.572C331.467,281.211,331.3,280.75,330.36,280.75Z" transform="translate(-69.956 -167.928)" fill="#fff"/>
    <path id="Path_39704" data-name="Path 39704" d="M660.356,136.947h-.886a2.356,2.356,0,0,1-2.1-1.531l-.258-.83c-.277-.849-.72-.849-1,0l-.277.83a2.355,2.355,0,0,1-2.1,1.531h-.886c-.867,0-1.015.424-.3.941l.7.517a2.346,2.346,0,0,1,.812,2.472l-.277.83c-.277.849.092,1.107.812.59l.7-.517a2.378,2.378,0,0,1,2.6,0l.719.517c.7.517,1.07.258.793-.59l-.277-.83a2.379,2.379,0,0,1,.812-2.472l.719-.517C661.371,137.372,661.242,136.947,660.356,136.947Z" transform="translate(-309.775 -63.79)" fill="#fff"/>
    <path id="Path_39705" data-name="Path 39705" d="M554.574,86.289h-.664a1.842,1.842,0,0,1-1.623-1.181l-.2-.627c-.2-.646-.554-.646-.756,0l-.2.627a1.842,1.842,0,0,1-1.623,1.181h-.664c-.683,0-.793.332-.24.72l.553.406a1.814,1.814,0,0,1,.609,1.882l-.2.646c-.221.646.055.849.609.443l.554-.387a1.752,1.752,0,0,1,1.974,0l.554.387c.553.406.83.2.609-.443l-.2-.646a1.791,1.791,0,0,1,.627-1.882l.535-.406C555.368,86.621,555.257,86.289,554.574,86.289Z" transform="translate(-234.452 -27.56)" fill="#fff"/>
    <path id="Path_39706" data-name="Path 39706" d="M272.828,372.67h-.664a1.778,1.778,0,0,1-1.605-1.162l-.221-.646c-.2-.646-.553-.646-.757,0l-.2.646a1.824,1.824,0,0,1-1.624,1.162h-.664c-.683,0-.793.332-.24.738l.554.387a1.856,1.856,0,0,1,.609,1.9l-.2.646c-.221.627.055.83.609.443l.553-.406a1.853,1.853,0,0,1,1.992,0l.535.406c.553.387.83.184.627-.443l-.221-.646a1.831,1.831,0,0,1,.627-1.9l.535-.387C273.621,373,273.51,372.67,272.828,372.67Z" transform="translate(-30.098 -235.274)" fill="#fff"/>
    <path id="Path_39707" data-name="Path 39707" d="M357.128,116.329l.406.3a1.336,1.336,0,0,1,.461,1.384l-.166.48c-.148.461.055.609.461.332l.406-.3a1.31,1.31,0,0,1,1.458,0l.406.3c.388.277.59.129.443-.332l-.148-.48a1.293,1.293,0,0,1,.443-1.384l.406-.3c.406-.3.314-.535-.166-.535h-.5a1.326,1.326,0,0,1-1.181-.849l-.166-.48c-.148-.461-.406-.461-.553,0l-.148.48a1.347,1.347,0,0,1-1.181.849h-.5C356.814,115.794,356.74,116.034,357.128,116.329Z" transform="translate(-95.654 -49.408)" fill="#fff"/>
    <path id="Path_39708" data-name="Path 39708" d="M701.616,429.952a1.621,1.621,0,0,1-1.439-1.052l-.185-.572c-.2-.59-.5-.59-.683,0l-.2.572a1.621,1.621,0,0,1-1.439,1.052h-.609c-.591,0-.7.277-.2.646l.5.35a1.606,1.606,0,0,1,.535,1.7l-.185.572c-.184.572.074.756.554.406l.5-.351a1.555,1.555,0,0,1,1.771,0l.5.351c.5.35.738.166.553-.406l-.184-.572a1.615,1.615,0,0,1,.554-1.7l.48-.35c.5-.369.406-.646-.2-.646Z" transform="translate(-342.013 -276.985)" fill="#fff"/>
    <path id="Path_39709" data-name="Path 39709" d="M642.931,285.108a1.744,1.744,0,0,1-1.549-1.125l-.2-.627c-.2-.609-.535-.609-.738,0l-.2.627a1.744,1.744,0,0,1-1.55,1.125h-.646c-.646,0-.756.3-.221.683l.517.388a1.728,1.728,0,0,1,.59,1.826l-.185.609c-.2.627.055.812.591.424l.516-.369a1.729,1.729,0,0,1,1.919,0l.517.369c.535.387.793.2.59-.424l-.2-.609a1.771,1.771,0,0,1,.609-1.826l.517-.388c.535-.387.424-.683-.221-.683Z" transform="translate(-299.175 -171.824)" fill="#fff"/>
    <path id="Path_39710" data-name="Path 39710" d="M274.621,248.54h-.867a2.318,2.318,0,0,1-2.066-1.494l-.277-.83c-.258-.812-.7-.812-.96,0l-.277.83a2.3,2.3,0,0,1-2.066,1.494h-.849c-.867,0-1.015.424-.314.922l.7.517a2.325,2.325,0,0,1,.793,2.417l-.277.83c-.258.83.092,1.07.793.572l.7-.517a2.356,2.356,0,0,1,2.546,0l.7.517c.7.5,1.052.258.793-.572l-.277-.83a2.326,2.326,0,0,1,.793-2.417l.7-.517C275.617,248.964,275.488,248.54,274.621,248.54Z" transform="translate(-30.102 -144.776)" fill="#fff"/>
    <path id="Path_39711" data-name="Path 39711" d="M267.182,621.009,286,657.626c-6.127.338-11.868.724-11.868.724l-2.557-6.368-5.982.338-2.026,5.886c-1.93-.145-10.517-.434-10.517-.434Zm0,22.24,2.075-.048-1.013-3.232S267.23,643.249,267.182,643.249Zm21.842,15.293.579-31.7,11.53,11.53,13.315-13.943,5.066,33.53-11.048.579-3.281-7.14-3.763,6.657-3.811-7.044-1.254,7.478S288.734,658.832,289.023,658.543Zm34.609,0,.579-31.7,11.53,11.53,13.315-13.943,5.066,33.53-11.048.579-3.281-7.14-3.763,6.657-3.811-7.044-1.254,7.478S323.343,658.832,323.633,658.543Zm46.67-37.534,18.815,36.617c-6.127.338-11.868.724-11.868.724l-2.557-6.368-5.982.338-2.026,5.886c-1.93-.145-10.517-.434-10.517-.434Zm0,22.24,2.074-.048-1.013-3.232S370.351,643.249,370.3,643.249ZM251.549,678.357l-.04-13.744c1.7-.06,5.1.08,5.1.08l.24,4.1,4.061-4.1,2.781,3.241-4.441,3.7,5.3,2.221c-1.681,2.341-2.721,3.721-2.721,3.721L256.33,674l.22,4.041Zm15.306-7.882,3.761-.18a77.861,77.861,0,0,1,.32,7.9,36.767,36.767,0,0,1-5.161-.02Zm4.2-2.14a3.273,3.273,0,0,1-3.561.72,2.8,2.8,0,0,1-1.2-4.361,3.428,3.428,0,0,1,2.9-1.38,2.854,2.854,0,0,1,2.741,3A3.225,3.225,0,0,1,271.056,668.334Zm2.514.04L278.892,671l.06-6.021c2.04-.02,3.721.06,5.181.18,0,.6-1.38,13.263-1.38,13.263l-5.961-2.8.16,2.681c-.82-.12-3.781-.98-3.781-.98Zm12.335-3.741c.34-.12,10.5-.6,9.8,6.662-.7,7.242-9.462,6.882-9.462,6.882Zm4.261,7.7c1.74-.46,1.22-2.48-.18-2.16Q290.076,671.255,290.166,672.335Zm7.4,5.962v-13.2c3.461-.16,7.762-.32,7.762-.32v2.741l-3.321-.06.02.98,2.341.02.06,4.241-2.481-.06.08,2.4,3.241-.18.02,3.461Zm9.658-13.223c14.324-2.4,10.663,6.882,4.881,8.042l4.981,1.88-2.02,3.581-3.641-2.5-.06,2.561s-3.781-.24-3.7-.3Zm4.061,5.241c-.02-.04.98-.78.98-1.26s-.98-.38-.98-.38Zm18.657-4.781-.06,2.941c-4.2-1.481-5.481,1.64-5.261,3.4.3,2.421,2.3,2.8,3.361.7l-1.44-.12-.46-2.18,4.941-.84c.06,3.221-.06,8.062-.06,8.062-4.521,1.44-11.923,1.54-12.383-4.861-.18-2.3.62-6.342,4.4-7.642A9.02,9.02,0,0,1,329.94,665.534Zm8.155-2.721L345.9,678c-2.541.14-4.921.3-4.921.3l-1.06-2.641-2.48.14-.84,2.441c-.8-.06-4.361-.18-4.361-.18Zm0,9.223.86-.02-.42-1.34S338.116,672.035,338.1,672.035Zm8.977-6.962c14.324-2.4,10.663,6.882,4.881,8.042l4.982,1.88-2.021,3.581-3.641-2.5-.06,2.561s-3.781-.24-3.7-.3Zm4.061,5.241c-.02-.04.98-.78.98-1.26s-.98-.38-.98-.38Zm7.334-.8-.32-4.481c5.522-.12,10.783,0,10.783,0l-.18,3.821-2.641.26-.34,9.1-4.081-.26-.06-8.7Zm12.037,8.782v-13.2c3.461-.16,7.762-.32,7.762-.32v2.741l-3.321-.06.02.98,2.341.02.06,4.241-2.481-.06.08,2.4,3.241-.18.02,3.461Zm9.858-9.923L385.685,671l.06-6.021c2.04-.02,3.721.06,5.181.18,0,.6-1.38,13.263-1.38,13.263l-5.962-2.8.16,2.681c-.82-.12-3.781-.98-3.781-.98Z" transform="translate(-19.227 -417.059)" fill="url(#linear-gradient)"/>
  </g>
</svg>
