<svg xmlns="http://www.w3.org/2000/svg" width="238.264" height="79.292"><defs><linearGradient id="a" x1=".064" y1=".195" x2="1.027" y2=".382" gradientUnits="objectBoundingBox"><stop offset=".188" stop-color="#fc7698"/><stop offset=".823" stop-color="#a629c2"/></linearGradient></defs><path data-name="Path 34335" d="M0 39.646a39.646 39.646 0 1139.646 39.646A39.639 39.639 0 010 39.646z" fill="#4bb9bf"/><path data-name="Path 34336" d="M75.611 22.956a39.554 39.554 0 00-3.966-6.714C51.095 13.218 38.2 4.91 32.713.61A39.678 39.678 0 006.39 18.07c9.267 2.699 35.547 8.956 69.221 4.886z" fill="#a629c2"/><path data-name="Path 34337" d="M39.645 0a40.593 40.593 0 00-6.932.609c5.487 4.3 18.382 12.61 38.933 15.634A39.59 39.59 0 0039.645 0z" fill="#fc6d91"/><path data-name="Path 34338" d="M39.646 79.291a39.4 39.4 0 0017.65-4.146c-29.1-6.657-46.379-16.138-54.937-22.005a39.654 39.654 0 0037.287 26.151z" fill="#fc6d91"/><path data-name="Path 34339" d="M77.76 50.572c-37.525 4.469-64.6-.561-77.123-3.851a39.137 39.137 0 001.721 6.419c8.559 5.868 25.838 15.349 54.937 22.005A39.7 39.7 0 0077.76 50.572z" fill="#a629c2"/><path data-name="Path 34340" d="M79.291 39.645a39.47 39.47 0 00-3.68-16.689c-33.674 4.07-59.958-2.187-69.221-4.888a38.668 38.668 0 00-2.406 4.241c7.6 5.506 30.849 19.362 75.069 21.691a41.053 41.053 0 00.238-4.355z" fill="#4bb9bf"/><path data-name="Path 34341" d="M77.761 50.573a39.582 39.582 0 001.293-6.571c-44.22-2.33-67.471-16.185-75.069-21.691A39.514 39.514 0 000 39.647a40.284 40.284 0 00.637 7.075c12.524 3.29 39.598 8.325 77.124 3.851z" fill="#fc6d91"/><path data-name="Path 34342" d="M68.384 44.971c-1.607-3.956-5.392-6.01-9.576-6.229a6.6 6.6 0 00-6.01 3.024 6.082 6.082 0 012.606-.685c-2.244 1.531-2.691 5.069-2.691 5.069a.928.928 0 00-1.246-.552c-.495.219-.181 1.065-.181 1.065a2.76 2.76 0 00.514 4.118c.723.628 1.36.78.846 1.227-.761.514-3.053-1.892-3.433-2.52s-1.712-2.663-2.225-3.424a15.525 15.525 0 01-1.113-2.292c1.816-.951 2.14-2.244 1.959-2.672s-.723-.266-.723-.266c.219-.4.323-1.379-.209-1.626s-.894.666-.894.666c0-.647-.266-1.217-.865-1.312s-.561 1.293-.514 1.759-.048 1.208-.314 1.274-.552 0-.751-.494-.78-.913-1.141-.333.495 1.645 1.075 2.159a1.62 1.62 0 01.533 1.227c.352 7.075 4.165 11.079 4.3 11.64s.019 1.446-1.74 4.7a19.2 19.2 0 00-2.026 8.074c-.019 1.046.894.409 1.312.761s.961 4.469 1.046 4.783.228 1.427.561.827 1.864-.827 1.864-.827a10.466 10.466 0 00.808 3.766 39.3 39.3 0 004.184-1.407 20.714 20.714 0 01-.875-2.263 1.094 1.094 0 01.694-.048c.314.114 1.046.513.96-.266a26.747 26.747 0 01.2-4.679 3.084 3.084 0 01.5-.152c.314-.067.048-.647-.19-1.179a16.3 16.3 0 01-1.122-8.349 26.553 26.553 0 012.5 3.965c.219.447.4 1.084-.342 1.427s-.884.818-.732 1.331.827.2 1.312.048.6.266.647.647-.133 1.464.647 1.531.713-1.579.713-1.579c.114.418.485 1.379 1.36 1.246s.1-1.778.1-1.778c.428.485.875.732 1.274.1s-1.674-1.892-1.978-2.159a1.6 1.6 0 01-.894-1.379 36.077 36.077 0 00-3.157-7.855c-.495-.761.019-.761.019-.761.913.561 5.05 2.387 8.483.875a8.215 8.215 0 003.925-10.223zm-30.051-4.517c-.4 0-1.008 1.094-1.246 1.113s-.466-.466-.494-1.179.361-1.56-.352-1.636-.808 1.189-.808 1.189c-.152-.352-.3-.951-.932-.732s-.219 1.474-.219 1.474c-.314-.114-.58.1-.647.552-.086 1.065 1.8 2.453 1.8 2.453a4.77 4.77 0 01-.818 1.778 19.3 19.3 0 00-2.025 3.424 8.8 8.8 0 01-2.805 2.872c-.865.628-1.293.447-1.407.181s.342-.447.342-.447a3.8 3.8 0 002.026-3.091 2.022 2.022 0 00-.675-1.541.762.762 0 00-.333-1.151c-.647-.342-1.2.466-1.2.466a9.426 9.426 0 00-2.52-4.993 4.642 4.642 0 012.339.476c-3.452-4.859-10.793-2.9-13.779.485a8.349 8.349 0 00-2.159 6.942c-1.911.029-1.626 1.674-1.626 1.674-3.851 4.451 1.759 9.034 3.186 10.746a6.428 6.428 0 011.493 3.519c4.032-3.851.333-8.007-1.274-9.481a5.475 5.475 0 01-1.816-2.805c1 .533 1.464-.133 1.464-.133 4.337 5.7 11.64 1.493 11.64 1.493a82.689 82.689 0 00-3.652 9.861c-2.026 1.046-2.71 1.778-2.625 2.311s1.312.067 1.312.067c-.2.38-.846 1.474-.2 1.807s1.579-1.265 1.579-1.265c0 .732-.086 1.645.713 1.645s.913-2.206.913-2.206c.666.181 1.36.827 1.579.067s-1.113-2.092-1.113-2.092c-.038-.761 2.587-4.679 2.587-4.679.447 1.113.266 3.519-.4 6.371a37.443 37.443 0 00-.447 7.969c0 .713 2.092-.361 2.092-.361a7.984 7.984 0 01-1.227 3.49 38.351 38.351 0 004.346 1.236 41.934 41.934 0 001.246-5.1c.551-.067 3.243-.133 3.956-.162a3.67 3.67 0 002.007-.333c.447-.352-.067-3.138-.713-5.763a65.069 65.069 0 00-3.2-8.4c-.447-.951-1.4-2.8-1.4-2.8 4.422-4.993 4.584-12.515 4.584-12.515.514-.533 1.645-1.331 1.6-1.959s-.292-.837-.691-.837z" fill="#fff"/><path data-name="Path 34343" d="M45.903 29.119H44.61a3.464 3.464 0 01-3.072-2.235l-.4-1.227c-.4-1.227-1.046-1.227-1.445 0l-.4 1.227a3.464 3.464 0 01-3.072 2.235h-1.293c-1.293 0-1.493.618-.447 1.379l1.046.751a3.469 3.469 0 011.17 3.614l-.4 1.227c-.4 1.236.133 1.617 1.179.856l1.037-.761a3.492 3.492 0 013.8 0l1.036.761c1.046.761 1.579.38 1.179-.856l-.4-1.227a3.468 3.468 0 011.17-3.614l1.046-.751c1.052-.761.852-1.379-.441-1.379z" fill="#fff"/><path data-name="Path 34344" d="M28.034 24.022h-.856a2.3 2.3 0 01-2.045-1.483l-.266-.818c-.266-.818-.7-.818-.97 0l-.266.818a2.3 2.3 0 01-2.045 1.483h-.865c-.856 0-.989.418-.295.923l.694.5a2.3 2.3 0 01.78 2.406l-.266.818c-.257.818.1 1.075.789.571l.694-.5a2.3 2.3 0 012.53 0l.694.5c.694.5 1.046.247.78-.571l-.266-.818a2.322 2.322 0 01.789-2.406l.694-.5c.695-.505.562-.923-.304-.923z" fill="#fff"/><path data-name="Path 34345" d="M56.811 21.302h-.742a1.978 1.978 0 01-1.759-1.284l-.228-.7c-.228-.7-.6-.7-.827 0l-.228.7a2 2 0 01-1.769 1.284h-.732c-.742 0-.856.352-.257.789l.59.428a1.986 1.986 0 01.675 2.073l-.228.7c-.228.7.076.922.675.494l.6-.437a1.97 1.97 0 012.178 0l.6.437c.6.428.894.209.666-.494l-.228-.7a1.986 1.986 0 01.675-2.073l.6-.428c.595-.437.481-.789-.261-.789z" fill="#fff"/><path data-name="Path 34346" d="M35.328 15.577l.675.494c.685.495 1.027.238.761-.561l-.257-.8a2.257 2.257 0 01.761-2.349l.685-.495c.675-.494.552-.894-.295-.894h-.837a2.236 2.236 0 01-2-1.455l-.266-.8c-.257-.8-.685-.8-.941 0l-.257.8a2.26 2.26 0 01-2.007 1.455h-.837c-.837 0-.97.4-.295.894l.685.495a2.257 2.257 0 01.761 2.349l-.257.8c-.257.8.086 1.056.761.561l.685-.494a2.245 2.245 0 012.475 0z" fill="#fff"/><path data-name="Path 34347" d="M72.806 31.318h-.456a1.2 1.2 0 01-1.075-.789l-.143-.428c-.143-.437-.371-.437-.514 0l-.143.428a1.2 1.2 0 01-1.075.789h-.456c-.456 0-.533.219-.162.485l.371.266a1.222 1.222 0 01.409 1.274l-.133.428c-.143.437.038.57.409.3l.371-.266a1.21 1.21 0 011.331 0l.371.266c.371.266.552.133.418-.3l-.142-.428a1.221 1.221 0 01.409-1.274l.371-.266c.371-.269.295-.485-.161-.485z" fill="#fff"/><path data-name="Path 34348" d="M18.249 34.444h-.495a1.308 1.308 0 01-1.16-.846l-.152-.466c-.152-.466-.4-.466-.552 0l-.152.466a1.31 1.31 0 01-1.17.846h-.485c-.495 0-.571.238-.171.523l.4.295a1.313 1.313 0 01.438 1.369l-.143.466c-.152.466.048.609.438.323l.4-.285a1.292 1.292 0 011.445 0l.39.285c.4.285.6.143.447-.323l-.152-.466a1.3 1.3 0 01.447-1.369l.4-.295c.398-.286.312-.523-.173-.523z" fill="#fff"/><path data-name="Path 34349" d="M64.732 13.998h-.453a1.214 1.214 0 01-1.084-.789l-.133-.428c-.143-.437-.371-.437-.514 0l-.143.428a1.214 1.214 0 01-1.084.789h-.456c-.447 0-.523.219-.152.485l.361.266a1.209 1.209 0 01.418 1.274l-.143.428c-.143.437.048.571.419.3l.361-.266a1.225 1.225 0 011.341 0l.371.266c.361.266.552.133.409-.3l-.143-.428a1.227 1.227 0 01.419-1.274l.371-.266c.358-.266.292-.485-.165-.485z" fill="#fff"/><path data-name="Path 34350" d="M49.032 6.562h-.342a.949.949 0 01-.837-.609l-.1-.323c-.1-.333-.285-.333-.39 0l-.1.323a.949.949 0 01-.837.609h-.342c-.352 0-.409.171-.124.371l.285.209a.935.935 0 01.314.97l-.1.333c-.114.333.029.437.314.228l.285-.2a.9.9 0 011.018 0l.285.2c.285.209.428.1.314-.228l-.1-.333a.923.923 0 01.323-.97l.276-.209c.267-.2.21-.371-.142-.371z" fill="#fff"/><path data-name="Path 34351" d="M9.139 47.111h-.342a.917.917 0 01-.827-.6l-.114-.333c-.1-.333-.285-.333-.39 0l-.1.333a.94.94 0 01-.837.6h-.351c-.352 0-.409.171-.124.38l.285.2a.957.957 0 01.314.979l-.1.333c-.114.323.029.428.314.228l.285-.209a.955.955 0 011.027 0l.276.209c.285.2.428.095.323-.228l-.114-.333a.944.944 0 01.323-.979l.276-.2c.285-.209.228-.38-.124-.38z" fill="#fff"/><path data-name="Path 34352" d="M18.801 10.784l.209.152a.689.689 0 01.238.713l-.086.247c-.076.238.029.314.238.171l.209-.152a.675.675 0 01.751 0l.209.152c.2.143.3.067.228-.171l-.076-.247a.666.666 0 01.228-.713l.209-.152c.209-.152.162-.276-.086-.276h-.257a.683.683 0 01-.609-.437l-.086-.247c-.076-.238-.209-.238-.285 0l-.076.247a.694.694 0 01-.609.437h-.258c-.253.001-.291.124-.091.276z" fill="#fff"/><path data-name="Path 34353" d="M69.383 55.137a.836.836 0 01-.742-.542l-.095-.295c-.1-.3-.257-.3-.352 0l-.1.295a.835.835 0 01-.742.542h-.314c-.3 0-.361.143-.1.333l.257.181a.828.828 0 01.276.875l-.1.295c-.1.295.038.39.285.209l.257-.181a.8.8 0 01.913 0l.257.181c.257.181.38.086.285-.209l-.1-.295a.832.832 0 01.285-.875l.247-.181c.257-.19.209-.333-.1-.333z" fill="#fff"/><path data-name="Path 34354" d="M61.214 34.682a.9.9 0 01-.8-.58l-.1-.323c-.1-.314-.276-.314-.38 0l-.1.323a.9.9 0 01-.8.58h-.333c-.333 0-.39.152-.114.352l.266.2a.891.891 0 01.3.941l-.1.314c-.1.323.029.418.3.219l.266-.19a.891.891 0 01.989 0l.266.19c.276.2.409.1.3-.219l-.1-.314a.913.913 0 01.314-.941l.266-.2c.276-.2.219-.352-.114-.352z" fill="#fff"/><path data-name="Path 34355" d="M10.061 29.775h-.447a1.2 1.2 0 01-1.065-.77l-.143-.428c-.133-.418-.361-.418-.495 0l-.143.428a1.185 1.185 0 01-1.065.77h-.437c-.447 0-.523.219-.162.475l.361.266a1.2 1.2 0 01.409 1.246l-.143.428c-.133.428.048.552.409.295l.361-.266a1.215 1.215 0 011.312 0l.361.266c.361.257.542.133.409-.295l-.143-.428a1.2 1.2 0 01.409-1.246l.361-.266c.364-.257.298-.475-.149-.475z" fill="#fff"/><path data-name="Path 34356" d="M617.3 56.189l21.155 41.17c-6.889.38-13.344.814-13.344.814l-2.875-7.16-6.726.38-2.278 6.618c-2.17-.163-11.825-.488-11.825-.488zm0 25.006l2.332-.054-1.139-3.634s-1.14 3.688-1.193 3.688zm24.557 17.195l.651-35.637 12.964 12.964 14.971-15.677 5.695 37.7-12.422.651-3.688-8.028-4.228 7.484-4.285-7.919-1.41 8.408s-8.574.379-8.248.054zm38.913 0l.651-35.637 12.964 12.964 14.97-15.677 5.695 37.7-12.42.651-3.688-8.028-4.232 7.486-4.285-7.919-1.41 8.408s-8.571.377-8.246.052zm52.474-42.2L754.4 97.359c-6.889.38-13.344.814-13.344.814l-2.874-7.16-6.727.38-2.278 6.618c-2.169-.163-11.824-.488-11.824-.488zm0 25.006l2.332-.054-1.14-3.634s-1.136 3.687-1.193 3.687zM599.723 120.8l-.045-15.452c1.912-.067 5.736.09 5.736.09l.27 4.611 4.566-4.611 3.126 3.644-4.993 4.161 5.96 2.5c-1.889 2.632-3.059 4.184-3.059 4.184L605.1 115.9l.247 4.544zm17.209-8.862l4.229-.2a87.577 87.577 0 01.36 8.885 41.349 41.349 0 01-5.8-.023zm4.723-2.407a3.68 3.68 0 01-4 .81 3.152 3.152 0 01-1.35-4.9 3.853 3.853 0 013.261-1.552 3.209 3.209 0 013.082 3.374 3.626 3.626 0 01-.993 2.271zm2.827.045l5.983 2.947.068-6.77a63.488 63.488 0 015.826.2c0 .675-1.552 14.913-1.552 14.913l-6.7-3.149.18 3.014c-.922-.135-4.251-1.1-4.251-1.1zm13.868-4.206c.382-.135 11.809-.675 11.021 7.49-.787 8.142-10.639 7.737-10.639 7.737zm4.791 8.66c1.957-.517 1.372-2.789-.2-2.429q.099 1.217.201 2.431zm8.318 6.7v-14.84c3.891-.18 8.727-.36 8.727-.36v3.081l-3.734-.067.023 1.1 2.632.023.068 4.769-2.789-.068.089 2.7 3.645-.2.023 3.891zm10.859-14.868c16.1-2.7 11.989 7.737 5.488 9.042l5.6 2.114-2.273 4.026-4.093-2.812-.067 2.879s-4.252-.27-4.161-.337zm4.566 5.893c-.023-.045 1.1-.877 1.1-1.417s-1.1-.427-1.1-.427zm20.977-5.376l-.068 3.306c-4.724-1.664-6.162 1.844-5.916 3.824.338 2.722 2.587 3.149 3.779.787l-1.62-.135-.517-2.452 5.556-.945c.067 3.621-.068 9.065-.068 9.065-5.083 1.619-13.406 1.732-13.923-5.466-.2-2.587.7-7.13 4.949-8.592a10.141 10.141 0 017.829.614zm9.17-3.059l8.769 17.08c-2.856.157-5.533.337-5.533.337l-1.192-2.969-2.788.157-.946 2.744c-.9-.067-4.9-.2-4.9-.2zm0 10.369l.967-.023-.473-1.507s-.471 1.536-.494 1.536zm10.093-7.827c16.1-2.7 11.989 7.737 5.488 9.042l5.6 2.114-2.273 4.026-4.093-2.812-.068 2.879s-4.251-.27-4.16-.337zm4.566 5.893c-.023-.045 1.1-.877 1.1-1.417s-1.1-.427-1.1-.427zm8.245-.9l-.36-5.038c6.209-.135 12.123 0 12.123 0l-.2 4.3-2.969.292-.382 10.234-4.589-.292-.068-9.784zm13.535 9.874V105.89c3.891-.18 8.726-.36 8.726-.36v3.081l-3.734-.067.023 1.1 2.632.023.068 4.769-2.789-.068.089 2.7 3.645-.2.023 3.891zm11.084-11.156l5.983 2.947.067-6.77c2.3-.022 4.184.067 5.826.2 0 .675-1.552 14.913-1.552 14.913l-6.7-3.149.18 3.014c-.922-.135-4.252-1.1-4.252-1.1z" transform="translate(-518.167 -49.649)" fill="url(#a)"/></svg>